Atma-Regular.ufo
<glyph name="parenleft" format="1">
  <advance width="338"/>
  <unicode hex="0028"/>
  <outline>
    <contour>
      <point x="93" y="313" type="curve" smooth="yes"/>
      <point x="93" y="477"/>
      <point x="156" y="645"/>
      <point x="333" y="756" type="curve"/>
      <point x="316" y="775"/>
      <point x="300" y="790"/>
      <point x="280" y="800" type="curve"/>
      <point x="110" y="682"/>
      <point x="24" y="513"/>
      <point x="24" y="307" type="curve" smooth="yes"/>
      <point x="24" y="107"/>
      <point x="117" y="-50"/>
      <point x="274" y="-163" type="curve"/>
      <point x="298" y="-151"/>
      <point x="312" y="-137"/>
      <point x="327" y="-120" type="curve"/>
      <point x="173" y="-17"/>
      <point x="93" y="127"/>
    </contour>
  </outline>
</glyph>
<glyph name="asterisk" format="1">
  <advance width="440"/>
  <unicode hex="002A"/>
  <outline>
    <contour>
      <point x="389" y="402" type="curve" smooth="yes"/>
      <point x="396" y="413"/>
      <point x="402" y="430"/>
      <point x="405" y="441" type="curve"/>
      <point x="342" y="469"/>
      <point x="293" y="495"/>
      <point x="222" y="535" type="curve"/>
      <point x="214" y="523"/>
      <point x="206" y="508"/>
      <point x="203" y="497" type="curve"/>
      <point x="284" y="439"/>
      <point x="328" y="409"/>
      <point x="376" y="383" type="curve"/>
      <point x="381" y="390"/>
      <point x="384" y="393"/>
    </contour>
    <contour>
      <point x="399" y="603" type="curve" smooth="yes"/>
      <point x="393" y="615"/>
      <point x="381" y="629"/>
      <point x="374" y="637" type="curve"/>
      <point x="318" y="595"/>
      <point x="272" y="566"/>
      <point x="201" y="525" type="curve"/>
      <point x="207" y="512"/>
      <point x="215" y="498"/>
      <point x="223" y="490" type="curve"/>
      <point x="313" y="531"/>
      <point x="362" y="554"/>
      <point x="408" y="582" type="curve"/>
      <point x="404" y="590"/>
      <point x="404" y="594"/>
    </contour>
    <contour>
      <point x="252" y="710" type="curve"/>
      <point x="242" y="711"/>
      <point x="238" y="712"/>
      <point x="229" y="712" type="curve" smooth="yes"/>
      <point x="216" y="712"/>
      <point x="199" y="710"/>
      <point x="188" y="707" type="curve"/>
      <point x="194" y="636"/>
      <point x="197" y="580"/>
      <point x="198" y="496" type="curve"/>
      <point x="212" y="495"/>
      <point x="229" y="496"/>
      <point x="240" y="499" type="curve"/>
      <point x="250" y="601"/>
      <point x="253" y="654"/>
    </contour>
    <contour>
      <point x="251" y="315" type="curve"/>
      <point x="244" y="384"/>
      <point x="241" y="437"/>
      <point x="241" y="521" type="curve"/>
      <point x="228" y="522"/>
      <point x="210" y="521"/>
      <point x="199" y="518" type="curve"/>
      <point x="189" y="420"/>
      <point x="185" y="365"/>
      <point x="187" y="312" type="curve"/>
      <point x="197" y="310"/>
      <point x="201" y="309"/>
      <point x="210" y="309" type="curve" smooth="yes"/>
      <point x="223" y="309"/>
      <point x="241" y="312"/>
    </contour>
    <contour>
      <point x="63" y="638" type="curve"/>
      <point x="58" y="631"/>
      <point x="55" y="628"/>
      <point x="50" y="620" type="curve" smooth="yes"/>
      <point x="43" y="609"/>
      <point x="37" y="592"/>
      <point x="34" y="581" type="curve"/>
      <point x="98" y="552"/>
      <point x="147" y="528"/>
      <point x="221" y="484" type="curve"/>
      <point x="229" y="496"/>
      <point x="238" y="512"/>
      <point x="240" y="523" type="curve"/>
      <point x="158" y="582"/>
      <point x="113" y="612"/>
    </contour>
    <contour>
      <point x="31" y="439" type="curve"/>
      <point x="35" y="431"/>
      <point x="36" y="427"/>
      <point x="40" y="419" type="curve" smooth="yes"/>
      <point x="46" y="407"/>
      <point x="58" y="393"/>
      <point x="65" y="384" type="curve"/>
      <point x="124" y="425"/>
      <point x="171" y="456"/>
      <point x="244" y="499" type="curve"/>
      <point x="237" y="513"/>
      <point x="229" y="527"/>
      <point x="219" y="535" type="curve"/>
      <point x="126" y="492"/>
      <point x="79" y="469"/>
    </contour>
  </outline>
</glyph>
<glyph name="period" format="1">
  <advance width="167"/>
  <unicode hex="002E"/>
  <outline>
    <contour>
      <point x="131" y="26"/>
      <point x="132" y="50"/>
      <point x="133" y="79" type="curve"/>
      <point x="93" y="86"/>
      <point x="61" y="81"/>
      <point x="38" y="76" type="curve"/>
      <point x="38" y="47"/>
      <point x="40" y="28"/>
      <point x="41" y="-2" type="curve"/>
      <point x="69" y="-6"/>
      <point x="93" y="-6"/>
      <point x="126" y="-2" type="curve"/>
    </contour>
  </outline>
</glyph>
<glyph name="eight" format="1">
  <advance width="455"/>
  <unicode hex="0038"/>
  <outline>
    <contour>
      <point x="422" y="226" type="curve" smooth="yes"/>
      <point x="422" y="320"/>
      <point x="342" y="390"/>
      <point x="250" y="390" type="curve" smooth="yes"/>
      <point x="115" y="390"/>
      <point x="35" y="282"/>
      <point x="35" y="170" type="curve" smooth="yes"/>
      <point x="35" y="71"/>
      <point x="105" y="-6"/>
      <point x="209" y="-6" type="curve" smooth="yes"/>
      <point x="341" y="-6"/>
      <point x="422" y="98"/>
    </contour>
    <contour>
      <point x="344" y="215" type="curve" smooth="yes"/>
      <point x="344" y="120"/>
      <point x="293" y="46"/>
      <point x="220" y="46" type="curve" smooth="yes"/>
      <point x="160" y="46"/>
      <point x="112" y="93"/>
      <point x="112" y="183" type="curve" smooth="yes"/>
      <point x="112" y="282"/>
      <point x="174" y="340"/>
      <point x="234" y="340" type="curve" smooth="yes"/>
      <point x="305" y="340"/>
      <point x="344" y="284"/>
    </contour>
    <contour>
      <point x="331" y="534" type="curve" smooth="yes"/>
      <point x="331" y="454"/>
      <point x="291" y="393"/>
      <point x="226" y="393" type="curve" smooth="yes"/>
      <point x="154" y="393"/>
      <point x="121" y="456"/>
      <point x="121" y="524" type="curve" smooth="yes"/>
      <point x="121" y="603"/>
      <point x="163" y="670"/>
      <point x="229" y="670" type="curve" smooth="yes"/>
      <point x="288" y="670"/>
      <point x="331" y="627"/>
    </contour>
    <contour>
      <point x="409" y="561" type="curve" smooth="yes"/>
      <point x="409" y="657"/>
      <point x="336" y="723"/>
      <point x="241" y="723" type="curve" smooth="yes"/>
      <point x="121" y="723"/>
      <point x="43" y="643"/>
      <point x="43" y="518" type="curve" smooth="yes"/>
      <point x="43" y="419"/>
      <point x="113" y="343"/>
      <point x="201" y="343" type="curve" smooth="yes"/>
      <point x="335" y="343"/>
      <point x="409" y="429"/>
    </contour>
  </outline>
</glyph>
<glyph name="greater" format="1">
  <advance width="364"/>
  <unicode hex="003E"/>
  <outline>
    <contour>
      <point x="303" y="367" type="line"/>
      <point x="224" y="310"/>
      <point x="142" y="264"/>
      <point x="29" y="216" type="curve"/>
      <point x="33" y="197"/>
      <point x="38" y="187"/>
      <point x="46" y="167" type="curve"/>
      <point x="153" y="211"/>
      <point x="247" y="260"/>
      <point x="331" y="321" type="curve"/>
      <point x="334" y="360" type="line"/>
      <point x="257" y="420"/>
      <point x="157" y="472"/>
      <point x="49" y="513" type="curve"/>
      <point x="40" y="498"/>
      <point x="34" y="483"/>
      <point x="32" y="465" type="curve"/>
      <point x="144" y="417"/>
      <point x="236" y="370"/>
      <point x="305" y="314" type="curve"/>
    </contour>
  </outline>
</glyph>
<glyph name="question" format="1">
  <advance width="383"/>
  <unicode hex="003F"/>
  <outline>
    <contour>
      <point x="176" y="357" type="line"/>
      <point x="292" y="385"/>
      <point x="353" y="470"/>
      <point x="353" y="574" type="curve" smooth="yes"/>
      <point x="353" y="687"/>
      <point x="287" y="763"/>
      <point x="191" y="763" type="curve" smooth="yes"/>
      <point x="74" y="763"/>
      <point x="23" y="679"/>
      <point x="15" y="545" type="curve"/>
      <point x="35" y="538"/>
      <point x="59" y="534"/>
      <point x="84" y="534" type="curve"/>
      <point x="84" y="644"/>
      <point x="121" y="710"/>
      <point x="185" y="710" type="curve" smooth="yes"/>
      <point x="241" y="710"/>
      <point x="275" y="654"/>
      <point x="275" y="571" type="curve" smooth="yes"/>
      <point x="275" y="479"/>
      <point x="229" y="413"/>
      <point x="131" y="391" type="curve"/>
    </contour>
    <contour>
      <point x="131" y="391" type="line"/>
      <point x="133" y="327"/>
      <point x="141" y="260"/>
      <point x="146" y="205" type="curve"/>
      <point x="164" y="205"/>
      <point x="184" y="205"/>
      <point x="199" y="208" type="curve"/>
      <point x="200" y="283"/>
      <point x="200" y="338"/>
      <point x="201" y="401" type="curve"/>
    </contour>
    <contour>
      <point x="219" y="0" type="curve"/>
      <point x="217" y="29"/>
      <point x="217" y="48"/>
      <point x="214" y="77" type="curve"/>
      <point x="190" y="79"/>
      <point x="171" y="79"/>
      <point x="142" y="78" type="curve"/>
      <point x="141" y="53"/>
      <point x="141" y="28"/>
      <point x="143" y="0" type="curve"/>
      <point x="154" y="-2"/>
      <point x="166" y="-4"/>
      <point x="179" y="-4" type="curve" smooth="yes"/>
      <point x="193" y="-4"/>
      <point x="205" y="-3"/>
    </contour>
  </outline>
</glyph>
<glyph name="B" format="1">
  <advance width="574"/>
  <unicode hex="0042"/>
  <outline>
    <contour>
      <point x="158" y="6" type="curve"/>
      <point x="152" y="85"/>
      <point x="149" y="151"/>
      <point x="149" y="258" type="curve" smooth="yes"/>
      <point x="149" y="377"/>
      <point x="145" y="526"/>
      <point x="160" y="703" type="curve"/>
      <point x="150" y="705"/>
      <point x="85" y="704"/>
      <point x="72" y="701" type="curve"/>
      <point x="72" y="635"/>
      <point x="73" y="586"/>
      <point x="73" y="538" type="curve" smooth="yes"/>
      <point x="73" y="371"/>
      <point x="76" y="248"/>
      <point x="87" y="16" type="curve"/>
      <point x="97" y="14"/>
      <point x="149" y="6"/>
    </contour>
    <contour>
      <point x="484" y="577" type="curve" smooth="yes"/>
      <point x="484" y="677"/>
      <point x="402" y="740"/>
      <point x="252" y="740" type="curve"/>
      <point x="190" y="740"/>
      <point x="128" y="727"/>
      <point x="72" y="701" type="curve"/>
      <point x="73" y="695"/>
      <point x="93" y="654"/>
      <point x="97" y="647" type="curve"/>
      <point x="136" y="671"/>
      <point x="197" y="685"/>
      <point x="253" y="685" type="curve" smooth="yes"/>
      <point x="356" y="685"/>
      <point x="404" y="638"/>
      <point x="404" y="568" type="curve" smooth="yes"/>
      <point x="404" y="479"/>
      <point x="340" y="421"/>
      <point x="137" y="405" type="curve"/>
      <point x="160" y="366" type="line"/>
      <point x="439" y="394"/>
      <point x="484" y="500"/>
    </contour>
    <contour>
      <point x="534" y="259" type="curve" smooth="yes"/>
      <point x="534" y="359"/>
      <point x="457" y="421"/>
      <point x="304" y="421" type="curve" smooth="yes"/>
      <point x="254" y="421"/>
      <point x="187" y="405"/>
      <point x="134" y="395" type="curve"/>
      <point x="134" y="338" type="line"/>
      <point x="165" y="352"/>
      <point x="239" y="371"/>
      <point x="299" y="371" type="curve" smooth="yes"/>
      <point x="415" y="371"/>
      <point x="453" y="317"/>
      <point x="453" y="240" type="curve" smooth="yes"/>
      <point x="453" y="134"/>
      <point x="357" y="36"/>
      <point x="233" y="36" type="curve" smooth="yes"/>
      <point x="190" y="36"/>
      <point x="147" y="51"/>
      <point x="115" y="77" type="curve"/>
      <point x="87" y="16" type="line"/>
      <point x="119" y="-4"/>
      <point x="171" y="-20"/>
      <point x="223" y="-20" type="curve" smooth="yes"/>
      <point x="400" y="-20"/>
      <point x="534" y="107"/>
    </contour>
  </outline>
</glyph>
<glyph name="D" format="1">
  <advance width="576"/>
  <unicode hex="0044"/>
  <outline>
    <contour>
      <point x="148" y="-11" type="curve"/>
      <point x="144" y="66"/>
      <point x="142" y="130"/>
      <point x="142" y="229" type="curve" smooth="yes"/>
      <point x="142" y="383"/>
      <point x="141" y="477"/>
      <point x="154" y="671" type="curve"/>
      <point x="143" y="674"/>
      <point x="81" y="677"/>
      <point x="67" y="675" type="curve"/>
      <point x="65" y="624"/>
      <point x="64" y="558"/>
      <point x="64" y="508" type="curve" smooth="yes"/>
      <point x="64" y="346"/>
      <point x="69" y="200"/>
      <point x="80" y="-3" type="curve"/>
      <point x="89" y="-5"/>
      <point x="139" y="-11"/>
    </contour>
    <contour>
      <point x="535" y="444" type="curve" smooth="yes"/>
      <point x="535" y="611"/>
      <point x="447" y="717"/>
      <point x="255" y="717" type="curve" smooth="yes"/>
      <point x="184" y="717"/>
      <point x="123" y="703"/>
      <point x="67" y="675" type="curve"/>
      <point x="69" y="667"/>
      <point x="79" y="619"/>
      <point x="85" y="610" type="curve"/>
      <point x="133" y="640"/>
      <point x="182" y="659"/>
      <point x="240" y="659" type="curve" smooth="yes"/>
      <point x="388" y="659"/>
      <point x="453" y="575"/>
      <point x="453" y="446" type="curve" smooth="yes"/>
      <point x="453" y="265"/>
      <point x="350" y="114"/>
      <point x="105" y="35" type="curve"/>
      <point x="148" y="-11" type="line"/>
      <point x="388" y="64"/>
      <point x="535" y="245"/>
    </contour>
  </outline>
</glyph>
<glyph name="F" format="1">
  <advance width="506"/>
  <unicode hex="0046"/>
  <outline>
    <contour>
      <point x="403" y="380" type="curve"/>
      <point x="403" y="405"/>
      <point x="400" y="424"/>
      <point x="396" y="443" type="curve"/>
      <point x="308" y="438"/>
      <point x="225" y="427"/>
      <point x="141" y="409" type="curve"/>
      <point x="147" y="353" type="line"/>
      <point x="226" y="365"/>
      <point x="316" y="376"/>
    </contour>
    <contour>
      <point x="177" y="-72" type="curve"/>
      <point x="180" y="46"/>
      <point x="179" y="139"/>
      <point x="175" y="326" type="curve" smooth="yes"/>
      <point x="172" y="459"/>
      <point x="162" y="591"/>
      <point x="142" y="714" type="curve"/>
      <point x="124" y="714"/>
      <point x="70" y="721"/>
      <point x="57" y="721" type="curve"/>
      <point x="97" y="474"/>
      <point x="109" y="206"/>
      <point x="104" y="-78" type="curve"/>
      <point x="127" y="-79"/>
      <point x="155" y="-77"/>
    </contour>
    <contour>
      <point x="460" y="705" type="curve"/>
      <point x="461" y="716"/>
      <point x="462" y="728"/>
      <point x="461" y="741" type="curve" smooth="yes"/>
      <point x="460" y="752"/>
      <point x="457" y="764"/>
      <point x="453" y="774" type="curve"/>
      <point x="319" y="748"/>
      <point x="224" y="734"/>
      <point x="57" y="721" type="curve"/>
      <point x="60" y="715"/>
      <point x="95" y="672"/>
      <point x="95" y="661" type="curve"/>
      <point x="227" y="668"/>
      <point x="326" y="683"/>
    </contour>
  </outline>
</glyph>
<glyph name="I" format="1">
  <advance width="235"/>
  <unicode hex="0049"/>
  <outline>
    <contour>
      <point x="149" y="-20" type="curve"/>
      <point x="157" y="195"/>
      <point x="156" y="335"/>
      <point x="156" y="487" type="curve" smooth="yes"/>
      <point x="156" y="556"/>
      <point x="155" y="613"/>
      <point x="151" y="677" type="curve"/>
      <point x="140" y="679"/>
      <point x="131" y="680"/>
      <point x="119" y="680" type="curve" smooth="yes"/>
      <point x="98" y="680"/>
      <point x="81" y="675"/>
      <point x="66" y="667" type="curve"/>
      <point x="82" y="451"/>
      <point x="86" y="211"/>
      <point x="83" y="-28" type="curve"/>
      <point x="107" y="-27"/>
      <point x="135" y="-24"/>
    </contour>
  </outline>
</glyph>
<glyph name="L" format="1">
  <advance width="480"/>
  <unicode hex="004C"/>
  <outline>
    <contour>
      <point x="470" y="-72" type="curve"/>
      <point x="470" y="-53"/>
      <point x="466" y="-23"/>
      <point x="463" y="-6" type="curve"/>
      <point x="368" y="-6"/>
      <point x="266" y="-16"/>
      <point x="182" y="-29" type="curve"/>
      <point x="159" y="129"/>
      <point x="153" y="257"/>
      <point x="151" y="387" type="curve" smooth="yes"/>
      <point x="150" y="488"/>
      <point x="151" y="580"/>
      <point x="160" y="672" type="curve"/>
      <point x="153" y="673"/>
      <point x="143" y="674"/>
      <point x="133" y="674" type="curve" smooth="yes"/>
      <point x="109" y="674"/>
      <point x="92" y="671"/>
      <point x="71" y="663" type="curve"/>
      <point x="65" y="427"/>
      <point x="82" y="157"/>
      <point x="117" y="-98" type="curve"/>
      <point x="225" y="-83"/>
      <point x="320" y="-73"/>
    </contour>
  </outline>
</glyph>
<glyph name="O" format="1">
  <advance width="599"/>
  <unicode hex="004F"/>
  <outline>
    <contour>
      <point x="552" y="394" type="curve" smooth="yes"/>
      <point x="552" y="614"/>
      <point x="474" y="733"/>
      <point x="326" y="733" type="curve" smooth="yes"/>
      <point x="157" y="733"/>
      <point x="44" y="563"/>
      <point x="44" y="339" type="curve" smooth="yes"/>
      <point x="44" y="135"/>
      <point x="132" y="-20"/>
      <point x="274" y="-20" type="curve" smooth="yes"/>
      <point x="482" y="-20"/>
      <point x="552" y="226"/>
    </contour>
    <contour>
      <point x="470" y="377" type="curve" smooth="yes"/>
      <point x="470" y="216"/>
      <point x="417" y="39"/>
      <point x="282" y="39" type="curve" smooth="yes"/>
      <point x="169" y="39"/>
      <point x="127" y="209"/>
      <point x="127" y="351" type="curve" smooth="yes"/>
      <point x="127" y="543"/>
      <point x="206" y="672"/>
      <point x="313" y="672" type="curve" smooth="yes"/>
      <point x="415" y="672"/>
      <point x="470" y="590"/>
    </contour>
  </outline>
</glyph>
<glyph name="R" format="1">
  <advance width="562"/>
  <unicode hex="0052"/>
  <outline>
    <contour>
      <point x="148" y="-5" type="curve"/>
      <point x="161" y="129"/>
      <point x="166" y="263"/>
      <point x="166" y="394" type="curve" smooth="yes"/>
      <point x="166" y="491"/>
      <point x="162" y="578"/>
      <point x="152" y="700" type="curve"/>
      <point x="142" y="702"/>
      <point x="79" y="706"/>
      <point x="66" y="703" type="curve"/>
      <point x="87" y="514"/>
      <point x="90" y="418"/>
      <point x="90" y="228" type="curve" smooth="yes"/>
      <point x="90" y="142"/>
      <point x="87" y="82"/>
      <point x="82" y="-1" type="curve"/>
      <point x="99" y="-6"/>
      <point x="130" y="-7"/>
    </contour>
    <contour>
      <point x="158" y="277" type="line"/>
      <point x="386" y="335"/>
      <point x="492" y="434"/>
      <point x="492" y="579" type="curve" smooth="yes"/>
      <point x="492" y="689"/>
      <point x="417" y="770"/>
      <point x="278" y="770" type="curve" smooth="yes"/>
      <point x="203" y="770"/>
      <point x="124" y="744"/>
      <point x="66" y="703" type="curve"/>
      <point x="68" y="695"/>
      <point x="97" y="657"/>
      <point x="100" y="647" type="curve"/>
      <point x="142" y="686"/>
      <point x="204" y="713"/>
      <point x="270" y="713" type="curve" smooth="yes"/>
      <point x="358" y="713"/>
      <point x="411" y="663"/>
      <point x="411" y="565" type="curve" smooth="yes"/>
      <point x="411" y="448"/>
      <point x="330" y="372"/>
      <point x="147" y="331" type="curve"/>
    </contour>
    <contour>
      <point x="542" y="6" type="curve"/>
      <point x="460" y="188"/>
      <point x="388" y="300"/>
      <point x="326" y="367" type="curve"/>
      <point x="268" y="337" type="line"/>
      <point x="350" y="228"/>
      <point x="400" y="134"/>
      <point x="472" y="-28" type="curve"/>
      <point x="497" y="-22"/>
      <point x="530" y="-5"/>
    </contour>
  </outline>
</glyph>
<glyph name="U" format="1">
  <advance width="547"/>
  <unicode hex="0055"/>
  <outline>
    <contour>
      <point x="489" y="370" type="curve" smooth="yes"/>
      <point x="489" y="495"/>
      <point x="467" y="609"/>
      <point x="443" y="706" type="curve"/>
      <point x="412" y="704"/>
      <point x="383" y="699"/>
      <point x="358" y="691" type="curve"/>
      <point x="389" y="571"/>
      <point x="406" y="463"/>
      <point x="406" y="321" type="curve" smooth="yes"/>
      <point x="406" y="119"/>
      <point x="356" y="-18"/>
      <point x="254" y="-18" type="curve" smooth="yes"/>
      <point x="177" y="-18"/>
      <point x="138" y="59"/>
      <point x="138" y="294" type="curve" smooth="yes"/>
      <point x="138" y="403"/>
      <point x="156" y="520"/>
      <point x="182" y="630" type="curve"/>
      <point x="175" y="632"/>
      <point x="165" y="634"/>
      <point x="150" y="634" type="curve" smooth="yes"/>
      <point x="138" y="634"/>
      <point x="117" y="632"/>
      <point x="105" y="628" type="curve"/>
      <point x="81" y="558"/>
      <point x="54" y="410"/>
      <point x="54" y="272" type="curve" smooth="yes"/>
      <point x="54" y="16"/>
      <point x="125" y="-80"/>
      <point x="240" y="-80" type="curve" smooth="yes"/>
      <point x="404" y="-80"/>
      <point x="489" y="62"/>
    </contour>
  </outline>
</glyph>
<glyph name="W" format="1">
  <advance width="746"/>
  <unicode hex="0057"/>
  <outline>
    <contour>
      <point x="518" y="-28" type="curve"/>
      <point x="641" y="238"/>
      <point x="694" y="439"/>
      <point x="731" y="687" type="curve"/>
      <point x="707" y="701"/>
      <point x="682" y="709"/>
      <point x="655" y="710" type="curve"/>
      <point x="630" y="472"/>
      <point x="581" y="276"/>
      <point x="484" y="33" type="curve"/>
      <point x="505" y="31" type="line"/>
      <point x="445" y="229"/>
      <point x="423" y="372"/>
      <point x="413" y="544" type="curve"/>
      <point x="389" y="543"/>
      <point x="360" y="539"/>
      <point x="336" y="533" type="curve"/>
      <point x="317" y="365"/>
      <point x="284" y="240"/>
      <point x="207" y="21" type="curve"/>
      <point x="228" y="21" type="line"/>
      <point x="151" y="278"/>
      <point x="113" y="462"/>
      <point x="99" y="672" type="curve"/>
      <point x="65" y="670"/>
      <point x="40" y="664"/>
      <point x="16" y="656" type="curve"/>
      <point x="42" y="407"/>
      <point x="82" y="236"/>
      <point x="180" y="-64" type="curve"/>
      <point x="199" y="-63"/>
      <point x="220" y="-59"/>
      <point x="238" y="-53" type="curve"/>
      <point x="297" y="86"/>
      <point x="335" y="206"/>
      <point x="364" y="336" type="curve"/>
      <point x="380" y="222"/>
      <point x="410" y="113"/>
      <point x="456" y="-37" type="curve"/>
      <point x="479" y="-35"/>
      <point x="497" y="-33"/>
    </contour>
  </outline>
</glyph>
<glyph name="Y" format="1">
  <advance width="513"/>
  <unicode hex="0059"/>
  <outline>
    <contour>
      <point x="287" y="239" type="line"/>
      <point x="201" y="379"/>
      <point x="137" y="524"/>
      <point x="98" y="728" type="curve"/>
      <point x="67" y="726"/>
      <point x="40" y="718"/>
      <point x="14" y="704" type="curve"/>
      <point x="66" y="489"/>
      <point x="129" y="330"/>
      <point x="255" y="165" type="curve"/>
    </contour>
    <contour>
      <point x="159" y="-83" type="curve"/>
      <point x="335" y="157"/>
      <point x="408" y="407"/>
      <point x="479" y="684" type="curve"/>
      <point x="452" y="698"/>
      <point x="424" y="708"/>
      <point x="393" y="715" type="curve"/>
      <point x="342" y="410"/>
      <point x="263" y="182"/>
      <point x="95" y="-55" type="curve"/>
      <point x="112" y="-67"/>
      <point x="136" y="-77"/>
    </contour>
  </outline>
</glyph>
<glyph name="grave" format="1">
  <advance width="260"/>
  <unicode hex="0060"/>
  <outline>
    <contour>
      <point x="184" y="580" type="curve"/>
      <point x="162" y="642"/>
      <point x="149" y="696"/>
      <point x="144" y="750" type="curve"/>
      <point x="122" y="753"/>
      <point x="89" y="752"/>
      <point x="68" y="745" type="curve"/>
      <point x="75" y="686"/>
      <point x="98" y="630"/>
      <point x="132" y="572" type="curve"/>
      <point x="151" y="573"/>
      <point x="166" y="576"/>
    </contour>
    <contour>
      <point x="158" y="560" type="move" name="_top"/>
    </contour>
  </outline>
</glyph>
<glyph name="b" format="1">
  <advance width="448"/>
  <unicode hex="0062"/>
  <outline>
    <contour>
      <point x="62" y="11" type="curve"/>
      <point x="86" y="6"/>
      <point x="106" y="-7"/>
      <point x="131" y="-9" type="curve"/>
      <point x="124" y="49"/>
      <point x="125" y="105"/>
      <point x="125" y="210" type="curve" smooth="yes"/>
      <point x="125" y="363"/>
      <point x="139" y="567"/>
      <point x="164" y="716" type="curve"/>
      <point x="151" y="719"/>
      <point x="142" y="721"/>
      <point x="128" y="721" type="curve" smooth="yes"/>
      <point x="108" y="721"/>
      <point x="89" y="719"/>
      <point x="73" y="713" type="curve"/>
      <point x="62" y="624"/>
      <point x="55" y="462"/>
      <point x="55" y="319" type="curve" smooth="yes"/>
      <point x="55" y="272"/>
      <point x="55" y="122"/>
    </contour>
    <contour>
      <point x="118" y="52" type="curve"/>
      <point x="62" y="11" type="line"/>
      <point x="92" y="-16"/>
      <point x="129" y="-34"/>
      <point x="181" y="-34" type="curve" smooth="yes"/>
      <point x="315" y="-34"/>
      <point x="408" y="94"/>
      <point x="408" y="300" type="curve" smooth="yes"/>
      <point x="408" y="443"/>
      <point x="355" y="511"/>
      <point x="266" y="511" type="curve" smooth="yes"/>
      <point x="170" y="511"/>
      <point x="117" y="437"/>
      <point x="83" y="322" type="curve"/>
      <point x="116" y="292" type="line"/>
      <point x="142" y="405"/>
      <point x="197" y="454"/>
      <point x="240" y="454" type="curve" smooth="yes"/>
      <point x="297" y="454"/>
      <point x="328" y="407"/>
      <point x="328" y="304" type="curve" smooth="yes"/>
      <point x="328" y="151"/>
      <point x="289" y="23"/>
      <point x="186" y="23" type="curve" smooth="yes"/>
      <point x="156" y="23"/>
      <point x="136" y="34"/>
    </contour>
  </outline>
</glyph>
<glyph name="c" format="1">
  <advance width="424"/>
  <unicode hex="0063"/>
  <outline>
    <contour>
      <point x="311" y="353" type="curve"/>
      <point x="341" y="353"/>
      <point x="366" y="358"/>
      <point x="387" y="368" type="curve"/>
      <point x="387" y="466"/>
      <point x="341" y="541"/>
      <point x="239" y="541" type="curve" smooth="yes"/>
      <point x="113" y="541"/>
      <point x="27" y="389"/>
      <point x="27" y="198" type="curve" smooth="yes"/>
      <point x="27" y="79"/>
      <point x="71" y="-25"/>
      <point x="195" y="-25" type="curve" smooth="yes"/>
      <point x="291" y="-25"/>
      <point x="365" y="48"/>
      <point x="384" y="119" type="curve"/>
      <point x="372" y="134"/>
      <point x="355" y="145"/>
      <point x="336" y="151" type="curve"/>
      <point x="307" y="82"/>
      <point x="264" y="29"/>
      <point x="208" y="29" type="curve" smooth="yes"/>
      <point x="134" y="29"/>
      <point x="103" y="109"/>
      <point x="103" y="204" type="curve" smooth="yes"/>
      <point x="103" y="343"/>
      <point x="160" y="488"/>
      <point x="238" y="488" type="curve" smooth="yes"/>
      <point x="292" y="488"/>
      <point x="311" y="432"/>
    </contour>
  </outline>
</glyph>
<glyph name="f" format="1">
  <advance width="381"/>
  <unicode hex="0066"/>
  <outline>
    <contour>
      <point x="189" y="-13"/>
      <point x="159" y="-21"/>
      <point x="132" y="-21" type="curve"/>
      <point x="119" y="38"/>
      <point x="93" y="236"/>
      <point x="93" y="400" type="curve" smooth="yes"/>
      <point x="93" y="634"/>
      <point x="146" y="727"/>
      <point x="243" y="727" type="curve" smooth="yes"/>
      <point x="320" y="727"/>
      <point x="357" y="668"/>
      <point x="357" y="601" type="curve" smooth="yes"/>
      <point x="357" y="580"/>
      <point x="352" y="554"/>
      <point x="345" y="540" type="curve"/>
      <point x="323" y="540"/>
      <point x="302" y="544"/>
      <point x="283" y="551" type="curve"/>
      <point x="288" y="566"/>
      <point x="292" y="585"/>
      <point x="292" y="607" type="curve" smooth="yes"/>
      <point x="292" y="645"/>
      <point x="274" y="672"/>
      <point x="243" y="672" type="curve" smooth="yes"/>
      <point x="192" y="672"/>
      <point x="164" y="590"/>
      <point x="164" y="448" type="curve" smooth="yes"/>
      <point x="164" y="275"/>
      <point x="184" y="107"/>
      <point x="211" y="-6" type="curve"/>
    </contour>
    <contour>
      <point x="94" y="440"/>
      <point x="169" y="435"/>
      <point x="244" y="435" type="curve" smooth="yes"/>
      <point x="275" y="435"/>
      <point x="301" y="437"/>
      <point x="319" y="441" type="curve"/>
      <point x="319" y="423"/>
      <point x="316" y="397"/>
      <point x="313" y="383" type="curve"/>
      <point x="301" y="380"/>
      <point x="281" y="378"/>
      <point x="242" y="378" type="curve" smooth="yes"/>
      <point x="147" y="378"/>
      <point x="61" y="393"/>
      <point x="30" y="405" type="curve"/>
      <point x="30" y="417"/>
      <point x="32" y="443"/>
      <point x="38" y="449" type="curve"/>
    </contour>
  </outline>
</glyph>
<glyph name="h" format="1">
  <advance width="467"/>
  <unicode hex="0068"/>
  <outline>
    <contour>
      <point x="416" y="326" type="curve" smooth="yes"/>
      <point x="416" y="473"/>
      <point x="372" y="526"/>
      <point x="283" y="526" type="curve" smooth="yes"/>
      <point x="207" y="526"/>
      <point x="142" y="451"/>
      <point x="106" y="355" type="curve"/>
      <point x="117" y="262" type="line"/>
      <point x="148" y="406"/>
      <point x="220" y="466"/>
      <point x="269" y="466" type="curve" smooth="yes"/>
      <point x="321" y="466"/>
      <point x="339" y="429"/>
      <point x="339" y="325" type="curve" smooth="yes"/>
      <point x="339" y="210"/>
      <point x="311" y="84"/>
      <point x="276" y="-12" type="curve"/>
      <point x="296" y="-22"/>
      <point x="318" y="-29"/>
      <point x="341" y="-32" type="curve"/>
      <point x="362" y="16"/>
      <point x="416" y="190"/>
    </contour>
    <contour>
      <point x="72" y="27" type="curve"/>
      <point x="94" y="27"/>
      <point x="125" y="30"/>
      <point x="141" y="35" type="curve"/>
      <point x="136" y="74"/>
      <point x="126" y="208"/>
      <point x="126" y="295" type="curve" smooth="yes"/>
      <point x="126" y="450"/>
      <point x="145" y="621"/>
      <point x="171" y="747" type="curve"/>
      <point x="156" y="750"/>
      <point x="146" y="755"/>
      <point x="131" y="755" type="curve" smooth="yes"/>
      <point x="110" y="755"/>
      <point x="91" y="749"/>
      <point x="76" y="741" type="curve"/>
      <point x="66" y="673"/>
      <point x="56" y="504"/>
      <point x="56" y="395" type="curve" smooth="yes"/>
      <point x="56" y="286"/>
      <point x="62" y="159"/>
    </contour>
  </outline>
</glyph>
<glyph name="k" format="1">
  <advance width="447"/>
  <unicode hex="006B"/>
  <outline>
    <contour>
      <point x="163" y="727" type="curve"/>
      <point x="143" y="734"/>
      <point x="110" y="737"/>
      <point x="80" y="734" type="curve"/>
      <point x="60" y="597"/>
      <point x="51" y="439"/>
      <point x="51" y="304" type="curve" smooth="yes"/>
      <point x="51" y="174"/>
      <point x="58" y="82"/>
      <point x="71" y="-50" type="curve"/>
      <point x="93" y="-50"/>
      <point x="121" y="-46"/>
      <point x="140" y="-42" type="curve"/>
      <point x="127" y="60"/>
      <point x="123" y="151"/>
      <point x="123" y="236" type="curve" smooth="yes"/>
      <point x="123" y="404"/>
      <point x="137" y="569"/>
    </contour>
    <contour>
      <point x="351" y="578" type="curve"/>
      <point x="261" y="438"/>
      <point x="200" y="373"/>
      <point x="74" y="270" type="curve"/>
      <point x="100" y="226" type="line"/>
      <point x="259" y="347"/>
      <point x="320" y="410"/>
      <point x="403" y="535" type="curve"/>
      <point x="390" y="552"/>
      <point x="371" y="568"/>
    </contour>
    <contour>
      <point x="169" y="343" type="curve"/>
      <point x="129" y="294" type="line"/>
      <point x="225" y="160"/>
      <point x="281" y="99"/>
      <point x="374" y="26" type="curve"/>
      <point x="398" y="40"/>
      <point x="414" y="63"/>
      <point x="427" y="82" type="curve"/>
      <point x="305" y="165"/>
      <point x="243" y="227"/>
    </contour>
  </outline>
</glyph>
<glyph name="m" format="1">
  <advance width="707"/>
  <unicode hex="006D"/>
  <outline>
    <contour>
      <point x="362" y="54"/>
      <point x="390" y="197"/>
      <point x="390" y="321" type="curve" smooth="yes"/>
      <point x="390" y="461"/>
      <point x="349" y="507"/>
      <point x="278" y="507" type="curve" smooth="yes"/>
      <point x="217" y="507"/>
      <point x="154" y="468"/>
      <point x="104" y="358" type="curve"/>
      <point x="122" y="308" type="line"/>
      <point x="154" y="398"/>
      <point x="208" y="441"/>
      <point x="253" y="441" type="curve" smooth="yes"/>
      <point x="298" y="441"/>
      <point x="315" y="405"/>
      <point x="315" y="322" type="curve" smooth="yes"/>
      <point x="315" y="225"/>
      <point x="300" y="127"/>
      <point x="281" y="24" type="curve"/>
      <point x="300" y="18"/>
      <point x="329" y="12"/>
      <point x="351" y="11" type="curve"/>
    </contour>
    <contour>
      <point x="48" y="357"/>
      <point x="59" y="98"/>
      <point x="67" y="-29" type="curve"/>
      <point x="89" y="-29"/>
      <point x="116" y="-25"/>
      <point x="133" y="-19" type="curve"/>
      <point x="127" y="23"/>
      <point x="126" y="129"/>
      <point x="126" y="167" type="curve" smooth="yes"/>
      <point x="126" y="273"/>
      <point x="131" y="440"/>
      <point x="141" y="529" type="curve"/>
      <point x="126" y="533"/>
      <point x="113" y="533"/>
      <point x="101" y="533" type="curve" smooth="yes"/>
      <point x="82" y="533"/>
      <point x="62" y="529"/>
      <point x="48" y="522" type="curve"/>
    </contour>
    <contour>
      <point x="605" y="33"/>
      <point x="647" y="215"/>
      <point x="647" y="375" type="curve" smooth="yes"/>
      <point x="647" y="516"/>
      <point x="606" y="562"/>
      <point x="534" y="562" type="curve" smooth="yes"/>
      <point x="471" y="562"/>
      <point x="409" y="518"/>
      <point x="355" y="399" type="curve"/>
      <point x="378" y="345" type="line"/>
      <point x="413" y="446"/>
      <point x="464" y="496"/>
      <point x="509" y="496" type="curve" smooth="yes"/>
      <point x="554" y="496"/>
      <point x="571" y="460"/>
      <point x="571" y="378" type="curve" smooth="yes"/>
      <point x="571" y="252"/>
      <point x="551" y="125"/>
      <point x="517" y="-9" type="curve"/>
      <point x="537" y="-16"/>
      <point x="567" y="-21"/>
      <point x="590" y="-22" type="curve"/>
    </contour>
  </outline>
</glyph>
<glyph name="q" format="1">
  <advance width="490"/>
  <unicode hex="0071"/>
  <outline>
    <contour>
      <point x="342" y="442" type="curve"/>
      <point x="361" y="494" type="line"/>
      <point x="345" y="502"/>
      <point x="303" y="512"/>
      <point x="276" y="512" type="curve" smooth="yes"/>
      <point x="129" y="512"/>
      <point x="39" y="386"/>
      <point x="39" y="196" type="curve" smooth="yes"/>
      <point x="39" y="61"/>
      <point x="94" y="-50"/>
      <point x="194" y="-50" type="curve" smooth="yes"/>
      <point x="260" y="-50"/>
      <point x="314" y="7"/>
      <point x="350" y="174" type="curve"/>
      <point x="319" y="194" type="line"/>
      <point x="294" y="48"/>
      <point x="258" y="9"/>
      <point x="205" y="9" type="curve" smooth="yes"/>
      <point x="158" y="9"/>
      <point x="115" y="73"/>
      <point x="115" y="201" type="curve" smooth="yes"/>
      <point x="115" y="385"/>
      <point x="194" y="457"/>
      <point x="270" y="457" type="curve" smooth="yes"/>
      <point x="309" y="457"/>
      <point x="327" y="450"/>
    </contour>
    <contour>
      <point x="379" y="564"/>
      <point x="366" y="559"/>
      <point x="353" y="553" type="curve"/>
      <point x="327" y="445"/>
      <point x="308" y="233"/>
      <point x="308" y="93" type="curve" smooth="yes"/>
      <point x="308" y="-39"/>
      <point x="314" y="-210"/>
      <point x="317" y="-237" type="curve"/>
      <point x="325" y="-240"/>
      <point x="330" y="-241"/>
      <point x="340" y="-241" type="curve" smooth="yes"/>
      <point x="354" y="-241"/>
      <point x="372" y="-238"/>
      <point x="382" y="-234" type="curve"/>
      <point x="370" y="77"/>
      <point x="392" y="382"/>
      <point x="443" y="558" type="curve"/>
      <point x="431" y="562"/>
      <point x="415" y="564"/>
      <point x="404" y="564" type="curve" smooth="yes"/>
    </contour>
  </outline>
</glyph>
<glyph name="s" format="1">
  <advance width="374"/>
  <unicode hex="0073"/>
  <outline>
    <contour>
      <point x="339" y="119" type="curve" smooth="yes"/>
      <point x="339" y="281"/>
      <point x="117" y="291"/>
      <point x="117" y="430" type="curve" smooth="yes"/>
      <point x="117" y="477"/>
      <point x="143" y="504"/>
      <point x="182" y="504" type="curve" smooth="yes"/>
      <point x="231" y="504"/>
      <point x="256" y="468"/>
      <point x="267" y="391" type="curve"/>
      <point x="290" y="393"/>
      <point x="310" y="398"/>
      <point x="330" y="407" type="curve"/>
      <point x="313" y="502"/>
      <point x="274" y="558"/>
      <point x="183" y="558" type="curve" smooth="yes"/>
      <point x="93" y="558"/>
      <point x="42" y="501"/>
      <point x="42" y="420" type="curve" smooth="yes"/>
      <point x="42" y="249"/>
      <point x="263" y="240"/>
      <point x="263" y="103" type="curve" smooth="yes"/>
      <point x="263" y="48"/>
      <point x="233" y="12"/>
      <point x="184" y="12" type="curve" smooth="yes"/>
      <point x="119" y="12"/>
      <point x="84" y="68"/>
      <point x="87" y="155" type="curve"/>
      <point x="64" y="156"/>
      <point x="41" y="152"/>
      <point x="23" y="146" type="curve"/>
      <point x="23" y="32"/>
      <point x="90" y="-40"/>
      <point x="183" y="-40" type="curve" smooth="yes"/>
      <point x="273" y="-40"/>
      <point x="339" y="27"/>
    </contour>
  </outline>
</glyph>
<glyph name="u" format="1">
  <advance width="410"/>
  <unicode hex="0075"/>
  <outline>
    <contour>
      <point x="56" y="470"/>
      <point x="39" y="361"/>
      <point x="39" y="270" type="curve" smooth="yes"/>
      <point x="39" y="130"/>
      <point x="69" y="-10"/>
      <point x="187" y="-10" type="curve" smooth="yes"/>
      <point x="338" y="-10"/>
      <point x="371" y="190"/>
      <point x="371" y="359" type="curve" smooth="yes"/>
      <point x="371" y="404"/>
      <point x="367" y="449"/>
      <point x="361" y="479" type="curve"/>
      <point x="338" y="479"/>
      <point x="304" y="474"/>
      <point x="282" y="464" type="curve"/>
      <point x="286" y="448"/>
      <point x="294" y="385"/>
      <point x="294" y="320" type="curve" smooth="yes"/>
      <point x="294" y="187"/>
      <point x="273" y="46"/>
      <point x="198" y="46" type="curve" smooth="yes"/>
      <point x="139" y="46"/>
      <point x="115" y="162"/>
      <point x="115" y="267" type="curve" smooth="yes"/>
      <point x="115" y="370"/>
      <point x="127" y="451"/>
      <point x="146" y="511" type="curve"/>
      <point x="138" y="515"/>
      <point x="128" y="518"/>
      <point x="115" y="518" type="curve" smooth="yes"/>
      <point x="101" y="518"/>
      <point x="88" y="515"/>
      <point x="79" y="512" type="curve"/>
    </contour>
  </outline>
</glyph>
<glyph name="w" format="1">
  <advance width="660"/>
  <unicode hex="0077"/>
  <outline>
    <contour>
      <point x="346" y="470" type="curve"/>
      <point x="384" y="365"/>
      <point x="422" y="216"/>
      <point x="445" y="37" type="curve"/>
      <point x="428" y="41" type="line"/>
      <point x="507" y="224"/>
      <point x="548" y="378"/>
      <point x="564" y="496" type="curve"/>
      <point x="591" y="493"/>
      <point x="614" y="482"/>
      <point x="634" y="471" type="curve"/>
      <point x="588" y="279"/>
      <point x="549" y="163"/>
      <point x="453" y="-25" type="curve"/>
      <point x="439" y="-29"/>
      <point x="412" y="-34"/>
      <point x="393" y="-35" type="curve"/>
      <point x="367" y="142"/>
      <point x="338" y="264"/>
      <point x="294" y="397" type="curve"/>
      <point x="330" y="398" type="line"/>
      <point x="293" y="255"/>
      <point x="265" y="163"/>
      <point x="201" y="19" type="curve"/>
      <point x="186" y="14"/>
      <point x="159" y="9"/>
      <point x="136" y="8" type="curve"/>
      <point x="67" y="190"/>
      <point x="32" y="345"/>
      <point x="13" y="532" type="curve"/>
      <point x="36" y="541"/>
      <point x="61" y="546"/>
      <point x="89" y="547" type="curve"/>
      <point x="109" y="327"/>
      <point x="140" y="194"/>
      <point x="188" y="56" type="curve"/>
      <point x="159" y="53" type="line"/>
      <point x="222" y="192"/>
      <point x="256" y="313"/>
      <point x="280" y="461" type="curve"/>
      <point x="299" y="466"/>
      <point x="322" y="471"/>
    </contour>
  </outline>
</glyph>
<glyph name="x" format="1">
  <advance width="483"/>
  <unicode hex="0078"/>
  <outline>
    <contour>
      <point x="63" y="507" type="curve"/>
      <point x="187" y="358"/>
      <point x="299" y="176"/>
      <point x="392" y="-27" type="curve"/>
      <point x="411" y="-20"/>
      <point x="434" y="-6"/>
      <point x="450" y="7" type="curve"/>
      <point x="357" y="215"/>
      <point x="267" y="370"/>
      <point x="144" y="553" type="curve"/>
      <point x="115" y="542"/>
      <point x="87" y="525"/>
    </contour>
    <contour>
      <point x="250" y="314" type="curve"/>
      <point x="234" y="302" type="line"/>
      <point x="160" y="207"/>
      <point x="80" y="118"/>
      <point x="-2" y="40" type="curve"/>
      <point x="7" y="24"/>
      <point x="21" y="9"/>
      <point x="37" y="-2" type="curve"/>
      <point x="129" y="86"/>
      <point x="200" y="163"/>
      <point x="269" y="248" type="curve"/>
      <point x="285" y="260" type="line"/>
      <point x="341" y="328"/>
      <point x="396" y="401"/>
      <point x="459" y="489" type="curve"/>
      <point x="442" y="511"/>
      <point x="430" y="529"/>
      <point x="406" y="545" type="curve"/>
      <point x="357" y="465"/>
      <point x="306" y="388"/>
    </contour>
  </outline>
</glyph>
<glyph name="braceleft" format="1">
  <advance width="295"/>
  <unicode hex="007B"/>
  <outline>
    <contour>
      <point x="257" y="-152" type="curve"/>
      <point x="257" y="-134"/>
      <point x="252" y="-115"/>
      <point x="244" y="-100" type="curve"/>
      <point x="228" y="-107"/>
      <point x="217" y="-110"/>
      <point x="197" y="-110" type="curve" smooth="yes"/>
      <point x="158" y="-110"/>
      <point x="133" y="-81"/>
      <point x="133" y="-32" type="curve" smooth="yes"/>
      <point x="133" y="62"/>
      <point x="220" y="116"/>
      <point x="220" y="213" type="curve" smooth="yes"/>
      <point x="220" y="278"/>
      <point x="180" y="327"/>
      <point x="108" y="333" type="curve"/>
      <point x="104" y="321" type="line"/>
      <point x="175" y="330"/>
      <point x="216" y="380"/>
      <point x="216" y="442" type="curve" smooth="yes"/>
      <point x="216" y="539"/>
      <point x="127" y="590"/>
      <point x="127" y="681" type="curve" smooth="yes"/>
      <point x="127" y="729"/>
      <point x="152" y="759"/>
      <point x="191" y="759" type="curve" smooth="yes"/>
      <point x="211" y="759"/>
      <point x="222" y="756"/>
      <point x="237" y="748" type="curve"/>
      <point x="247" y="766"/>
      <point x="251" y="784"/>
      <point x="249" y="800" type="curve"/>
      <point x="231" y="809"/>
      <point x="211" y="814"/>
      <point x="179" y="814" type="curve" smooth="yes"/>
      <point x="106" y="814"/>
      <point x="56" y="760"/>
      <point x="56" y="684" type="curve" smooth="yes"/>
      <point x="56" y="635"/>
      <point x="71" y="600"/>
      <point x="102" y="550" type="curve" smooth="yes"/>
      <point x="133" y="501"/>
      <point x="152" y="474"/>
      <point x="152" y="439" type="curve" smooth="yes"/>
      <point x="152" y="394"/>
      <point x="126" y="366"/>
      <point x="85" y="366" type="curve" smooth="yes"/>
      <point x="70" y="366"/>
      <point x="58" y="367"/>
      <point x="43" y="371" type="curve"/>
      <point x="38" y="349"/>
      <point x="38" y="312"/>
      <point x="45" y="282" type="curve"/>
      <point x="60" y="285"/>
      <point x="74" y="287"/>
      <point x="89" y="287" type="curve" smooth="yes"/>
      <point x="128" y="287"/>
      <point x="157" y="257"/>
      <point x="157" y="215" type="curve" smooth="yes"/>
      <point x="157" y="180"/>
      <point x="138" y="146"/>
      <point x="107" y="97" type="curve" smooth="yes"/>
      <point x="76" y="46"/>
      <point x="63" y="11"/>
      <point x="63" y="-36" type="curve" smooth="yes"/>
      <point x="63" y="-112"/>
      <point x="113" y="-166"/>
      <point x="185" y="-166" type="curve" smooth="yes"/>
      <point x="218" y="-166"/>
      <point x="236" y="-162"/>
    </contour>
  </outline>
</glyph>
<glyph name="bar" format="1">
  <advance width="265"/>
  <unicode hex="007C"/>
  <outline>
    <contour>
      <point x="93" y="433"/>
      <point x="98" y="100"/>
      <point x="114" y="-170" type="curve"/>
      <point x="130" y="-171"/>
      <point x="158" y="-167"/>
      <point x="171" y="-163" type="curve"/>
      <point x="162" y="39"/>
      <point x="156" y="473"/>
      <point x="170" y="725" type="curve"/>
      <point x="143" y="728"/>
      <point x="114" y="723"/>
      <point x="94" y="713" type="curve"/>
    </contour>
  </outline>
</glyph>
<glyph name="braceright" format="1">
  <advance width="313"/>
  <unicode hex="007D"/>
  <outline>
    <contour>
      <point x="193" y="316" type="curve"/>
      <point x="197" y="327" type="line"/>
      <point x="126" y="320"/>
      <point x="84" y="271"/>
      <point x="83" y="207" type="curve" smooth="yes"/>
      <point x="81" y="111"/>
      <point x="167" y="61"/>
      <point x="165" y="-32" type="curve" smooth="yes"/>
      <point x="165" y="-79"/>
      <point x="140" y="-109"/>
      <point x="101" y="-108" type="curve" smooth="yes"/>
      <point x="82" y="-108"/>
      <point x="70" y="-104"/>
      <point x="55" y="-97" type="curve"/>
      <point x="46" y="-113"/>
      <point x="42" y="-131"/>
      <point x="44" y="-150" type="curve"/>
      <point x="61" y="-158"/>
      <point x="78" y="-161"/>
      <point x="107" y="-162" type="curve" smooth="yes"/>
      <point x="180" y="-164"/>
      <point x="234" y="-110"/>
      <point x="235" y="-35" type="curve" smooth="yes"/>
      <point x="236" y="12"/>
      <point x="224" y="47"/>
      <point x="193" y="98" type="curve" smooth="yes"/>
      <point x="163" y="149"/>
      <point x="146" y="175"/>
      <point x="147" y="211" type="curve" smooth="yes"/>
      <point x="148" y="255"/>
      <point x="174" y="283"/>
      <point x="214" y="282" type="curve" smooth="yes"/>
      <point x="229" y="282"/>
      <point x="239" y="280"/>
      <point x="254" y="276" type="curve"/>
      <point x="260" y="297"/>
      <point x="261" y="335"/>
      <point x="255" y="365" type="curve"/>
      <point x="240" y="362"/>
      <point x="227" y="362"/>
      <point x="212" y="362" type="curve" smooth="yes"/>
      <point x="174" y="362"/>
      <point x="147" y="392"/>
      <point x="147" y="434" type="curve" smooth="yes"/>
      <point x="147" y="470"/>
      <point x="168" y="506"/>
      <point x="199" y="555" type="curve" smooth="yes"/>
      <point x="233" y="607"/>
      <point x="247" y="640"/>
      <point x="248" y="688" type="curve" smooth="yes"/>
      <point x="249" y="762"/>
      <point x="201" y="816"/>
      <point x="126" y="818" type="curve" smooth="yes"/>
      <point x="95" y="819"/>
      <point x="78" y="815"/>
      <point x="61" y="807" type="curve"/>
      <point x="60" y="789"/>
      <point x="62" y="770"/>
      <point x="70" y="754" type="curve"/>
      <point x="85" y="762"/>
      <point x="96" y="764"/>
      <point x="115" y="764" type="curve" smooth="yes"/>
      <point x="153" y="763"/>
      <point x="178" y="733"/>
      <point x="177" y="685" type="curve" smooth="yes"/>
      <point x="175" y="589"/>
      <point x="85" y="537"/>
      <point x="84" y="440" type="curve" smooth="yes"/>
      <point x="82" y="372"/>
      <point x="121" y="324"/>
    </contour>
  </outline>
</glyph>
<glyph name="sterling" format="1">
  <advance width="429"/>
  <unicode hex="00A3"/>
  <outline>
    <contour>
      <point x="369" y="285" type="curve" smooth="yes"/>
      <point x="369" y="292"/>
      <point x="369" y="300"/>
      <point x="368" y="308" type="curve"/>
      <point x="253" y="289"/>
      <point x="111" y="281"/>
      <point x="25" y="290" type="curve"/>
      <point x="20" y="275"/>
      <point x="23" y="256"/>
      <point x="25" y="238" type="curve"/>
      <point x="107" y="233"/>
      <point x="251" y="238"/>
      <point x="364" y="255" type="curve"/>
      <point x="367" y="264"/>
      <point x="368" y="275"/>
    </contour>
    <contour>
      <point x="222" y="173" type="curve" smooth="yes"/>
      <point x="222" y="287"/>
      <point x="116" y="325"/>
      <point x="116" y="473" type="curve" smooth="yes"/>
      <point x="116" y="562"/>
      <point x="157" y="618"/>
      <point x="224" y="618" type="curve" smooth="yes"/>
      <point x="290" y="618"/>
      <point x="328" y="566"/>
      <point x="322" y="437" type="curve"/>
      <point x="346" y="431"/>
      <point x="371" y="429"/>
      <point x="395" y="434" type="curve"/>
      <point x="397" y="589"/>
      <point x="338" y="673"/>
      <point x="225" y="673" type="curve" smooth="yes"/>
      <point x="111" y="673"/>
      <point x="38" y="583"/>
      <point x="38" y="474" type="curve" smooth="yes"/>
      <point x="38" y="373"/>
      <point x="96" y="303"/>
      <point x="129" y="260" type="curve" smooth="yes"/>
      <point x="154" y="224"/>
      <point x="165" y="201"/>
      <point x="165" y="161" type="curve" smooth="yes"/>
      <point x="165" y="112"/>
      <point x="142" y="73"/>
      <point x="76" y="38" type="curve"/>
      <point x="114" y="18" type="line"/>
      <point x="175" y="56"/>
      <point x="222" y="101"/>
    </contour>
    <contour>
      <point x="39" y="-11" type="curve"/>
      <point x="70" y="2"/>
      <point x="94" y="9"/>
      <point x="121" y="9" type="curve" smooth="yes"/>
      <point x="189" y="9"/>
      <point x="265" y="-19"/>
      <point x="418" y="-1" type="curve"/>
      <point x="422" y="27"/>
      <point x="418" y="48"/>
      <point x="408" y="71" type="curve"/>
      <point x="354" y="57"/>
      <point x="300" y="50"/>
      <point x="251" y="50" type="curve" smooth="yes"/>
      <point x="188" y="50"/>
      <point x="160" y="60"/>
      <point x="119" y="60" type="curve" smooth="yes"/>
      <point x="93" y="60"/>
      <point x="58" y="53"/>
      <point x="23" y="35" type="curve"/>
      <point x="24" y="19"/>
      <point x="28" y="4"/>
    </contour>
  </outline>
</glyph>
<glyph name="currency" format="1">
  <advance width="565"/>
  <unicode hex="00A4"/>
  <outline>
    <contour>
      <point x="302" y="591" type="curve" smooth="yes"/>
      <point x="189" y="591"/>
      <point x="103" y="500"/>
      <point x="103" y="339" type="curve" smooth="yes"/>
      <point x="103" y="218"/>
      <point x="164" y="121"/>
      <point x="269" y="121" type="curve" smooth="yes"/>
      <point x="393" y="121"/>
      <point x="461" y="244"/>
      <point x="461" y="401" type="curve" smooth="yes"/>
      <point x="461" y="522"/>
      <point x="393" y="591"/>
    </contour>
    <contour>
      <point x="292" y="542" type="curve" smooth="yes"/>
      <point x="358" y="542"/>
      <point x="392" y="481"/>
      <point x="392" y="372" type="curve" smooth="yes"/>
      <point x="392" y="266"/>
      <point x="345" y="170"/>
      <point x="279" y="170" type="curve" smooth="yes"/>
      <point x="217" y="170"/>
      <point x="172" y="247"/>
      <point x="172" y="350" type="curve" smooth="yes"/>
      <point x="172" y="463"/>
      <point x="219" y="542"/>
    </contour>
    <contour>
      <point x="423" y="474" type="line"/>
      <point x="464" y="532"/>
      <point x="501" y="574"/>
      <point x="547" y="615" type="curve"/>
      <point x="531" y="634"/>
      <point x="515" y="647"/>
      <point x="500" y="652" type="curve"/>
      <point x="463" y="618"/>
      <point x="427" y="573"/>
      <point x="394" y="524" type="curve"/>
    </contour>
    <contour>
      <point x="172" y="192" type="curve"/>
      <point x="139" y="242" type="line"/>
      <point x="99" y="184"/>
      <point x="59" y="142"/>
      <point x="13" y="101" type="curve"/>
      <point x="29" y="82"/>
      <point x="48" y="70"/>
      <point x="63" y="64" type="curve"/>
      <point x="101" y="99"/>
      <point x="139" y="144"/>
    </contour>
    <contour>
      <point x="495" y="88" type="curve"/>
      <point x="515" y="101"/>
      <point x="530" y="115"/>
      <point x="538" y="130" type="curve"/>
      <point x="507" y="171"/>
      <point x="467" y="212"/>
      <point x="423" y="251" type="curve"/>
      <point x="387" y="212" type="line"/>
      <point x="439" y="165"/>
      <point x="459" y="138"/>
    </contour>
    <contour>
      <point x="207" y="529" type="line"/>
      <point x="154" y="576"/>
      <point x="128" y="610"/>
      <point x="93" y="661" type="curve"/>
      <point x="73" y="647"/>
      <point x="59" y="629"/>
      <point x="52" y="614" type="curve"/>
      <point x="81" y="573"/>
      <point x="121" y="529"/>
      <point x="165" y="492" type="curve"/>
    </contour>
  </outline>
</glyph>
<glyph name="copyright" format="1">
  <advance width="747"/>
  <unicode hex="00A9"/>
  <outline>
    <contour>
      <point x="500" y="275" type="curve"/>
      <point x="488" y="282"/>
      <point x="468" y="285"/>
      <point x="448" y="284" type="curve"/>
      <point x="452" y="225"/>
      <point x="428" y="187"/>
      <point x="383" y="187" type="curve" smooth="yes"/>
      <point x="335" y="187"/>
      <point x="309" y="236"/>
      <point x="309" y="325" type="curve" smooth="yes"/>
      <point x="309" y="429"/>
      <point x="350" y="493"/>
      <point x="391" y="493" type="curve"/>
      <point x="426" y="493"/>
      <point x="443" y="467"/>
      <point x="440" y="402" type="curve"/>
      <point x="469" y="402"/>
      <point x="485" y="405"/>
      <point x="502" y="415" type="curve"/>
      <point x="501" y="494"/>
      <point x="468" y="536"/>
      <point x="403" y="536" type="curve"/>
      <point x="304" y="536"/>
      <point x="238" y="438"/>
      <point x="238" y="310" type="curve" smooth="yes"/>
      <point x="238" y="198"/>
      <point x="291" y="143"/>
      <point x="369" y="143" type="curve" smooth="yes"/>
      <point x="451" y="143"/>
      <point x="495" y="192"/>
    </contour>
    <contour>
      <point x="639" y="343" type="curve" smooth="yes"/>
      <point x="639" y="147"/>
      <point x="545" y="31"/>
      <point x="374" y="31" type="curve" smooth="yes"/>
      <point x="209" y="31"/>
      <point x="108" y="146"/>
      <point x="108" y="329" type="curve" smooth="yes"/>
      <point x="108" y="509"/>
      <point x="233" y="646"/>
      <point x="388" y="646" type="curve" smooth="yes"/>
      <point x="554" y="646"/>
      <point x="639" y="522"/>
    </contour>
    <contour>
      <point x="705" y="341" type="curve" smooth="yes"/>
      <point x="705" y="537"/>
      <point x="613" y="699"/>
      <point x="400" y="699" type="curve" smooth="yes"/>
      <point x="188" y="699"/>
      <point x="42" y="550"/>
      <point x="42" y="318" type="curve" smooth="yes"/>
      <point x="42" y="109"/>
      <point x="176" y="-21"/>
      <point x="366" y="-21" type="curve" smooth="yes"/>
      <point x="577" y="-21"/>
      <point x="705" y="116"/>
    </contour>
  </outline>
</glyph>
<glyph name="ordfeminine" format="1">
  <advance width="255"/>
  <unicode hex="00AA"/>
  <outline>
    <contour>
      <point x="196" y="422" type="curve"/>
      <point x="180" y="422"/>
      <point x="161" y="425"/>
      <point x="144" y="429" type="curve"/>
      <point x="161" y="511"/>
      <point x="166" y="548"/>
      <point x="166" y="611" type="curve" smooth="yes"/>
      <point x="166" y="670"/>
      <point x="156" y="698"/>
      <point x="127" y="698" type="curve" smooth="yes"/>
      <point x="100" y="698"/>
      <point x="78" y="669"/>
      <point x="77" y="626" type="curve"/>
      <point x="49" y="628"/>
      <point x="31" y="637"/>
      <point x="22" y="653" type="curve"/>
      <point x="33" y="698"/>
      <point x="75" y="736"/>
      <point x="133" y="736" type="curve" smooth="yes"/>
      <point x="211" y="736"/>
      <point x="230" y="682"/>
      <point x="230" y="628" type="curve" smooth="yes"/>
      <point x="230" y="575"/>
      <point x="212" y="481"/>
    </contour>
    <contour>
      <point x="173" y="562" type="line"/>
      <point x="93" y="567"/>
      <point x="71" y="544"/>
      <point x="71" y="517" type="curve" smooth="yes"/>
      <point x="71" y="493"/>
      <point x="87" y="479"/>
      <point x="112" y="479" type="curve" smooth="yes"/>
      <point x="134" y="479"/>
      <point x="153" y="488"/>
      <point x="169" y="503" type="curve"/>
      <point x="165" y="471" type="line"/>
      <point x="150" y="455"/>
      <point x="125" y="445"/>
      <point x="95" y="445" type="curve" smooth="yes"/>
      <point x="42" y="445"/>
      <point x="6" y="474"/>
      <point x="6" y="520" type="curve" smooth="yes"/>
      <point x="6" y="565"/>
      <point x="43" y="593"/>
      <point x="127" y="593" type="curve" smooth="yes"/>
      <point x="151" y="593"/>
      <point x="161" y="593"/>
      <point x="174" y="591" type="curve"/>
    </contour>
  </outline>
</glyph>
<glyph name="macron" format="1">
  <advance width="260"/>
  <unicode hex="00AF"/>
  <outline>
    <contour>
      <point x="31" y="685"/>
      <point x="30" y="660"/>
      <point x="31" y="645" type="curve"/>
      <point x="69" y="632"/>
      <point x="134" y="626"/>
      <point x="226" y="637" type="curve"/>
      <point x="228" y="656"/>
      <point x="229" y="674"/>
      <point x="227" y="695" type="curve"/>
      <point x="165" y="687"/>
      <point x="99" y="689"/>
      <point x="34" y="701" type="curve"/>
    </contour>
    <contour>
      <point x="127" y="560" type="move" name="_top"/>
    </contour>
  </outline>
</glyph>
<glyph name="acute" format="1">
  <advance width="260"/>
  <unicode hex="00B4"/>
  <outline>
    <contour>
      <point x="118" y="571" type="curve"/>
      <point x="154" y="630"/>
      <point x="175" y="686"/>
      <point x="182" y="744" type="curve"/>
      <point x="160" y="750"/>
      <point x="128" y="751"/>
      <point x="106" y="748" type="curve"/>
      <point x="101" y="694"/>
      <point x="88" y="640"/>
      <point x="66" y="579" type="curve"/>
      <point x="84" y="574"/>
      <point x="99" y="571"/>
    </contour>
    <contour>
      <point x="88" y="560" type="move" name="_top"/>
    </contour>
  </outline>
</glyph>
<glyph name="onesuperior" format="1">
  <advance width="240"/>
  <unicode hex="00B9"/>
  <outline>
    <contour>
      <point x="237" y="710" type="curve"/>
      <point x="231" y="711"/>
      <point x="210" y="712"/>
      <point x="204" y="712" type="curve"/>
      <point x="190" y="712"/>
      <point x="172" y="710"/>
      <point x="166" y="707" type="curve"/>
      <point x="139" y="620"/>
      <point x="118" y="494"/>
      <point x="110" y="393" type="curve" smooth="yes"/>
      <point x="104" y="345"/>
      <point x="101" y="315"/>
      <point x="99" y="273" type="curve"/>
      <point x="107" y="271"/>
      <point x="114" y="271"/>
      <point x="124" y="272" type="curve" smooth="yes"/>
      <point x="138" y="272"/>
      <point x="148" y="275"/>
      <point x="156" y="277" type="curve"/>
      <point x="169" y="432"/>
      <point x="202" y="624"/>
    </contour>
    <contour>
      <point x="197" y="735" type="curve"/>
      <point x="137" y="684"/>
      <point x="70" y="642"/>
      <point x="5" y="610" type="curve"/>
      <point x="14" y="589"/>
      <point x="25" y="577"/>
      <point x="41" y="563" type="curve"/>
      <point x="126" y="614"/>
      <point x="185" y="658"/>
      <point x="237" y="710" type="curve"/>
      <point x="226" y="721"/>
      <point x="214" y="728"/>
    </contour>
  </outline>
</glyph>
<glyph name="AE" format="1">
  <advance width="820"/>
  <unicode hex="00C6"/>
  <outline>
    <contour>
      <point x="375" y="688" type="curve"/>
      <point x="352" y="693"/>
      <point x="330" y="698"/>
      <point x="304" y="699" type="curve"/>
      <point x="233" y="428"/>
      <point x="164" y="245"/>
      <point x="21" y="12" type="curve"/>
      <point x="36" y="-4"/>
      <point x="56" y="-18"/>
      <point x="89" y="-26" type="curve"/>
      <point x="221" y="205"/>
      <point x="301" y="401"/>
    </contour>
    <contour>
      <point x="780" y="-16" type="curve"/>
      <point x="781" y="0"/>
      <point x="780" y="30"/>
      <point x="775" y="48" type="curve"/>
      <point x="684" y="29"/>
      <point x="593" y="20"/>
      <point x="491" y="16" type="curve"/>
      <point x="473" y="136"/>
      <point x="461" y="249"/>
      <point x="455" y="334" type="curve" smooth="yes"/>
      <point x="443" y="475"/>
      <point x="442" y="582"/>
      <point x="445" y="681" type="curve"/>
      <point x="360" y="687" type="line"/>
      <point x="363" y="500"/>
      <point x="388" y="219"/>
      <point x="426" y="-44" type="curve"/>
      <point x="537" y="-42"/>
      <point x="655" y="-34"/>
    </contour>
    <contour>
      <point x="711" y="352" type="curve"/>
      <point x="712" y="376"/>
      <point x="709" y="396"/>
      <point x="705" y="415" type="curve"/>
      <point x="601" y="406"/>
      <point x="524" y="392"/>
      <point x="430" y="375" type="curve"/>
      <point x="434" y="318" type="line"/>
      <point x="528" y="335"/>
      <point x="592" y="344"/>
    </contour>
    <contour>
      <point x="751" y="666" type="curve"/>
      <point x="755" y="686"/>
      <point x="757" y="707"/>
      <point x="756" y="731" type="curve"/>
      <point x="596" y="728"/>
      <point x="492" y="711"/>
      <point x="360" y="687" type="curve"/>
      <point x="381" y="630" type="line"/>
      <point x="495" y="652"/>
      <point x="612" y="666"/>
    </contour>
    <contour>
      <point x="425" y="257" type="line"/>
      <point x="339" y="255"/>
      <point x="252" y="246"/>
      <point x="176" y="232" type="curve"/>
      <point x="179" y="176" type="line"/>
      <point x="252" y="190"/>
      <point x="342" y="198"/>
      <point x="435" y="198" type="curve"/>
    </contour>
  </outline>
</glyph>
<glyph name="Uogonek" format="1">
  <advance width="547"/>
  <unicode hex="0172"/>
  <outline>
    <contour>
      <point x="334" y="-60" type="curve" smooth="yes"/>
      <point x="283" y="-88"/>
      <point x="255" y="-132"/>
      <point x="255" y="-172" type="curve" smooth="yes"/>
      <point x="255" y="-202"/>
      <point x="270" y="-219"/>
      <point x="290" y="-219" type="curve" smooth="yes"/>
      <point x="313" y="-219"/>
      <point x="331" y="-206"/>
      <point x="349" y="-175" type="curve"/>
      <point x="360" y="-185"/>
      <point x="367" y="-197"/>
      <point x="374" y="-214" type="curve"/>
      <point x="350" y="-250"/>
      <point x="317" y="-268"/>
      <point x="275" y="-268" type="curve" smooth="yes"/>
      <point x="227" y="-268"/>
      <point x="192" y="-240"/>
      <point x="192" y="-190" type="curve" smooth="yes"/>
      <point x="192" y="-141"/>
      <point x="217" y="-104"/>
      <point x="276" y="-60" type="curve"/>
      <point x="291" y="-74" type="line" smooth="yes"/>
      <point x="302" y="-83"/>
      <point x="258" y="-80"/>
      <point x="240" y="-80" type="curve" smooth="yes"/>
      <point x="125" y="-80"/>
      <point x="54" y="16"/>
      <point x="54" y="272" type="curve" smooth="yes"/>
      <point x="54" y="410"/>
      <point x="81" y="558"/>
      <point x="105" y="628" type="curve"/>
      <point x="117" y="632"/>
      <point x="138" y="634"/>
      <point x="150" y="634" type="curve" smooth="yes"/>
      <point x="165" y="634"/>
      <point x="175" y="632"/>
      <point x="182" y="630" type="curve"/>
      <point x="156" y="520"/>
      <point x="138" y="403"/>
      <point x="138" y="294" type="curve" smooth="yes"/>
      <point x="138" y="59"/>
      <point x="177" y="-18"/>
      <point x="254" y="-18" type="curve" smooth="yes"/>
      <point x="356" y="-18"/>
      <point x="406" y="119"/>
      <point x="406" y="321" type="curve" smooth="yes"/>
      <point x="406" y="463"/>
      <point x="389" y="571"/>
      <point x="358" y="691" type="curve"/>
      <point x="383" y="699"/>
      <point x="412" y="704"/>
      <point x="443" y="706" type="curve"/>
      <point x="467" y="609"/>
      <point x="489" y="495"/>
      <point x="489" y="370" type="curve" smooth="yes"/>
      <point x="489" y="107"/>
      <point x="432" y="-9"/>
    </contour>
  </outline>
</glyph>
<glyph name="uogonek" format="1">
  <advance width="410"/>
  <unicode hex="0173"/>
  <outline>
    <contour>
      <point x="267" y="14" type="curve" smooth="yes"/>
      <point x="346" y="67"/>
      <point x="371" y="208"/>
      <point x="371" y="359" type="curve" smooth="yes"/>
      <point x="371" y="404"/>
      <point x="367" y="449"/>
      <point x="361" y="479" type="curve"/>
      <point x="338" y="479"/>
      <point x="304" y="474"/>
      <point x="282" y="464" type="curve"/>
      <point x="286" y="448"/>
      <point x="294" y="385"/>
      <point x="294" y="320" type="curve" smooth="yes"/>
      <point x="294" y="187"/>
      <point x="273" y="46"/>
      <point x="198" y="46" type="curve" smooth="yes"/>
      <point x="139" y="46"/>
      <point x="115" y="162"/>
      <point x="115" y="267" type="curve" smooth="yes"/>
      <point x="115" y="370"/>
      <point x="127" y="451"/>
      <point x="146" y="511" type="curve"/>
      <point x="138" y="515"/>
      <point x="128" y="518"/>
      <point x="115" y="518" type="curve" smooth="yes"/>
      <point x="101" y="518"/>
      <point x="88" y="515"/>
      <point x="79" y="512" type="curve"/>
      <point x="56" y="470"/>
      <point x="39" y="361"/>
      <point x="39" y="270" type="curve" smooth="yes"/>
      <point x="39" y="130"/>
      <point x="69" y="-10"/>
      <point x="187" y="-10" type="curve" smooth="yes"/>
      <point x="205" y="-10"/>
      <point x="220" y="-6"/>
      <point x="233" y="-1" type="curve"/>
      <point x="215" y="12" type="line"/>
      <point x="150" y="-35"/>
      <point x="125" y="-79"/>
      <point x="125" y="-120" type="curve" smooth="yes"/>
      <point x="125" y="-171"/>
      <point x="160" y="-195"/>
      <point x="208" y="-195" type="curve" smooth="yes"/>
      <point x="249" y="-195"/>
      <point x="283" y="-177"/>
      <point x="307" y="-140" type="curve"/>
      <point x="300" y="-123"/>
      <point x="293" y="-111"/>
      <point x="281" y="-101" type="curve"/>
      <point x="264" y="-133"/>
      <point x="246" y="-145"/>
      <point x="223" y="-145" type="curve" smooth="yes"/>
      <point x="202" y="-145"/>
      <point x="188" y="-128"/>
      <point x="188" y="-106" type="curve" smooth="yes"/>
      <point x="188" y="-69"/>
      <point x="213" y="-23"/>
    </contour>
  </outline>
</glyph>
<glyph name="circumflex" format="1">
  <advance width="260"/>
  <unicode hex="02C6"/>
  <outline>
    <contour>
      <point x="257" y="610" type="curve"/>
      <point x="246" y="599"/>
      <point x="235" y="589"/>
      <point x="216" y="581" type="curve"/>
      <point x="159" y="623"/>
      <point x="137" y="650"/>
      <point x="105" y="702" type="curve"/>
      <point x="150" y="705" type="line"/>
      <point x="124" y="655"/>
      <point x="98" y="623"/>
      <point x="40" y="580" type="curve"/>
      <point x="21" y="589"/>
      <point x="9" y="600"/>
      <point x="0" y="609" type="curve"/>
      <point x="54" y="658"/>
      <point x="77" y="688"/>
      <point x="99" y="737" type="curve"/>
      <point x="107" y="739"/>
      <point x="119" y="740"/>
      <point x="128" y="740" type="curve" smooth="yes"/>
      <point x="136" y="740"/>
      <point x="148" y="739"/>
      <point x="157" y="738" type="curve"/>
      <point x="179" y="686"/>
      <point x="208" y="655"/>
    </contour>
    <contour>
      <point x="131" y="560" type="move" name="_top"/>
    </contour>
  </outline>
</glyph>
<glyph name="ogonek" format="1">
  <advance width="261"/>
  <unicode hex="02DB"/>
  <outline>
    <contour>
      <point x="160" y="-1" type="curve"/>
      <point x="130" y="8" type="line"/>
      <point x="65" y="-35"/>
      <point x="30" y="-80"/>
      <point x="30" y="-132" type="curve" smooth="yes"/>
      <point x="30" y="-177"/>
      <point x="62" y="-207"/>
      <point x="112" y="-207" type="curve" smooth="yes"/>
      <point x="158" y="-207"/>
      <point x="188" y="-185"/>
      <point x="212" y="-149" type="curve"/>
      <point x="205" y="-131"/>
      <point x="198" y="-119"/>
      <point x="187" y="-110" type="curve"/>
      <point x="169" y="-141"/>
      <point x="151" y="-154"/>
      <point x="128" y="-154" type="curve" smooth="yes"/>
      <point x="105" y="-154"/>
      <point x="93" y="-139"/>
      <point x="93" y="-116" type="curve" smooth="yes"/>
      <point x="93" y="-80"/>
      <point x="111" y="-45"/>
    </contour>
    <contour>
      <point x="144" y="0" type="move" name="_bottom"/>
    </contour>
  </outline>
</glyph>
<glyph name="tilde" format="1">
  <advance width="260"/>
  <unicode hex="02DC"/>
  <outline>
    <contour>
      <point x="172" y="693" type="curve" smooth="yes"/>
      <point x="143" y="693"/>
      <point x="119" y="726"/>
      <point x="78" y="726" type="curve" smooth="yes"/>
      <point x="34" y="726"/>
      <point x="13" y="694"/>
      <point x="17" y="643" type="curve"/>
      <point x="30" y="638"/>
      <point x="48" y="635"/>
      <point x="63" y="636" type="curve"/>
      <point x="61" y="662"/>
      <point x="70" y="672"/>
      <point x="86" y="672" type="curve" smooth="yes"/>
      <point x="113" y="672"/>
      <point x="135" y="638"/>
      <point x="180" y="638" type="curve" smooth="yes"/>
      <point x="223" y="638"/>
      <point x="246" y="665"/>
      <point x="242" y="722" type="curve"/>
      <point x="227" y="729"/>
      <point x="214" y="732"/>
      <point x="196" y="731" type="curve"/>
      <point x="198" y="700"/>
      <point x="189" y="693"/>
    </contour>
    <contour>
      <point x="130" y="560" type="move" name="_top"/>
    </contour>
  </outline>
</glyph>
<glyph name="pi" format="1">
  <advance width="605"/>
  <unicode hex="03C0"/>
  <outline>
    <contour>
      <point x="574" y="446" type="curve"/>
      <point x="580" y="475"/>
      <point x="580" y="505"/>
      <point x="573" y="528" type="curve"/>
      <point x="419" y="531"/>
      <point x="153" y="528"/>
      <point x="24" y="522" type="curve"/>
      <point x="20" y="502"/>
      <point x="19" y="475"/>
      <point x="28" y="439" type="curve"/>
      <point x="115" y="449"/>
      <point x="204" y="457"/>
      <point x="283" y="457" type="curve" smooth="yes"/>
      <point x="372" y="457"/>
      <point x="492" y="452"/>
    </contour>
    <contour>
      <point x="477" y="10" type="curve" smooth="yes"/>
      <point x="546" y="10"/>
      <point x="573" y="75"/>
      <point x="576" y="158" type="curve"/>
      <point x="559" y="168"/>
      <point x="537" y="175"/>
      <point x="518" y="176" type="curve"/>
      <point x="516" y="97"/>
      <point x="508" y="65"/>
      <point x="483" y="65" type="curve" smooth="yes"/>
      <point x="441" y="65"/>
      <point x="427" y="164"/>
      <point x="427" y="278" type="curve" smooth="yes"/>
      <point x="427" y="344"/>
      <point x="437" y="412"/>
      <point x="448" y="480" type="curve"/>
      <point x="372" y="486" type="line"/>
      <point x="363" y="419"/>
      <point x="354" y="355"/>
      <point x="354" y="290" type="curve" smooth="yes"/>
      <point x="354" y="126"/>
      <point x="391" y="10"/>
    </contour>
    <contour>
      <point x="201" y="506" type="curve"/>
      <point x="134" y="501" type="line"/>
      <point x="144" y="439"/>
      <point x="152" y="395"/>
      <point x="150" y="303" type="curve" smooth="yes"/>
      <point x="148" y="198"/>
      <point x="136" y="132"/>
      <point x="101" y="17" type="curve"/>
      <point x="121" y="9"/>
      <point x="155" y="5"/>
      <point x="176" y="7" type="curve"/>
      <point x="210" y="133"/>
      <point x="221" y="210"/>
      <point x="220" y="324" type="curve" smooth="yes"/>
      <point x="219" y="379"/>
      <point x="212" y="454"/>
    </contour>
  </outline>
</glyph>
<glyph name="bn_bisarga" format="1">
  <advance width="433"/>
  <unicode hex="0983"/>
  <outline>
    <contour>
      <point x="298" y="328"/>
      <point x="366" y="395"/>
      <point x="367" y="476" type="curve" smooth="yes"/>
      <point x="367" y="552"/>
      <point x="309" y="606"/>
      <point x="230" y="606" type="curve" smooth="yes"/>
      <point x="146" y="606"/>
      <point x="80" y="540"/>
      <point x="80" y="458" type="curve" smooth="yes"/>
      <point x="80" y="382"/>
      <point x="138" y="328"/>
      <point x="214" y="328" type="curve" smooth="yes"/>
    </contour>
    <contour>
      <point x="297" y="0"/>
      <point x="360" y="62"/>
      <point x="360" y="140" type="curve" smooth="yes"/>
      <point x="360" y="214"/>
      <point x="303" y="270"/>
      <point x="227" y="270" type="curve" smooth="yes"/>
      <point x="147" y="270"/>
      <point x="85" y="207"/>
      <point x="85" y="128" type="curve" smooth="yes"/>
      <point x="85" y="54"/>
      <point x="142" y="0"/>
      <point x="216" y="0" type="curve" smooth="yes"/>
    </contour>
    <contour>
      <point x="178" y="53"/>
      <point x="138" y="91"/>
      <point x="138" y="144" type="curve" smooth="yes"/>
      <point x="138" y="188"/>
      <point x="167" y="216"/>
      <point x="213" y="216" type="curve" smooth="yes"/>
      <point x="269" y="216"/>
      <point x="307" y="177"/>
      <point x="307" y="124" type="curve" smooth="yes"/>
      <point x="307" y="79"/>
      <point x="278" y="53"/>
      <point x="233" y="53" type="curve" smooth="yes"/>
    </contour>
    <contour>
      <point x="176" y="380"/>
      <point x="135" y="418"/>
      <point x="135" y="476" type="curve" smooth="yes"/>
      <point x="135" y="524"/>
      <point x="164" y="554"/>
      <point x="213" y="554" type="curve" smooth="yes"/>
      <point x="270" y="554"/>
      <point x="312" y="518"/>
      <point x="312" y="461" type="curve" smooth="yes"/>
      <point x="312" y="412"/>
      <point x="280" y="380"/>
      <point x="231" y="380" type="curve" smooth="yes"/>
    </contour>
  </outline>
</glyph>
<glyph name="bn_a" format="1">
  <advance width="632"/>
  <unicode hex="0985"/>
  <note>
    uni0985
  </note>
  <outline>
    <contour>
      <point x="384" y="88"/>
      <point x="434" y="170"/>
      <point x="434" y="274" type="curve" smooth="yes"/>
      <point x="434" y="385"/>
      <point x="379" y="498"/>
      <point x="288" y="498" type="curve" smooth="yes"/>
      <point x="232" y="498"/>
      <point x="196" y="446"/>
      <point x="196" y="381" type="curve" smooth="yes"/>
      <point x="196" y="357"/>
      <point x="201" y="334"/>
      <point x="210" y="317" type="curve"/>
      <point x="223" y="311"/>
      <point x="250" y="306"/>
      <point x="273" y="306" type="curve"/>
      <point x="260" y="326"/>
      <point x="254" y="353"/>
      <point x="254" y="375" type="curve" smooth="yes"/>
      <point x="254" y="420"/>
      <point x="269" y="447"/>
      <point x="300" y="447" type="curve" smooth="yes"/>
      <point x="349" y="447"/>
      <point x="380" y="383"/>
      <point x="380" y="293" type="curve" smooth="yes"/>
      <point x="380" y="211"/>
      <point x="352" y="158"/>
      <point x="289" y="158" type="curve" smooth="yes"/>
      <point x="189" y="158"/>
      <point x="115" y="295"/>
      <point x="61" y="462" type="curve"/>
      <point x="44" y="455"/>
      <point x="28" y="444"/>
      <point x="15" y="433" type="curve"/>
      <point x="69" y="261"/>
      <point x="155" y="88"/>
      <point x="292" y="88" type="curve" smooth="yes"/>
    </contour>
    <contour>
      <point x="475" y="14" type="line"/>
      <point x="451" y="72"/>
      <point x="417" y="126"/>
      <point x="377" y="171" type="curve"/>
      <point x="329" y="135" type="line"/>
      <point x="374" y="99"/>
      <point x="411" y="53"/>
      <point x="444" y="-7" type="curve"/>
    </contour>
    <contour>
      <point x="545" y="71"/>
      <point x="569" y="267"/>
      <point x="569" y="422" type="curve" smooth="yes"/>
      <point x="569" y="473"/>
      <point x="568" y="520"/>
      <point x="564" y="563" type="curve"/>
      <point x="497" y="565" type="line"/>
      <point x="501" y="515"/>
      <point x="503" y="471"/>
      <point x="503" y="410" type="curve" smooth="yes"/>
      <point x="503" y="250"/>
      <point x="491" y="118"/>
      <point x="459" y="21" type="curve"/>
      <point x="444" y="-7" type="line"/>
      <point x="458" y="-15"/>
      <point x="481" y="-21"/>
      <point x="501" y="-21" type="curve"/>
    </contour>
    <contour>
      <point x="86" y="547"/>
      <point x="191" y="562"/>
      <point x="317" y="562" type="curve" smooth="yes"/>
      <point x="437" y="562"/>
      <point x="549" y="547"/>
      <point x="632" y="530" type="curve"/>
      <point x="634" y="538"/>
      <point x="637" y="550"/>
      <point x="637" y="564" type="curve" smooth="yes"/>
      <point x="637" y="574"/>
      <point x="635" y="582"/>
      <point x="632" y="589" type="curve"/>
      <point x="558" y="608"/>
      <point x="442" y="624"/>
      <point x="320" y="624" type="curve" smooth="yes"/>
      <point x="192" y="624"/>
      <point x="84" y="608"/>
      <point x="0" y="589" type="curve"/>
      <point x="-3" y="583"/>
      <point x="-5" y="574"/>
      <point x="-5" y="564" type="curve" smooth="yes"/>
      <point x="-5" y="550"/>
      <point x="-3" y="538"/>
      <point x="0" y="530" type="curve"/>
    </contour>
    <contour>
      <point x="326" y="690" type="move" name="chandrabindu"/>
    </contour>
  </outline>
</glyph>
<glyph name="bn_i" format="1">
  <advance width="454"/>
  <unicode hex="0987"/>
  <outline>
    <contour>
      <point x="454" y="589" type="line"/>
      <point x="440" y="682"/>
      <point x="393" y="760"/>
      <point x="307" y="760" type="curve" smooth="yes"/>
      <point x="244" y="760"/>
      <point x="178" y="733"/>
      <point x="130" y="733" type="curve" smooth="yes"/>
      <point x="76" y="733"/>
      <point x="45" y="772"/>
      <point x="19" y="815" type="curve"/>
      <point x="6" y="808"/>
      <point x="-12" y="794"/>
      <point x="-24" y="777" type="curve"/>
      <point x="9" y="718"/>
      <point x="53" y="675"/>
      <point x="126" y="675" type="curve" smooth="yes"/>
      <point x="187" y="675"/>
      <point x="243" y="701"/>
      <point x="309" y="701" type="curve" smooth="yes"/>
      <point x="375" y="701"/>
      <point x="403" y="643"/>
      <point x="414" y="579" type="curve"/>
    </contour>
    <component base="bn_ha"/>
    <contour>
      <point x="193" y="787" type="move" name="chandrabindu"/>
    </contour>
  </outline>
</glyph>
<glyph name="bn_u" format="1">
  <advance width="566"/>
  <unicode hex="0989"/>
  <outline>
    <contour>
      <point x="566" y="589" type="line"/>
      <point x="553" y="682"/>
      <point x="506" y="760"/>
      <point x="419" y="760" type="curve" smooth="yes"/>
      <point x="356" y="760"/>
      <point x="285" y="734"/>
      <point x="236" y="734" type="curve" smooth="yes"/>
      <point x="178" y="734"/>
      <point x="146" y="773"/>
      <point x="120" y="815" type="curve"/>
      <point x="107" y="808"/>
      <point x="89" y="794"/>
      <point x="77" y="777" type="curve"/>
      <point x="110" y="719"/>
      <point x="155" y="676"/>
      <point x="233" y="676" type="curve" smooth="yes"/>
      <point x="293" y="676"/>
      <point x="355" y="701"/>
      <point x="421" y="701" type="curve" smooth="yes"/>
      <point x="487" y="701"/>
      <point x="515" y="643"/>
      <point x="526" y="579" type="curve"/>
    </contour>
    <component base="bn_dda"/>
    <contour>
      <point x="285" y="787" type="move" name="chandrabindu"/>
    </contour>
  </outline>
</glyph>
<glyph name="bn_uu" format="1">
  <advance width="623"/>
  <unicode hex="098A"/>
  <outline>
    <contour>
      <point x="533" y="-26"/>
      <point x="602" y="70"/>
      <point x="602" y="206" type="curve" smooth="yes"/>
      <point x="602" y="277"/>
      <point x="584" y="347"/>
      <point x="558" y="399" type="curve"/>
      <point x="544" y="408"/>
      <point x="526" y="415"/>
      <point x="512" y="418" type="curve"/>
      <point x="460" y="352"/>
      <point x="421" y="304"/>
      <point x="382" y="304" type="curve" smooth="yes"/>
      <point x="356" y="304"/>
      <point x="336" y="325"/>
      <point x="336" y="368" type="curve" smooth="yes"/>
      <point x="336" y="419"/>
      <point x="365" y="513"/>
      <point x="385" y="581" type="curve"/>
      <point x="319" y="587" type="line"/>
      <point x="304" y="531"/>
      <point x="279" y="437"/>
      <point x="279" y="385" type="curve" smooth="yes"/>
      <point x="279" y="312"/>
      <point x="326" y="244"/>
      <point x="395" y="244" type="curve" smooth="yes"/>
      <point x="463" y="244"/>
      <point x="509" y="305"/>
      <point x="559" y="369" type="curve"/>
      <point x="522" y="377" type="line"/>
      <point x="538" y="337"/>
      <point x="549" y="280"/>
      <point x="549" y="228" type="curve" smooth="yes"/>
      <point x="549" y="110"/>
      <point x="498" y="50"/>
      <point x="411" y="50" type="curve" smooth="yes"/>
      <point x="294" y="50"/>
      <point x="218" y="159"/>
      <point x="144" y="461" type="curve"/>
      <point x="127" y="454"/>
      <point x="111" y="446"/>
      <point x="96" y="435" type="curve"/>
      <point x="145" y="246"/>
      <point x="210" y="67"/>
      <point x="344" y="8" type="curve"/>
      <point x="350" y="21" type="line"/>
      <point x="225" y="51"/>
      <point x="133" y="148"/>
      <point x="52" y="415" type="curve"/>
      <point x="35" y="407"/>
      <point x="20" y="400"/>
      <point x="5" y="389" type="curve"/>
      <point x="67" y="193"/>
      <point x="178" y="-26"/>
      <point x="392" y="-26" type="curve" smooth="yes"/>
    </contour>
    <contour>
      <point x="79" y="546"/>
      <point x="175" y="558"/>
      <point x="311" y="558" type="curve" smooth="yes"/>
      <point x="444" y="558"/>
      <point x="543" y="547"/>
      <point x="623" y="530" type="curve"/>
      <point x="626" y="537"/>
      <point x="628" y="549"/>
      <point x="628" y="561" type="curve" smooth="yes"/>
      <point x="628" y="572"/>
      <point x="626" y="581"/>
      <point x="623" y="589" type="curve"/>
      <point x="546" y="607"/>
      <point x="448" y="621"/>
      <point x="311" y="621" type="curve" smooth="yes"/>
      <point x="175" y="621"/>
      <point x="76" y="607"/>
      <point x="0" y="589" type="curve"/>
      <point x="-5" y="581"/>
      <point x="-6" y="571"/>
      <point x="-6" y="562" type="curve" smooth="yes"/>
      <point x="-6" y="550"/>
      <point x="-5" y="538"/>
      <point x="0" y="530" type="curve"/>
    </contour>
    <contour>
      <point x="623" y="589" type="line"/>
      <point x="610" y="682"/>
      <point x="563" y="760"/>
      <point x="476" y="760" type="curve" smooth="yes"/>
      <point x="402" y="760"/>
      <point x="311" y="734"/>
      <point x="254" y="734" type="curve" smooth="yes"/>
      <point x="193" y="734"/>
      <point x="162" y="773"/>
      <point x="136" y="815" type="curve"/>
      <point x="123" y="808"/>
      <point x="104" y="794"/>
      <point x="92" y="777" type="curve"/>
      <point x="125" y="719"/>
      <point x="171" y="676"/>
      <point x="250" y="676" type="curve" smooth="yes"/>
      <point x="322" y="676"/>
      <point x="401" y="701"/>
      <point x="478" y="701" type="curve" smooth="yes"/>
      <point x="544" y="701"/>
      <point x="572" y="643"/>
      <point x="583" y="579" type="curve"/>
    </contour>
    <contour>
      <point x="307" y="787" type="move" name="chandrabindu"/>
    </contour>
  </outline>
</glyph>
<glyph name="bn_ai" format="1">
  <advance width="651"/>
  <unicode hex="0990"/>
  <outline>
    <contour>
      <point x="582" y="439"/>
      <point x="623" y="504"/>
      <point x="623" y="581" type="curve" smooth="yes"/>
      <point x="623" y="672"/>
      <point x="567" y="719"/>
      <point x="460" y="740" type="curve" smooth="yes"/>
      <point x="389" y="753" type="line" smooth="yes"/>
      <point x="317" y="766"/>
      <point x="284" y="786"/>
      <point x="266" y="872" type="curve"/>
      <point x="252" y="870"/>
      <point x="231" y="861"/>
      <point x="214" y="849" type="curve"/>
      <point x="235" y="730"/>
      <point x="297" y="710"/>
      <point x="419" y="690" type="curve" smooth="yes"/>
      <point x="517" y="673"/>
      <point x="581" y="661"/>
      <point x="581" y="587" type="curve" smooth="yes"/>
      <point x="581" y="536"/>
      <point x="551" y="488"/>
      <point x="507" y="458" type="curve"/>
      <point x="508" y="380" type="line"/>
    </contour>
    <component base="bn_e"/>
    <contour>
      <point x="454" y="787" type="move" name="chandrabindu"/>
    </contour>
  </outline>
</glyph>
<glyph name="bn_ka" format="1">
  <advance width="607"/>
  <unicode hex="0995"/>
  <outline>
    <contour>
      <point x="330" y="13" type="line"/>
      <point x="274" y="164"/>
      <point x="178" y="247"/>
      <point x="82" y="287" type="curve"/>
      <point x="85" y="257" type="line"/>
      <point x="145" y="328"/>
      <point x="265" y="407"/>
      <point x="336" y="435" type="curve"/>
      <point x="335" y="512" type="line"/>
      <point x="215" y="462"/>
      <point x="90" y="375"/>
      <point x="29" y="303" type="curve"/>
      <point x="32" y="277"/>
      <point x="39" y="253"/>
      <point x="62" y="228" type="curve"/>
      <point x="159" y="203"/>
      <point x="242" y="126"/>
      <point x="308" y="-19" type="curve"/>
    </contour>
    <contour>
      <point x="332" y="-19"/>
      <point x="358" y="-16"/>
      <point x="378" y="-8" type="curve"/>
      <point x="363" y="72"/>
      <point x="360" y="204"/>
      <point x="360" y="284" type="curve" smooth="yes"/>
      <point x="360" y="403"/>
      <point x="363" y="472"/>
      <point x="373" y="566" type="curve"/>
      <point x="320" y="578" type="line"/>
      <point x="305" y="435"/>
      <point x="299" y="330"/>
      <point x="299" y="188" type="curve" smooth="yes"/>
      <point x="299" y="67"/>
      <point x="304" y="19"/>
      <point x="308" y="-19" type="curve"/>
    </contour>
    <contour>
      <point x="537" y="167"/>
      <point x="582" y="228"/>
      <point x="582" y="298" type="curve" smooth="yes"/>
      <point x="582" y="389"/>
      <point x="498" y="474"/>
      <point x="354" y="503" type="curve"/>
      <point x="350" y="429" type="line"/>
      <point x="451" y="413"/>
      <point x="536" y="373"/>
      <point x="536" y="303" type="curve" smooth="yes"/>
      <point x="536" y="254"/>
      <point x="496" y="218"/>
      <point x="437" y="196" type="curve"/>
      <point x="449" y="166"/>
      <point x="470" y="145"/>
      <point x="489" y="140" type="curve"/>
    </contour>
    <contour>
      <point x="79" y="546"/>
      <point x="180" y="561"/>
      <point x="297" y="561" type="curve" smooth="yes"/>
      <point x="412" y="561"/>
      <point x="528" y="546"/>
      <point x="607" y="530" type="curve"/>
      <point x="609" y="538"/>
      <point x="613" y="549"/>
      <point x="613" y="564" type="curve" smooth="yes"/>
      <point x="613" y="574"/>
      <point x="610" y="583"/>
      <point x="607" y="589" type="curve"/>
      <point x="538" y="608"/>
      <point x="418" y="624"/>
      <point x="301" y="624" type="curve" smooth="yes"/>
      <point x="183" y="624"/>
      <point x="77" y="608"/>
      <point x="0" y="589" type="curve"/>
      <point x="-3" y="583"/>
      <point x="-5" y="573"/>
      <point x="-5" y="562" type="curve" smooth="yes"/>
      <point x="-5" y="551"/>
      <point x="-3" y="538"/>
      <point x="0" y="530" type="curve"/>
    </contour>
    <contour>
      <point x="328" y="-2" type="move" name="blwm"/>
    </contour>
    <contour>
      <point x="118" y="0" type="move" name="nukt"/>
    </contour>
    <contour>
      <point x="337" y="690" type="move" name="reph"/>
    </contour>
    <contour>
      <point x="337" y="690" type="move" name="chandrabindu"/>
    </contour>
    <contour>
      <point x="265" y="-1" type="move" name="haln"/>
    </contour>
  </outline>
</glyph>
<glyph name="bn_kha" format="1">
  <advance width="546"/>
  <unicode hex="0996"/>
  <outline>
    <contour>
      <point x="377" y="15" type="line"/>
      <point x="339" y="143"/>
      <point x="270" y="253"/>
      <point x="156" y="285" type="curve"/>
      <point x="156" y="240" type="line"/>
      <point x="220" y="269" type="line" smooth="yes"/>
      <point x="309" y="310"/>
      <point x="357" y="374"/>
      <point x="357" y="443" type="curve" smooth="yes"/>
      <point x="357" y="484"/>
      <point x="347" y="514"/>
      <point x="331" y="537" type="curve"/>
      <point x="288" y="559" type="line"/>
      <point x="255" y="509"/>
      <point x="204" y="479"/>
      <point x="164" y="479" type="curve" smooth="yes"/>
      <point x="126" y="479"/>
      <point x="110" y="496"/>
      <point x="110" y="536" type="curve" smooth="yes"/>
      <point x="110" y="554"/>
      <point x="115" y="573"/>
      <point x="126" y="588" type="curve"/>
      <point x="101" y="588"/>
      <point x="75" y="584"/>
      <point x="56" y="575" type="curve"/>
      <point x="49" y="560"/>
      <point x="45" y="543"/>
      <point x="45" y="522" type="curve" smooth="yes"/>
      <point x="45" y="452"/>
      <point x="90" y="412"/>
      <point x="157" y="412" type="curve" smooth="yes"/>
      <point x="210" y="412"/>
      <point x="275" y="452"/>
      <point x="312" y="513" type="curve"/>
      <point x="286" y="525" type="line"/>
      <point x="298" y="510"/>
      <point x="305" y="493"/>
      <point x="305" y="471" type="curve" smooth="yes"/>
      <point x="305" y="417"/>
      <point x="271" y="377"/>
      <point x="188" y="335" type="curve" smooth="yes"/>
      <point x="108" y="294" type="line"/>
      <point x="110" y="269"/>
      <point x="123" y="244"/>
      <point x="143" y="225" type="curve"/>
      <point x="237" y="202"/>
      <point x="294" y="126"/>
      <point x="346" y="-6" type="curve"/>
    </contour>
    <contour>
      <point x="462" y="91"/>
      <point x="486" y="245"/>
      <point x="486" y="471" type="curve" smooth="yes"/>
      <point x="486" y="494"/>
      <point x="489" y="507"/>
      <point x="501" y="514" type="curve" smooth="yes"/>
      <point x="511" y="519"/>
      <point x="524" y="524"/>
      <point x="546" y="530" type="curve"/>
      <point x="550" y="536"/>
      <point x="552" y="549"/>
      <point x="552" y="562" type="curve" smooth="yes"/>
      <point x="552" y="573"/>
      <point x="550" y="584"/>
      <point x="546" y="589" type="curve"/>
      <point x="508" y="580"/>
      <point x="480" y="571"/>
      <point x="457" y="558" type="curve" smooth="yes"/>
      <point x="433" y="546"/>
      <point x="424" y="521"/>
      <point x="424" y="492" type="curve" smooth="yes"/>
      <point x="424" y="478"/>
      <point x="426" y="452"/>
      <point x="426" y="418" type="curve" smooth="yes"/>
      <point x="426" y="266"/>
      <point x="409" y="128"/>
      <point x="365" y="30" type="curve"/>
      <point x="346" y="-6" type="line"/>
      <point x="362" y="-15"/>
      <point x="388" y="-21"/>
      <point x="413" y="-21" type="curve"/>
    </contour>
    <contour>
      <point x="375" y="-1" type="move" name="blwm"/>
    </contour>
    <contour>
      <point x="165" y="0" type="move" name="nukt"/>
    </contour>
    <contour>
      <point x="459" y="690" type="move" name="reph"/>
    </contour>
    <contour>
      <point x="459" y="690" type="move" name="chandrabindu"/>
    </contour>
    <contour>
      <point x="262" y="0" type="move" name="haln"/>
    </contour>
  </outline>
</glyph>
<glyph name="bn_nukta" format="1">
  <advance width="0"/>
  <unicode hex="09BC"/>
  <outline>
    <contour>
      <point x="51" y="-8"/>
      <point x="28" y="18"/>
      <point x="-3" y="18" type="curve" smooth="yes"/>
      <point x="-30" y="18"/>
      <point x="-52" y="-2"/>
      <point x="-52" y="-29" type="curve" smooth="yes"/>
      <point x="-52" y="-60"/>
      <point x="-30" y="-87"/>
      <point x="3" y="-87" type="curve" smooth="yes"/>
      <point x="31" y="-87"/>
      <point x="51" y="-67"/>
      <point x="51" y="-40" type="curve" smooth="yes"/>
    </contour>
    <contour>
      <point x="0" y="-28" type="move" name="_nukt"/>
    </contour>
  </outline>
</glyph>
<glyph name="bn_rikaar" format="1">
  <advance width="0"/>
  <unicode hex="09C3"/>
  <outline>
    <contour>
      <point x="58" y="-244" type="curve"/>
      <point x="-96" y="-136" type="line"/>
      <point x="-102" y="-163" type="line"/>
      <point x="37" y="-24" type="line"/>
      <point x="18" y="4" type="line"/>
      <point x="-28" y="11" type="line"/>
      <point x="-28" y="-8" type="line"/>
      <point x="-155" y="-135" type="line"/>
      <point x="-155" y="-152" type="line"/>
      <point x="24" y="-291" type="line"/>
      <point x="39" y="-278"/>
      <point x="51" y="-261"/>
    </contour>
    <contour>
      <point x="0" y="-20" type="move" name="_blwm"/>
    </contour>
  </outline>
</glyph>
<glyph name="bn_aikaar" format="1">
  <advance width="260"/>
  <unicode hex="09C8"/>
  <outline>
    <contour>
      <point x="260" y="589" type="line"/>
      <point x="250" y="670"/>
      <point x="216" y="741"/>
      <point x="142" y="741" type="curve" smooth="yes"/>
      <point x="107" y="741"/>
      <point x="65" y="724"/>
      <point x="34" y="724" type="curve" smooth="yes"/>
      <point x="-6" y="724"/>
      <point x="-29" y="756"/>
      <point x="-50" y="791" type="curve"/>
      <point x="-63" y="785"/>
      <point x="-83" y="774"/>
      <point x="-95" y="759" type="curve"/>
      <point x="-65" y="706"/>
      <point x="-30" y="667"/>
      <point x="29" y="667" type="curve" smooth="yes"/>
      <point x="70" y="667"/>
      <point x="106" y="683"/>
      <point x="143" y="683" type="curve" smooth="yes"/>
      <point x="198" y="683"/>
      <point x="212" y="628"/>
      <point x="220" y="569" type="curve"/>
    </contour>
    <component base="bn_ekaar"/>
  </outline>
</glyph>
<glyph name="bn_halanth" format="1">
  <advance width="0"/>
  <unicode hex="09CD"/>
  <outline>
    <contour>
      <point x="240" y="-278"/>
      <point x="251" y="-261"/>
      <point x="258" y="-245" type="curve"/>
      <point x="62" y="-98" type="line"/>
      <point x="47" y="-109"/>
      <point x="36" y="-124"/>
      <point x="28" y="-141" type="curve"/>
      <point x="225" y="-291" type="line"/>
    </contour>
    <contour>
      <point x="0" y="-20" type="move" name="_haln"/>
    </contour>
  </outline>
</glyph>
<glyph name="bn_lli" format="1">
  <advance width="650"/>
  <unicode hex="09E1"/>
  <outline>
    <contour>
      <point x="398" y="147"/>
      <point x="417" y="245"/>
      <point x="417" y="325" type="curve" smooth="yes"/>
      <point x="417" y="455"/>
      <point x="367" y="509"/>
      <point x="260" y="533" type="curve" smooth="yes"/>
      <point x="194" y="548" type="line" smooth="yes"/>
      <point x="126" y="564"/>
      <point x="95" y="582"/>
      <point x="78" y="668" type="curve"/>
      <point x="63" y="665"/>
      <point x="43" y="657"/>
      <point x="25" y="645" type="curve"/>
      <point x="46" y="524"/>
      <point x="107" y="506"/>
      <point x="220" y="479" type="curve" smooth="yes"/>
      <point x="318" y="457"/>
      <point x="370" y="445"/>
      <point x="370" y="353" type="curve" smooth="yes"/>
      <point x="370" y="267"/>
      <point x="337" y="110"/>
      <point x="297" y="42" type="curve"/>
      <point x="369" y="53" type="line"/>
    </contour>
    <contour>
      <point x="165" y="-19"/>
      <point x="198" y="5"/>
      <point x="216" y="44" type="curve"/>
      <point x="213" y="66"/>
      <point x="202" y="96"/>
      <point x="190" y="117" type="curve"/>
      <point x="177" y="78"/>
      <point x="156" y="47"/>
      <point x="126" y="47" type="curve" smooth="yes"/>
      <point x="96" y="47"/>
      <point x="71" y="75"/>
      <point x="71" y="132" type="curve" smooth="yes"/>
      <point x="71" y="199"/>
      <point x="106" y="241"/>
      <point x="157" y="241" type="curve" smooth="yes"/>
      <point x="225" y="241"/>
      <point x="279" y="163"/>
      <point x="283" y="30" type="curve"/>
      <point x="323" y="49" type="line"/>
      <point x="322" y="212"/>
      <point x="250" y="312"/>
      <point x="155" y="312" type="curve" smooth="yes"/>
      <point x="75" y="312"/>
      <point x="20" y="240"/>
      <point x="20" y="143" type="curve" smooth="yes"/>
      <point x="20" y="47"/>
      <point x="74" y="-19"/>
      <point x="131" y="-19" type="curve" smooth="yes"/>
    </contour>
    <contour>
      <point x="376" y="-208"/>
      <point x="407" y="-186"/>
      <point x="422" y="-151" type="curve"/>
      <point x="420" y="-129"/>
      <point x="410" y="-100"/>
      <point x="398" y="-79" type="curve"/>
      <point x="386" y="-114"/>
      <point x="366" y="-142"/>
      <point x="338" y="-142" type="curve" smooth="yes"/>
      <point x="311" y="-142"/>
      <point x="286" y="-116"/>
      <point x="286" y="-65" type="curve" smooth="yes"/>
      <point x="286" y="-5"/>
      <point x="319" y="32"/>
      <point x="366" y="32" type="curve" smooth="yes"/>
      <point x="434" y="32"/>
      <point x="486" y="-49"/>
      <point x="482" y="-191" type="curve"/>
      <point x="520" y="-157" type="line"/>
      <point x="524" y="3"/>
      <point x="456" y="101"/>
      <point x="366" y="101" type="curve"/>
      <point x="291" y="73" type="line"/>
      <point x="258" y="45"/>
      <point x="238" y="0"/>
      <point x="238" y="-55" type="curve" smooth="yes"/>
      <point x="238" y="-146"/>
      <point x="289" y="-208"/>
      <point x="344" y="-208" type="curve" smooth="yes"/>
    </contour>
    <contour>
      <point x="587" y="-108"/>
      <point x="614" y="14"/>
      <point x="614" y="109" type="curve" smooth="yes"/>
      <point x="614" y="229"/>
      <point x="567" y="276"/>
      <point x="466" y="310" type="curve" smooth="yes"/>
      <point x="391" y="336" type="line"/>
      <point x="383" y="277" type="line"/>
      <point x="432" y="260" type="line" smooth="yes"/>
      <point x="517" y="230"/>
      <point x="570" y="220"/>
      <point x="570" y="135" type="curve" smooth="yes"/>
      <point x="570" y="57"/>
      <point x="534" y="-82"/>
      <point x="493" y="-146" type="curve"/>
      <point x="482" y="-191" type="line"/>
      <point x="500" y="-204"/>
      <point x="522" y="-209"/>
      <point x="546" y="-211" type="curve"/>
    </contour>
    <contour>
      <point x="511" y="-200" type="move" name="blwm"/>
    </contour>
  </outline>
</glyph>
<glyph name="bn_likaar" format="1">
  <advance width="300"/>
  <unicode hex="09E2"/>
  <outline>
    <contour>
      <point x="262" y="-289"/>
      <point x="281" y="-219"/>
      <point x="281" y="-163" type="curve" smooth="yes"/>
      <point x="281" y="-95"/>
      <point x="254" y="-58"/>
      <point x="186" y="-43" type="curve" smooth="yes"/>
      <point x="147" y="-34" type="line" smooth="yes"/>
      <point x="105" y="-25"/>
      <point x="87" y="-16"/>
      <point x="77" y="31" type="curve"/>
      <point x="66" y="29"/>
      <point x="49" y="22"/>
      <point x="35" y="13" type="curve"/>
      <point x="49" y="-59"/>
      <point x="85" y="-73"/>
      <point x="155" y="-88" type="curve" smooth="yes"/>
      <point x="206" y="-101"/>
      <point x="238" y="-112"/>
      <point x="238" y="-155" type="curve" smooth="yes"/>
      <point x="238" y="-196"/>
      <point x="221" y="-263"/>
      <point x="201" y="-302" type="curve"/>
      <point x="187" y="-338" type="line"/>
      <point x="201" y="-344"/>
      <point x="218" y="-347"/>
      <point x="235" y="-347" type="curve"/>
    </contour>
    <contour>
      <point x="120" y="-346"/>
      <point x="139" y="-335"/>
      <point x="149" y="-318" type="curve"/>
      <point x="147" y="-301"/>
      <point x="138" y="-275"/>
      <point x="129" y="-258" type="curve"/>
      <point x="121" y="-275"/>
      <point x="109" y="-289"/>
      <point x="92" y="-289" type="curve" smooth="yes"/>
      <point x="77" y="-289"/>
      <point x="63" y="-278"/>
      <point x="63" y="-255" type="curve" smooth="yes"/>
      <point x="63" y="-227"/>
      <point x="81" y="-208"/>
      <point x="109" y="-208" type="curve" smooth="yes"/>
      <point x="151" y="-208"/>
      <point x="188" y="-247"/>
      <point x="187" y="-338" type="curve"/>
      <point x="220" y="-300" type="line"/>
      <point x="221" y="-207"/>
      <point x="175" y="-148"/>
      <point x="107" y="-148" type="curve" smooth="yes"/>
      <point x="54" y="-148"/>
      <point x="17" y="-191"/>
      <point x="17" y="-249" type="curve" smooth="yes"/>
      <point x="17" y="-305"/>
      <point x="55" y="-346"/>
      <point x="100" y="-346" type="curve" smooth="yes"/>
    </contour>
  </outline>
</glyph>
<glyph name="bn_currency4" format="1">
  <advance width="265"/>
  <unicode hex="09F7"/>
  <outline>
    <contour>
      <point x="148" y="-81" type="line"/>
      <point x="129" y="2"/>
      <point x="119" y="126"/>
      <point x="119" y="262" type="curve" smooth="yes"/>
      <point x="119" y="387"/>
      <point x="127" y="489"/>
      <point x="134" y="595" type="curve"/>
      <point x="83" y="585" type="line"/>
      <point x="62" y="392"/>
      <point x="61" y="263"/>
      <point x="61" y="61" type="curve" smooth="yes"/>
      <point x="61" y="20"/>
      <point x="64" y="-17"/>
      <point x="65" y="-52" type="curve"/>
    </contour>
  </outline>
</glyph>
<glyph name="bn_currency16" format="1">
  <advance width="542"/>
  <unicode hex="09F9"/>
  <outline>
    <contour>
      <point x="373" y="170"/>
      <point x="438" y="301"/>
      <point x="438" y="408" type="curve" smooth="yes"/>
      <point x="438" y="516"/>
      <point x="381" y="585"/>
      <point x="271" y="585" type="curve" smooth="yes"/>
      <point x="134" y="585"/>
      <point x="68" y="454"/>
      <point x="68" y="348" type="curve" smooth="yes"/>
      <point x="68" y="240"/>
      <point x="126" y="170"/>
      <point x="236" y="170" type="curve" smooth="yes"/>
    </contour>
    <contour>
      <point x="170" y="228"/>
      <point x="115" y="264"/>
      <point x="115" y="352" type="curve" smooth="yes"/>
      <point x="115" y="451"/>
      <point x="176" y="527"/>
      <point x="269" y="527" type="curve" smooth="yes"/>
      <point x="336" y="527"/>
      <point x="390" y="491"/>
      <point x="390" y="403" type="curve" smooth="yes"/>
      <point x="390" y="304"/>
      <point x="331" y="228"/>
      <point x="236" y="228" type="curve" smooth="yes"/>
    </contour>
  </outline>
</glyph>
<glyph name="emdash" format="1">
  <advance width="630"/>
  <unicode hex="2014"/>
  <outline>
    <contour>
      <point x="32" y="290"/>
      <point x="30" y="273"/>
      <point x="29" y="250" type="curve"/>
      <point x="195" y="221"/>
      <point x="402" y="218"/>
      <point x="594" y="241" type="curve"/>
      <point x="598" y="261"/>
      <point x="601" y="280"/>
      <point x="601" y="297" type="curve"/>
      <point x="522" y="289"/>
      <point x="440" y="285"/>
      <point x="359" y="285" type="curve" smooth="yes"/>
      <point x="218" y="285"/>
      <point x="139" y="292"/>
      <point x="35" y="307" type="curve"/>
    </contour>
  </outline>
</glyph>
<glyph name="guilsinglleft" format="1">
  <advance width="262"/>
  <unicode hex="2039"/>
  <outline>
    <contour>
      <point x="187" y="63" type="curve"/>
      <point x="207" y="74"/>
      <point x="220" y="88"/>
      <point x="235" y="111" type="curve"/>
      <point x="153" y="166"/>
      <point x="97" y="226"/>
      <point x="61" y="283" type="curve"/>
      <point x="9" y="264" type="line"/>
      <point x="52" y="186"/>
      <point x="109" y="122"/>
    </contour>
    <contour>
      <point x="232" y="397" type="curve"/>
      <point x="220" y="415"/>
      <point x="203" y="428"/>
      <point x="182" y="442" type="curve"/>
      <point x="127" y="360"/>
      <point x="68" y="301"/>
      <point x="9" y="264" type="curve"/>
      <point x="47" y="229" type="line"/>
      <point x="119" y="272"/>
      <point x="177" y="325"/>
    </contour>
  </outline>
</glyph>
<glyph name="Euro" format="1">
  <advance width="515"/>
  <unicode hex="20AC"/>
  <outline>
    <contour>
      <point x="419" y="210" type="curve"/>
      <point x="419" y="93"/>
      <point x="380" y="16"/>
      <point x="308" y="16" type="curve" smooth="yes"/>
      <point x="224" y="16"/>
      <point x="183" y="117"/>
      <point x="183" y="288" type="curve" smooth="yes"/>
      <point x="183" y="502"/>
      <point x="258" y="612"/>
      <point x="333" y="612" type="curve" smooth="yes"/>
      <point x="396" y="612"/>
      <point x="423" y="559"/>
      <point x="411" y="428" type="curve"/>
      <point x="441" y="429"/>
      <point x="460" y="433"/>
      <point x="481" y="442" type="curve"/>
      <point x="489" y="598"/>
      <point x="442" y="668"/>
      <point x="346" y="668" type="curve" smooth="yes"/>
      <point x="199" y="668"/>
      <point x="103" y="508"/>
      <point x="103" y="276" type="curve" smooth="yes"/>
      <point x="103" y="69"/>
      <point x="178" y="-40"/>
      <point x="292" y="-40" type="curve" smooth="yes"/>
      <point x="408" y="-40"/>
      <point x="463" y="43"/>
      <point x="482" y="190" type="curve"/>
      <point x="463" y="203"/>
      <point x="443" y="209"/>
    </contour>
    <contour>
      <point x="339" y="347" type="curve"/>
      <point x="343" y="362"/>
      <point x="345" y="382"/>
      <point x="344" y="398" type="curve"/>
      <point x="209" y="379"/>
      <point x="133" y="374"/>
      <point x="16" y="382" type="curve"/>
      <point x="12" y="366"/>
      <point x="13" y="344"/>
      <point x="15" y="328" type="curve"/>
      <point x="129" y="321"/>
      <point x="209" y="327"/>
    </contour>
    <contour>
      <point x="340" y="214" type="curve"/>
      <point x="344" y="228"/>
      <point x="346" y="249"/>
      <point x="345" y="265" type="curve"/>
      <point x="210" y="245"/>
      <point x="134" y="240"/>
      <point x="17" y="248" type="curve"/>
      <point x="14" y="232"/>
      <point x="15" y="210"/>
      <point x="17" y="194" type="curve"/>
      <point x="130" y="187"/>
      <point x="210" y="193"/>
    </contour>
  </outline>
</glyph>
<glyph name="uni2113" format="1">
  <advance width="571"/>
  <unicode hex="2113"/>
  <outline>
    <contour>
      <point x="560" y="559" type="curve" smooth="yes"/>
      <point x="560" y="670"/>
      <point x="500" y="751"/>
      <point x="392" y="751" type="curve" smooth="yes"/>
      <point x="237" y="751"/>
      <point x="136" y="568"/>
      <point x="136" y="335" type="curve" smooth="yes"/>
      <point x="136" y="112"/>
      <point x="230" y="-7"/>
      <point x="366" y="-7" type="curve" smooth="yes"/>
      <point x="434" y="-7"/>
      <point x="495" y="19"/>
      <point x="535" y="69" type="curve"/>
      <point x="529" y="87"/>
      <point x="514" y="106"/>
      <point x="495" y="118" type="curve"/>
      <point x="466" y="76"/>
      <point x="426" y="51"/>
      <point x="375" y="51" type="curve" smooth="yes"/>
      <point x="272" y="51"/>
      <point x="220" y="162"/>
      <point x="220" y="353" type="curve" smooth="yes"/>
      <point x="220" y="541"/>
      <point x="292" y="693"/>
      <point x="388" y="693" type="curve" smooth="yes"/>
      <point x="448" y="693"/>
      <point x="481" y="637"/>
      <point x="481" y="543" type="curve" smooth="yes"/>
      <point x="481" y="386"/>
      <point x="358" y="229"/>
      <point x="205" y="229" type="curve" smooth="yes"/>
      <point x="145" y="229"/>
      <point x="100" y="242"/>
      <point x="41" y="280" type="curve"/>
      <point x="28" y="265"/>
      <point x="17" y="242"/>
      <point x="11" y="217" type="curve"/>
      <point x="72" y="183"/>
      <point x="132" y="168"/>
      <point x="202" y="168" type="curve" smooth="yes"/>
      <point x="392" y="168"/>
      <point x="560" y="343"/>
    </contour>
  </outline>
</glyph>
<glyph name="uni2126" format="1">
  <advance width="680"/>
  <unicode hex="2126"/>
  <outline>
    <contour>
      <point x="339" y="733" type="curve" smooth="yes"/>
      <point x="517" y="733"/>
      <point x="633" y="594"/>
      <point x="633" y="406" type="curve" smooth="yes"/>
      <point x="633" y="248"/>
      <point x="550" y="131"/>
      <point x="413" y="25" type="curve"/>
      <point x="421" y="53" type="line"/>
      <point x="495" y="59"/>
      <point x="585" y="61"/>
      <point x="666" y="54" type="curve"/>
      <point x="668" y="37"/>
      <point x="670" y="6"/>
      <point x="668" y="-11" type="curve"/>
      <point x="545" y="-1"/>
      <point x="475" y="0"/>
      <point x="386" y="-6" type="curve"/>
      <point x="383" y="14"/>
      <point x="381" y="31"/>
      <point x="382" y="49" type="curve"/>
      <point x="484" y="160"/>
      <point x="550" y="260"/>
      <point x="550" y="410" type="curve" smooth="yes"/>
      <point x="550" y="568"/>
      <point x="459" y="672"/>
      <point x="337" y="672" type="curve" smooth="yes"/>
      <point x="218" y="672"/>
      <point x="129" y="568"/>
      <point x="129" y="410" type="curve" smooth="yes"/>
      <point x="129" y="261"/>
      <point x="195" y="161"/>
      <point x="296" y="50" type="curve"/>
      <point x="297" y="31"/>
      <point x="296" y="14"/>
      <point x="293" y="-5" type="curve"/>
      <point x="204" y="0"/>
      <point x="134" y="0"/>
      <point x="11" y="-10" type="curve"/>
      <point x="10" y="7"/>
      <point x="11" y="38"/>
      <point x="13" y="55" type="curve"/>
      <point x="94" y="62"/>
      <point x="184" y="60"/>
      <point x="257" y="54" type="curve"/>
      <point x="266" y="26" type="line"/>
      <point x="128" y="132"/>
      <point x="46" y="249"/>
      <point x="46" y="407" type="curve" smooth="yes"/>
      <point x="46" y="594"/>
      <point x="163" y="733"/>
    </contour>
  </outline>
</glyph>
<glyph name="summation" format="1">
  <advance width="472"/>
  <unicode hex="2211"/>
  <outline>
    <contour>
      <point x="48" y="-41" type="curve"/>
      <point x="176" y="-40"/>
      <point x="327" y="-28"/>
      <point x="464" y="-4" type="curve"/>
      <point x="465" y="12"/>
      <point x="464" y="41"/>
      <point x="459" y="60" type="curve"/>
      <point x="352" y="37"/>
      <point x="231" y="23"/>
      <point x="121" y="20" type="curve"/>
      <point x="213" y="138"/>
      <point x="289" y="242"/>
      <point x="360" y="375" type="curve"/>
      <point x="243" y="469"/>
      <point x="151" y="558"/>
      <point x="83" y="643" type="curve"/>
      <point x="183" y="659"/>
      <point x="283" y="669"/>
      <point x="398" y="670" type="curve"/>
      <point x="402" y="689"/>
      <point x="404" y="711"/>
      <point x="403" y="735" type="curve"/>
      <point x="243" y="731"/>
      <point x="137" y="714"/>
      <point x="6" y="691" type="curve"/>
      <point x="4" y="673"/>
      <point x="4" y="654"/>
      <point x="8" y="635" type="curve"/>
      <point x="74" y="548"/>
      <point x="165" y="459"/>
      <point x="281" y="360" type="curve"/>
      <point x="209" y="234"/>
      <point x="150" y="148"/>
      <point x="40" y="9" type="curve"/>
      <point x="41" y="-7"/>
      <point x="43" y="-24"/>
    </contour>
  </outline>
</glyph>
<glyph name="uni2219" format="1">
  <advance width="183"/>
  <unicode hex="2219"/>
  <outline>
    <contour>
      <point x="155" y="306"/>
      <point x="157" y="341"/>
      <point x="159" y="382" type="curve"/>
      <point x="102" y="390"/>
      <point x="56" y="384"/>
      <point x="24" y="376" type="curve"/>
      <point x="24" y="335"/>
      <point x="27" y="310"/>
      <point x="29" y="266" type="curve"/>
      <point x="68" y="260"/>
      <point x="102" y="260"/>
      <point x="148" y="266" type="curve"/>
    </contour>
  </outline>
</glyph>
<glyph name="notequal" format="1">
  <advance width="365"/>
  <unicode hex="2260"/>
  <outline>
    <contour>
      <point x="27" y="285" type="curve"/>
      <point x="24" y="267"/>
      <point x="22" y="252"/>
      <point x="22" y="231" type="curve"/>
      <point x="120" y="219"/>
      <point x="229" y="219"/>
      <point x="326" y="231" type="curve"/>
      <point x="330" y="248"/>
      <point x="332" y="266"/>
      <point x="332" y="283" type="curve"/>
      <point x="204" y="272"/>
      <point x="119" y="274"/>
    </contour>
    <contour>
      <point x="38" y="412" type="curve"/>
      <point x="34" y="395"/>
      <point x="32" y="379"/>
      <point x="32" y="358" type="curve"/>
      <point x="130" y="346"/>
      <point x="239" y="346"/>
      <point x="336" y="358" type="curve"/>
      <point x="340" y="375"/>
      <point x="342" y="393"/>
      <point x="342" y="410" type="curve"/>
      <point x="215" y="399"/>
      <point x="129" y="401"/>
    </contour>
    <contour>
      <point x="241" y="481" type="curve"/>
      <point x="193" y="376"/>
      <point x="145" y="288"/>
      <point x="57" y="160" type="curve"/>
      <point x="71" y="151"/>
      <point x="87" y="143"/>
      <point x="104" y="137" type="curve"/>
      <point x="179" y="239"/>
      <point x="242" y="351"/>
      <point x="290" y="460" type="curve"/>
      <point x="271" y="471"/>
      <point x="257" y="476"/>
    </contour>
  </outline>
</glyph>
<glyph name="uni25CC" format="1">
  <advance width="711"/>
  <unicode hex="25CC"/>
  <outline>
    <contour>
      <point x="85" y="156" type="curve" smooth="yes"/>
      <point x="85" y="131"/>
      <point x="102" y="113"/>
      <point x="127" y="113" type="curve" smooth="yes"/>
      <point x="150" y="113"/>
      <point x="165" y="130"/>
      <point x="165" y="156" type="curve" smooth="yes"/>
      <point x="165" y="181"/>
      <point x="150" y="197"/>
      <point x="127" y="197" type="curve" smooth="yes"/>
      <point x="102" y="197"/>
      <point x="85" y="180"/>
    </contour>
    <contour>
      <point x="181" y="58" type="curve" smooth="yes"/>
      <point x="181" y="34"/>
      <point x="198" y="18"/>
      <point x="221" y="18" type="curve" smooth="yes"/>
      <point x="245" y="18"/>
      <point x="262" y="34"/>
      <point x="262" y="58" type="curve" smooth="yes"/>
      <point x="262" y="83"/>
      <point x="245" y="99"/>
      <point x="221" y="99" type="curve" smooth="yes"/>
      <point x="198" y="99"/>
      <point x="181" y="83"/>
    </contour>
    <contour>
      <point x="50" y="286" type="curve" smooth="yes"/>
      <point x="50" y="261"/>
      <point x="66" y="244"/>
      <point x="91" y="244" type="curve" smooth="yes"/>
      <point x="116" y="244"/>
      <point x="131" y="261"/>
      <point x="131" y="286" type="curve" smooth="yes"/>
      <point x="131" y="311"/>
      <point x="116" y="327"/>
      <point x="91" y="327" type="curve" smooth="yes"/>
      <point x="66" y="327"/>
      <point x="50" y="310"/>
    </contour>
    <contour>
      <point x="315" y="22" type="curve" smooth="yes"/>
      <point x="315" y="-2"/>
      <point x="330" y="-18"/>
      <point x="355" y="-18" type="curve" smooth="yes"/>
      <point x="380" y="-18"/>
      <point x="396" y="-2"/>
      <point x="396" y="22" type="curve" smooth="yes"/>
      <point x="396" y="48"/>
      <point x="380" y="64"/>
      <point x="355" y="64" type="curve" smooth="yes"/>
      <point x="330" y="64"/>
      <point x="315" y="48"/>
    </contour>
    <contour>
      <point x="447" y="58" type="curve" smooth="yes"/>
      <point x="447" y="34"/>
      <point x="463" y="18"/>
      <point x="487" y="18" type="curve" smooth="yes"/>
      <point x="512" y="18"/>
      <point x="529" y="34"/>
      <point x="529" y="58" type="curve" smooth="yes"/>
      <point x="529" y="83"/>
      <point x="512" y="99"/>
      <point x="487" y="99" type="curve" smooth="yes"/>
      <point x="463" y="99"/>
      <point x="447" y="83"/>
    </contour>
    <contour>
      <point x="181" y="512" type="curve" smooth="yes"/>
      <point x="181" y="488"/>
      <point x="198" y="473"/>
      <point x="221" y="473" type="curve" smooth="yes"/>
      <point x="245" y="473"/>
      <point x="262" y="488"/>
      <point x="262" y="512" type="curve" smooth="yes"/>
      <point x="262" y="537"/>
      <point x="245" y="554"/>
      <point x="221" y="554" type="curve" smooth="yes"/>
      <point x="198" y="554"/>
      <point x="181" y="537"/>
    </contour>
    <contour>
      <point x="544" y="156" type="curve" smooth="yes"/>
      <point x="544" y="131"/>
      <point x="562" y="113"/>
      <point x="585" y="113" type="curve" smooth="yes"/>
      <point x="610" y="113"/>
      <point x="624" y="130"/>
      <point x="624" y="156" type="curve" smooth="yes"/>
      <point x="624" y="181"/>
      <point x="610" y="197"/>
      <point x="585" y="197" type="curve" smooth="yes"/>
      <point x="562" y="197"/>
      <point x="544" y="179"/>
    </contour>
    <contour>
      <point x="315" y="549" type="curve" smooth="yes"/>
      <point x="315" y="523"/>
      <point x="330" y="508"/>
      <point x="355" y="508" type="curve" smooth="yes"/>
      <point x="380" y="508"/>
      <point x="396" y="523"/>
      <point x="396" y="549" type="curve" smooth="yes"/>
      <point x="396" y="575"/>
      <point x="380" y="591"/>
      <point x="355" y="591" type="curve" smooth="yes"/>
      <point x="330" y="591"/>
      <point x="315" y="575"/>
    </contour>
    <contour>
      <point x="580" y="286" type="curve" smooth="yes"/>
      <point x="580" y="262"/>
      <point x="597" y="244"/>
      <point x="621" y="244" type="curve" smooth="yes"/>
      <point x="645" y="244"/>
      <point x="661" y="261"/>
      <point x="661" y="286" type="curve" smooth="yes"/>
      <point x="661" y="311"/>
      <point x="645" y="327"/>
      <point x="621" y="327" type="curve" smooth="yes"/>
      <point x="597" y="327"/>
      <point x="580" y="310"/>
    </contour>
    <contour>
      <point x="544" y="416" type="curve" smooth="yes"/>
      <point x="544" y="393"/>
      <point x="562" y="374"/>
      <point x="585" y="374" type="curve" smooth="yes"/>
      <point x="610" y="374"/>
      <point x="624" y="391"/>
      <point x="624" y="416" type="curve" smooth="yes"/>
      <point x="624" y="441"/>
      <point x="610" y="457"/>
      <point x="585" y="457" type="curve" smooth="yes"/>
      <point x="562" y="457"/>
      <point x="544" y="439"/>
    </contour>
    <contour>
      <point x="447" y="512" type="curve" smooth="yes"/>
      <point x="447" y="488"/>
      <point x="463" y="473"/>
      <point x="487" y="473" type="curve" smooth="yes"/>
      <point x="512" y="473"/>
      <point x="529" y="488"/>
      <point x="529" y="512" type="curve" smooth="yes"/>
      <point x="529" y="537"/>
      <point x="512" y="554"/>
      <point x="487" y="554" type="curve" smooth="yes"/>
      <point x="463" y="554"/>
      <point x="447" y="537"/>
    </contour>
    <contour>
      <point x="85" y="416" type="curve" smooth="yes"/>
      <point x="85" y="393"/>
      <point x="102" y="374"/>
      <point x="127" y="374" type="curve" smooth="yes"/>
      <point x="149" y="374"/>
      <point x="165" y="392"/>
      <point x="165" y="415" type="curve" smooth="yes"/>
      <point x="165" y="441"/>
      <point x="151" y="457"/>
      <point x="127" y="457" type="curve" smooth="yes"/>
      <point x="102" y="457"/>
      <point x="85" y="440"/>
    </contour>
  </outline>
</glyph>
<glyph name="bn_b_da_uukaar" format="1">
  <advance width="646"/>
  <outline>
    <contour>
      <point x="350" y="15" type="line"/>
      <point x="291" y="157"/>
      <point x="189" y="235"/>
      <point x="85" y="274" type="curve"/>
      <point x="88" y="242" type="line"/>
      <point x="153" y="319"/>
      <point x="280" y="405"/>
      <point x="355" y="434" type="curve"/>
      <point x="354" y="512" type="line"/>
      <point x="228" y="459"/>
      <point x="97" y="366"/>
      <point x="33" y="289" type="curve"/>
      <point x="35" y="262"/>
      <point x="43" y="239"/>
      <point x="66" y="213" type="curve"/>
      <point x="172" y="189"/>
      <point x="262" y="118"/>
      <point x="334" y="-19" type="curve"/>
    </contour>
    <contour>
      <point x="404" y="-4" type="curve"/>
      <point x="382" y="75"/>
      <point x="377" y="203"/>
      <point x="377" y="292" type="curve" smooth="yes"/>
      <point x="377" y="401"/>
      <point x="384" y="471"/>
      <point x="400" y="565" type="curve"/>
      <point x="349" y="578" type="line"/>
      <point x="326" y="449"/>
      <point x="315" y="335"/>
      <point x="315" y="185" type="curve" smooth="yes"/>
      <point x="315" y="68"/>
      <point x="324" y="18"/>
      <point x="334" y="-19" type="curve"/>
      <point x="358" y="-19"/>
      <point x="386" y="-15"/>
    </contour>
    <contour>
      <point x="304" y="563" type="curve" smooth="yes"/>
      <point x="435" y="563"/>
      <point x="568" y="547"/>
      <point x="646" y="530" type="curve"/>
      <point x="649" y="538"/>
      <point x="652" y="551"/>
      <point x="652" y="561" type="curve" smooth="yes"/>
      <point x="652" y="571"/>
      <point x="650" y="583"/>
      <point x="646" y="589" type="curve"/>
      <point x="571" y="608"/>
      <point x="438" y="626"/>
      <point x="305" y="626" type="curve" smooth="yes"/>
      <point x="185" y="626"/>
      <point x="68" y="606"/>
      <point x="0" y="589" type="curve"/>
      <point x="-3" y="583"/>
      <point x="-5" y="571"/>
      <point x="-5" y="562" type="curve" smooth="yes"/>
      <point x="-5" y="551"/>
      <point x="-3" y="538"/>
      <point x="0" y="530" type="curve"/>
      <point x="70" y="545"/>
      <point x="185" y="563"/>
    </contour>
    <contour>
      <point x="580" y="116" type="curve"/>
      <point x="554" y="177"/>
      <point x="544" y="240"/>
      <point x="544" y="305" type="curve" smooth="yes"/>
      <point x="544" y="344"/>
      <point x="549" y="384"/>
      <point x="557" y="423" type="curve"/>
      <point x="527" y="475" type="line"/>
      <point x="470" y="456"/>
      <point x="412" y="430"/>
      <point x="354" y="403" type="curve"/>
      <point x="361" y="336" type="line"/>
      <point x="418" y="364"/>
      <point x="473" y="390"/>
      <point x="527" y="409" type="curve"/>
      <point x="502" y="424" type="line"/>
      <point x="494" y="379"/>
      <point x="489" y="334"/>
      <point x="489" y="290" type="curve" smooth="yes"/>
      <point x="489" y="224"/>
      <point x="498" y="161"/>
      <point x="514" y="104" type="curve"/>
      <point x="537" y="104"/>
      <point x="564" y="107"/>
    </contour>
    <contour>
      <point x="351" y="690" type="move" name="reph"/>
    </contour>
    <contour>
      <point x="351" y="690" type="move" name="chandrabindu"/>
    </contour>
  </outline>
</glyph>
<glyph name="bn_b_ra_uukaar" format="1">
  <advance width="644"/>
  <outline>
    <contour>
      <point x="304" y="563" type="curve" smooth="yes"/>
      <point x="434" y="563"/>
      <point x="566" y="547"/>
      <point x="644" y="530" type="curve"/>
      <point x="648" y="538"/>
      <point x="650" y="551"/>
      <point x="650" y="561" type="curve" smooth="yes"/>
      <point x="650" y="571"/>
      <point x="648" y="583"/>
      <point x="644" y="589" type="curve"/>
      <point x="569" y="608"/>
      <point x="438" y="626"/>
      <point x="305" y="626" type="curve" smooth="yes"/>
      <point x="185" y="626"/>
      <point x="68" y="606"/>
      <point x="0" y="589" type="curve"/>
      <point x="-3" y="583"/>
      <point x="-5" y="571"/>
      <point x="-5" y="562" type="curve" smooth="yes"/>
      <point x="-5" y="551"/>
      <point x="-3" y="538"/>
      <point x="0" y="530" type="curve"/>
      <point x="70" y="545"/>
      <point x="186" y="563"/>
    </contour>
    <contour>
      <point x="345" y="-3" type="line"/>
      <point x="323" y="163"/>
      <point x="196" y="246"/>
      <point x="99" y="287" type="curve"/>
      <point x="102" y="257" type="line"/>
      <point x="162" y="328"/>
      <point x="282" y="407"/>
      <point x="353" y="435" type="curve"/>
      <point x="352" y="512" type="line"/>
      <point x="232" y="462"/>
      <point x="107" y="375"/>
      <point x="46" y="303" type="curve"/>
      <point x="49" y="277"/>
      <point x="56" y="253"/>
      <point x="79" y="228" type="curve"/>
      <point x="176" y="202"/>
      <point x="291" y="125"/>
      <point x="323" y="-36" type="curve"/>
    </contour>
    <contour>
      <point x="403" y="-209" type="curve"/>
      <point x="379" y="-73"/>
      <point x="377" y="150"/>
      <point x="377" y="284" type="curve" smooth="yes"/>
      <point x="377" y="403"/>
      <point x="380" y="472"/>
      <point x="390" y="566" type="curve"/>
      <point x="337" y="578" type="line"/>
      <point x="322" y="435"/>
      <point x="316" y="330"/>
      <point x="316" y="188" type="curve" smooth="yes"/>
      <point x="316" y="-48"/>
      <point x="326" y="-143"/>
      <point x="333" y="-220" type="curve"/>
      <point x="358" y="-220"/>
      <point x="384" y="-217"/>
    </contour>
    <contour>
      <point x="351" y="-190" type="line"/>
      <point x="320" y="-131"/>
      <point x="285" y="-101"/>
      <point x="226" y="-101" type="curve" smooth="yes"/>
      <point x="180" y="-101"/>
      <point x="142" y="-111"/>
      <point x="106" y="-111" type="curve" smooth="yes"/>
      <point x="68" y="-111"/>
      <point x="39" y="-92"/>
      <point x="39" y="-49" type="curve" smooth="yes"/>
      <point x="39" y="-22"/>
      <point x="49" y="7"/>
      <point x="60" y="28" type="curve"/>
      <point x="48" y="37"/>
      <point x="32" y="44"/>
      <point x="11" y="44" type="curve"/>
      <point x="-3" y="13"/>
      <point x="-18" y="-22"/>
      <point x="-18" y="-60" type="curve" smooth="yes"/>
      <point x="-18" y="-126"/>
      <point x="25" y="-174"/>
      <point x="101" y="-174" type="curve" smooth="yes"/>
      <point x="146" y="-174"/>
      <point x="189" y="-163"/>
      <point x="233" y="-163" type="curve" smooth="yes"/>
      <point x="292" y="-163"/>
      <point x="312" y="-196"/>
      <point x="333" y="-220" type="curve"/>
    </contour>
    <contour>
      <point x="584" y="38" type="curve"/>
      <point x="558" y="99"/>
      <point x="548" y="162"/>
      <point x="548" y="227" type="curve" smooth="yes"/>
      <point x="548" y="266"/>
      <point x="553" y="306"/>
      <point x="561" y="345" type="curve"/>
      <point x="531" y="397" type="line"/>
      <point x="477" y="380"/>
      <point x="422" y="360"/>
      <point x="367" y="334" type="curve"/>
      <point x="374" y="268" type="line"/>
      <point x="427" y="293"/>
      <point x="481" y="314"/>
      <point x="531" y="331" type="curve"/>
      <point x="506" y="346" type="line"/>
      <point x="498" y="301"/>
      <point x="493" y="256"/>
      <point x="493" y="212" type="curve" smooth="yes"/>
      <point x="493" y="146"/>
      <point x="502" y="83"/>
      <point x="518" y="26" type="curve"/>
      <point x="541" y="26"/>
      <point x="568" y="29"/>
    </contour>
    <contour>
      <point x="360" y="690" type="move" name="chandrabindu"/>
    </contour>
    <contour>
      <point x="356" y="-208" type="move" name="blwm"/>
    </contour>
    <contour>
      <point x="216" y="-208" type="move" name="haln"/>
    </contour>
    <contour>
      <point x="360" y="690" type="move" name="reph"/>
    </contour>
  </outline>
</glyph>
<glyph name="bn_ba_phala" format="1">
  <advance width="0"/>
  <outline>
    <contour>
      <point x="-14" y="-229" type="line"/>
      <point x="-50" y="-162"/>
      <point x="-137" y="-127"/>
      <point x="-218" y="-99" type="curve"/>
      <point x="-220" y="-128" type="line"/>
      <point x="-162" y="-87"/>
      <point x="-58" y="-45"/>
      <point x="9" y="-33" type="curve"/>
      <point x="-17" y="23" type="line"/>
      <point x="-116" y="-8"/>
      <point x="-213" y="-42"/>
      <point x="-265" y="-81" type="curve"/>
      <point x="-265" y="-106"/>
      <point x="-259" y="-128"/>
      <point x="-241" y="-151" type="curve"/>
      <point x="-157" y="-167"/>
      <point x="-76" y="-194"/>
      <point x="-30" y="-261" type="curve"/>
    </contour>
    <contour>
      <point x="-7" y="-263"/>
      <point x="19" y="-262"/>
      <point x="37" y="-253" type="curve"/>
      <point x="25" y="-220"/>
      <point x="21" y="-174"/>
      <point x="21" y="-128" type="curve" smooth="yes"/>
      <point x="21" y="-89"/>
      <point x="29" y="-42"/>
      <point x="39" y="7" type="curve"/>
      <point x="-17" y="23" type="line"/>
      <point x="-34" y="-44"/>
      <point x="-38" y="-124"/>
      <point x="-38" y="-186" type="curve" smooth="yes"/>
      <point x="-38" y="-224"/>
      <point x="-34" y="-245"/>
      <point x="-30" y="-261" type="curve"/>
    </contour>
    <contour>
      <point x="0" y="0" type="move" name="_blwm"/>
    </contour>
  </outline>
</glyph>
<glyph name="bn_bh_ra_ukaar" format="1">
  <advance width="734"/>
  <outline>
    <contour>
      <point x="445" y="-74" type="curve"/>
      <point x="459" y="43"/>
      <point x="468" y="183"/>
      <point x="468" y="352" type="curve" smooth="yes"/>
      <point x="469" y="394"/>
      <point x="450" y="426"/>
      <point x="429" y="450" type="curve"/>
      <point x="416" y="462"/>
      <point x="394" y="475"/>
      <point x="379" y="483" type="curve"/>
      <point x="310" y="379"/>
      <point x="264" y="326"/>
      <point x="213" y="326" type="curve" smooth="yes"/>
      <point x="177" y="326"/>
      <point x="152" y="344"/>
      <point x="152" y="376" type="curve" smooth="yes"/>
      <point x="152" y="413"/>
      <point x="186" y="444"/>
      <point x="246" y="459" type="curve"/>
      <point x="238" y="483"/>
      <point x="218" y="502"/>
      <point x="198" y="510" type="curve"/>
      <point x="151" y="493"/>
      <point x="99" y="451"/>
      <point x="99" y="387" type="curve" smooth="yes"/>
      <point x="99" y="317"/>
      <point x="158" y="267"/>
      <point x="230" y="267" type="curve" smooth="yes"/>
      <point x="299" y="267"/>
      <point x="355" y="337"/>
      <point x="414" y="432" type="curve"/>
      <point x="371" y="439" type="line"/>
      <point x="406" y="405"/>
      <point x="410" y="381"/>
      <point x="410" y="326" type="curve" smooth="yes"/>
      <point x="410" y="248"/>
      <point x="401" y="63"/>
      <point x="382" y="-49" type="curve"/>
      <point x="400" y="-55" type="line"/>
      <point x="377" y="22"/>
      <point x="351" y="60"/>
      <point x="297" y="60" type="curve" smooth="yes"/>
      <point x="250" y="60"/>
      <point x="186" y="31"/>
      <point x="144" y="31" type="curve" smooth="yes"/>
      <point x="111" y="31"/>
      <point x="84" y="50"/>
      <point x="84" y="94" type="curve" smooth="yes"/>
      <point x="84" y="127"/>
      <point x="100" y="169"/>
      <point x="120" y="198" type="curve"/>
      <point x="107" y="206"/>
      <point x="91" y="211"/>
      <point x="69" y="212" type="curve"/>
      <point x="47" y="174"/>
      <point x="27" y="125"/>
      <point x="27" y="79" type="curve" smooth="yes"/>
      <point x="27" y="12"/>
      <point x="67" y="-37"/>
      <point x="134" y="-37" type="curve" smooth="yes"/>
      <point x="188" y="-37"/>
      <point x="257" y="-5"/>
      <point x="304" y="-5" type="curve" smooth="yes"/>
      <point x="356" y="-5"/>
      <point x="368" y="-46"/>
      <point x="388" y="-84" type="curve"/>
      <point x="406" y="-84"/>
      <point x="427" y="-81"/>
    </contour>
    <contour>
      <point x="710" y="312" type="curve" smooth="yes"/>
      <point x="710" y="401"/>
      <point x="662" y="456"/>
      <point x="605" y="456" type="curve" smooth="yes"/>
      <point x="565" y="456"/>
      <point x="537" y="430"/>
      <point x="523" y="398" type="curve"/>
      <point x="526" y="374"/>
      <point x="538" y="344"/>
      <point x="552" y="327" type="curve"/>
      <point x="559" y="358"/>
      <point x="577" y="395"/>
      <point x="609" y="395" type="curve" smooth="yes"/>
      <point x="637" y="395"/>
      <point x="658" y="368"/>
      <point x="658" y="320" type="curve" smooth="yes"/>
      <point x="658" y="260"/>
      <point x="623" y="218"/>
      <point x="576" y="218" type="curve" smooth="yes"/>
      <point x="526" y="218"/>
      <point x="473" y="265"/>
      <point x="456" y="353" type="curve"/>
      <point x="442" y="302" type="line"/>
      <point x="468" y="206"/>
      <point x="520" y="152"/>
      <point x="586" y="152" type="curve" smooth="yes"/>
      <point x="660" y="152"/>
      <point x="710" y="220"/>
    </contour>
    <contour>
      <point x="351" y="563" type="curve" smooth="yes"/>
      <point x="497" y="563"/>
      <point x="646" y="549"/>
      <point x="733" y="530" type="curve"/>
      <point x="736" y="538"/>
      <point x="739" y="551"/>
      <point x="739" y="561" type="curve" smooth="yes"/>
      <point x="739" y="571"/>
      <point x="737" y="583"/>
      <point x="733" y="589" type="curve"/>
      <point x="649" y="610"/>
      <point x="501" y="626"/>
      <point x="352" y="626" type="curve" smooth="yes"/>
      <point x="214" y="626"/>
      <point x="78" y="609"/>
      <point x="0" y="589" type="curve"/>
      <point x="-3" y="583"/>
      <point x="-5" y="571"/>
      <point x="-5" y="562" type="curve" smooth="yes"/>
      <point x="-5" y="551"/>
      <point x="-3" y="538"/>
      <point x="0" y="530" type="curve"/>
      <point x="81" y="547"/>
      <point x="215" y="563"/>
    </contour>
    <contour>
      <point x="405" y="-71" type="move" name="blwm"/>
    </contour>
    <contour>
      <point x="264" y="-71" type="move" name="haln"/>
    </contour>
    <contour>
      <point x="432" y="690" type="move" name="reph"/>
    </contour>
    <contour>
      <point x="432" y="690" type="move" name="chandrabindu"/>
    </contour>
  </outline>
</glyph>
<glyph name="bn_bh_ra_uukaar" format="1">
  <advance width="734"/>
  <outline>
    <contour>
      <point x="445" y="-74" type="curve"/>
      <point x="459" y="43"/>
      <point x="468" y="183"/>
      <point x="468" y="352" type="curve" smooth="yes"/>
      <point x="469" y="394"/>
      <point x="450" y="426"/>
      <point x="429" y="450" type="curve"/>
      <point x="416" y="462"/>
      <point x="394" y="475"/>
      <point x="379" y="483" type="curve"/>
      <point x="310" y="379"/>
      <point x="264" y="326"/>
      <point x="213" y="326" type="curve" smooth="yes"/>
      <point x="177" y="326"/>
      <point x="152" y="344"/>
      <point x="152" y="376" type="curve" smooth="yes"/>
      <point x="152" y="413"/>
      <point x="186" y="444"/>
      <point x="246" y="459" type="curve"/>
      <point x="238" y="483"/>
      <point x="218" y="502"/>
      <point x="198" y="510" type="curve"/>
      <point x="151" y="493"/>
      <point x="99" y="451"/>
      <point x="99" y="387" type="curve" smooth="yes"/>
      <point x="99" y="317"/>
      <point x="158" y="267"/>
      <point x="230" y="267" type="curve" smooth="yes"/>
      <point x="299" y="267"/>
      <point x="355" y="337"/>
      <point x="414" y="432" type="curve"/>
      <point x="371" y="439" type="line"/>
      <point x="406" y="405"/>
      <point x="410" y="381"/>
      <point x="410" y="326" type="curve" smooth="yes"/>
      <point x="410" y="248"/>
      <point x="401" y="63"/>
      <point x="382" y="-49" type="curve"/>
      <point x="400" y="-55" type="line"/>
      <point x="377" y="22"/>
      <point x="351" y="60"/>
      <point x="297" y="60" type="curve" smooth="yes"/>
      <point x="250" y="60"/>
      <point x="186" y="31"/>
      <point x="144" y="31" type="curve" smooth="yes"/>
      <point x="111" y="31"/>
      <point x="84" y="50"/>
      <point x="84" y="94" type="curve" smooth="yes"/>
      <point x="84" y="127"/>
      <point x="100" y="169"/>
      <point x="120" y="198" type="curve"/>
      <point x="107" y="206"/>
      <point x="91" y="211"/>
      <point x="69" y="212" type="curve"/>
      <point x="47" y="174"/>
      <point x="27" y="125"/>
      <point x="27" y="79" type="curve" smooth="yes"/>
      <point x="27" y="12"/>
      <point x="67" y="-37"/>
      <point x="134" y="-37" type="curve" smooth="yes"/>
      <point x="188" y="-37"/>
      <point x="257" y="-5"/>
      <point x="304" y="-5" type="curve" smooth="yes"/>
      <point x="356" y="-5"/>
      <point x="368" y="-46"/>
      <point x="388" y="-84" type="curve"/>
      <point x="406" y="-84"/>
      <point x="427" y="-81"/>
    </contour>
    <contour>
      <point x="351" y="563" type="curve" smooth="yes"/>
      <point x="497" y="563"/>
      <point x="646" y="549"/>
      <point x="733" y="530" type="curve"/>
      <point x="736" y="538"/>
      <point x="739" y="551"/>
      <point x="739" y="561" type="curve" smooth="yes"/>
      <point x="739" y="571"/>
      <point x="737" y="583"/>
      <point x="733" y="589" type="curve"/>
      <point x="649" y="610"/>
      <point x="501" y="626"/>
      <point x="352" y="626" type="curve" smooth="yes"/>
      <point x="214" y="626"/>
      <point x="78" y="609"/>
      <point x="0" y="589" type="curve"/>
      <point x="-3" y="583"/>
      <point x="-5" y="571"/>
      <point x="-5" y="562" type="curve" smooth="yes"/>
      <point x="-5" y="551"/>
      <point x="-3" y="538"/>
      <point x="0" y="530" type="curve"/>
      <point x="81" y="547"/>
      <point x="215" y="563"/>
    </contour>
    <contour>
      <point x="666" y="116" type="curve"/>
      <point x="640" y="177"/>
      <point x="629" y="240"/>
      <point x="629" y="305" type="curve" smooth="yes"/>
      <point x="629" y="344"/>
      <point x="634" y="384"/>
      <point x="642" y="423" type="curve"/>
      <point x="613" y="475" type="line"/>
      <point x="556" y="457"/>
      <point x="497" y="430"/>
      <point x="440" y="403" type="curve"/>
      <point x="446" y="336" type="line"/>
      <point x="504" y="364"/>
      <point x="559" y="390"/>
      <point x="612" y="409" type="curve"/>
      <point x="587" y="424" type="line"/>
      <point x="579" y="379"/>
      <point x="574" y="334"/>
      <point x="574" y="290" type="curve" smooth="yes"/>
      <point x="574" y="224"/>
      <point x="583" y="161"/>
      <point x="600" y="104" type="curve"/>
      <point x="623" y="104"/>
      <point x="650" y="107"/>
    </contour>
    <contour>
      <point x="407" y="-70" type="move" name="blwm"/>
    </contour>
    <contour>
      <point x="262" y="-70" type="move" name="haln"/>
    </contour>
    <contour>
      <point x="515" y="750" type="move" name="reph"/>
    </contour>
    <contour>
      <point x="515" y="750" type="move" name="chandrabindu"/>
    </contour>
  </outline>
</glyph>
<glyph name="bn_ch_ra" format="1">
  <advance width="492"/>
  <outline>
    <contour>
      <point x="471" y="-129"/>
      <point x="485" y="-114"/>
      <point x="497" y="-97" type="curve"/>
      <point x="401" y="-3"/>
      <point x="307" y="73"/>
      <point x="207" y="126" type="curve"/>
      <point x="225" y="94" type="line"/>
      <point x="346" y="94"/>
      <point x="442" y="146"/>
      <point x="442" y="262" type="curve" smooth="yes"/>
      <point x="442" y="354"/>
      <point x="382" y="430"/>
      <point x="316" y="472" type="curve"/>
      <point x="238" y="488"/>
      <point x="171" y="518"/>
      <point x="133" y="592" type="curve"/>
      <point x="127" y="548" type="line"/>
      <point x="155" y="485"/>
      <point x="200" y="444"/>
      <point x="272" y="430" type="curve"/>
      <point x="257" y="446" type="line"/>
      <point x="261" y="436"/>
      <point x="262" y="429"/>
      <point x="262" y="419" type="curve" smooth="yes"/>
      <point x="262" y="349"/>
      <point x="212" y="287"/>
      <point x="162" y="287" type="curve" smooth="yes"/>
      <point x="142" y="287"/>
      <point x="131" y="297"/>
      <point x="131" y="319" type="curve" smooth="yes"/>
      <point x="131" y="406"/>
      <point x="138" y="514"/>
      <point x="148" y="583" type="curve"/>
      <point x="86" y="583" type="line"/>
      <point x="76" y="512"/>
      <point x="67" y="423"/>
      <point x="67" y="331" type="curve" smooth="yes"/>
      <point x="67" y="274"/>
      <point x="118" y="240"/>
      <point x="171" y="240" type="curve" smooth="yes"/>
      <point x="258" y="240"/>
      <point x="326" y="324"/>
      <point x="326" y="428" type="curve"/>
      <point x="303" y="419" type="line"/>
      <point x="348" y="387"/>
      <point x="380" y="338"/>
      <point x="380" y="280" type="curve" smooth="yes"/>
      <point x="380" y="200"/>
      <point x="320" y="161"/>
      <point x="243" y="161" type="curve" smooth="yes"/>
      <point x="205" y="161"/>
      <point x="160" y="170"/>
      <point x="107" y="188" type="curve"/>
      <point x="122" y="106" type="line"/>
      <point x="242" y="53"/>
      <point x="349" y="-27"/>
      <point x="454" y="-143" type="curve"/>
    </contour>
    <contour>
      <point x="354" y="-226" type="curve"/>
      <point x="355" y="-157"/>
      <point x="356" y="-76"/>
      <point x="362" y="11" type="curve"/>
      <point x="305" y="6" type="line"/>
      <point x="298" y="-81"/>
      <point x="293" y="-170"/>
      <point x="294" y="-237" type="curve"/>
      <point x="313" y="-238"/>
      <point x="335" y="-235"/>
    </contour>
    <contour>
      <point x="309" y="-206" type="line"/>
      <point x="279" y="-131"/>
      <point x="250" y="-99"/>
      <point x="198" y="-99" type="curve" smooth="yes"/>
      <point x="159" y="-99"/>
      <point x="122" y="-108"/>
      <point x="93" y="-108" type="curve" smooth="yes"/>
      <point x="61" y="-108"/>
      <point x="36" y="-92"/>
      <point x="36" y="-55" type="curve" smooth="yes"/>
      <point x="36" y="-32"/>
      <point x="45" y="-6"/>
      <point x="54" y="11" type="curve"/>
      <point x="42" y="21"/>
      <point x="26" y="27"/>
      <point x="5" y="28" type="curve"/>
      <point x="-7" y="0"/>
      <point x="-21" y="-32"/>
      <point x="-21" y="-66" type="curve" smooth="yes"/>
      <point x="-21" y="-126"/>
      <point x="17" y="-171"/>
      <point x="88" y="-171" type="curve" smooth="yes"/>
      <point x="125" y="-171"/>
      <point x="168" y="-161"/>
      <point x="205" y="-161" type="curve" smooth="yes"/>
      <point x="257" y="-161"/>
      <point x="271" y="-208"/>
      <point x="294" y="-237" type="curve"/>
    </contour>
    <contour>
      <point x="56" y="545"/>
      <point x="163" y="558"/>
      <point x="252" y="558" type="curve" smooth="yes"/>
      <point x="340" y="558"/>
      <point x="445" y="545"/>
      <point x="492" y="530" type="curve"/>
      <point x="494" y="538"/>
      <point x="496" y="551"/>
      <point x="496" y="564" type="curve" smooth="yes"/>
      <point x="496" y="573"/>
      <point x="495" y="583"/>
      <point x="492" y="589" type="curve"/>
      <point x="448" y="607"/>
      <point x="342" y="621"/>
      <point x="254" y="621" type="curve" smooth="yes"/>
      <point x="166" y="621"/>
      <point x="54" y="607"/>
      <point x="0" y="589" type="curve"/>
      <point x="-3" y="583"/>
      <point x="-5" y="573"/>
      <point x="-5" y="563" type="curve" smooth="yes"/>
      <point x="-5" y="551"/>
      <point x="-3" y="539"/>
      <point x="0" y="530" type="curve"/>
    </contour>
    <contour>
      <point x="297" y="690" type="move" name="reph"/>
    </contour>
    <contour>
      <point x="297" y="690" type="move" name="chandrabindu"/>
    </contour>
    <contour>
      <point x="222" y="-223" type="move" name="haln"/>
    </contour>
    <contour>
      <point x="310" y="-223" type="move" name="blwm"/>
    </contour>
  </outline>
</glyph>
<glyph name="bn_cha.half" format="1">
  <advance width="492"/>
  <outline>
    <contour>
      <point x="472" y="58"/>
      <point x="486" y="69"/>
      <point x="498" y="80" type="curve"/>
      <point x="402" y="150"/>
      <point x="308" y="205"/>
      <point x="208" y="244" type="curve"/>
      <point x="235" y="217" type="line"/>
      <point x="351" y="217"/>
      <point x="443" y="256"/>
      <point x="443" y="343" type="curve" smooth="yes"/>
      <point x="443" y="410"/>
      <point x="383" y="464"/>
      <point x="317" y="495" type="curve"/>
      <point x="239" y="506"/>
      <point x="165" y="522"/>
      <point x="131" y="570" type="curve"/>
      <point x="125" y="538" type="line"/>
      <point x="151" y="497"/>
      <point x="199" y="470"/>
      <point x="270" y="459" type="curve"/>
      <point x="255" y="476" type="line"/>
      <point x="259" y="469"/>
      <point x="260" y="465"/>
      <point x="260" y="457" type="curve" smooth="yes"/>
      <point x="260" y="406"/>
      <point x="212" y="360"/>
      <point x="163" y="360" type="curve" smooth="yes"/>
      <point x="143" y="360"/>
      <point x="132" y="368"/>
      <point x="132" y="384" type="curve" smooth="yes"/>
      <point x="132" y="443"/>
      <point x="138" y="516"/>
      <point x="147" y="564" type="curve"/>
      <point x="84" y="564" type="line"/>
      <point x="75" y="515"/>
      <point x="68" y="455"/>
      <point x="68" y="392" type="curve" smooth="yes"/>
      <point x="68" y="347"/>
      <point x="119" y="321"/>
      <point x="171" y="321" type="curve" smooth="yes"/>
      <point x="259" y="321"/>
      <point x="327" y="385"/>
      <point x="327" y="463" type="curve"/>
      <point x="301" y="452" type="line"/>
      <point x="347" y="428"/>
      <point x="381" y="396"/>
      <point x="381" y="355" type="curve" smooth="yes"/>
      <point x="381" y="298"/>
      <point x="321" y="270"/>
      <point x="244" y="270" type="curve" smooth="yes"/>
      <point x="206" y="270"/>
      <point x="161" y="275"/>
      <point x="108" y="288" type="curve"/>
      <point x="124" y="226" type="line"/>
      <point x="244" y="187"/>
      <point x="351" y="131"/>
      <point x="455" y="48" type="curve"/>
    </contour>
    <contour>
      <point x="56" y="545"/>
      <point x="163" y="558"/>
      <point x="252" y="558" type="curve" smooth="yes"/>
      <point x="340" y="558"/>
      <point x="445" y="545"/>
      <point x="492" y="530" type="curve"/>
      <point x="494" y="538"/>
      <point x="496" y="551"/>
      <point x="496" y="564" type="curve" smooth="yes"/>
      <point x="496" y="573"/>
      <point x="495" y="583"/>
      <point x="492" y="589" type="curve"/>
      <point x="448" y="607"/>
      <point x="342" y="621"/>
      <point x="254" y="621" type="curve" smooth="yes"/>
      <point x="166" y="621"/>
      <point x="54" y="607"/>
      <point x="0" y="589" type="curve"/>
      <point x="-3" y="583"/>
      <point x="-5" y="573"/>
      <point x="-5" y="563" type="curve" smooth="yes"/>
      <point x="-5" y="551"/>
      <point x="-3" y="539"/>
      <point x="0" y="530" type="curve"/>
    </contour>
  </outline>
</glyph>
<glyph name="bn_d_ma" format="1">
  <advance width="764"/>
  <outline>
    <contour>
      <point x="611" y="-200" type="curve"/>
      <point x="580" y="-63"/>
      <point x="555" y="150"/>
      <point x="555" y="284" type="curve" smooth="yes"/>
      <point x="555" y="428"/>
      <point x="558" y="473"/>
      <point x="569" y="567" type="curve"/>
      <point x="516" y="578" type="line"/>
      <point x="499" y="468"/>
      <point x="491" y="331"/>
      <point x="491" y="200" type="curve" smooth="yes"/>
      <point x="491" y="-48"/>
      <point x="528" y="-140"/>
      <point x="542" y="-216" type="curve"/>
      <point x="567" y="-216"/>
      <point x="592" y="-211"/>
    </contour>
    <contour>
      <point x="324" y="22" type="curve"/>
      <point x="268" y="54" type="line"/>
      <point x="265" y="-8"/>
      <point x="237" y="-40"/>
      <point x="198" y="-40" type="curve" smooth="yes"/>
      <point x="167" y="-40"/>
      <point x="147" y="-20"/>
      <point x="147" y="7" type="curve" smooth="yes"/>
      <point x="147" y="35"/>
      <point x="165" y="59"/>
      <point x="195" y="59" type="curve" smooth="yes"/>
      <point x="226" y="59"/>
      <point x="265" y="40"/>
      <point x="281" y="6" type="curve"/>
      <point x="289" y="64" type="line"/>
      <point x="271" y="93"/>
      <point x="235" y="107"/>
      <point x="197" y="107" type="curve" smooth="yes"/>
      <point x="143" y="107"/>
      <point x="100" y="69"/>
      <point x="100" y="8" type="curve" smooth="yes"/>
      <point x="100" y="-54"/>
      <point x="146" y="-100"/>
      <point x="208" y="-100" type="curve" smooth="yes"/>
      <point x="275" y="-100"/>
      <point x="319" y="-44"/>
    </contour>
    <contour>
      <point x="556" y="-186" type="line"/>
      <point x="524" y="-64"/>
      <point x="363" y="33"/>
      <point x="299" y="66" type="curve"/>
      <point x="280" y="10" type="line"/>
      <point x="394" y="-46"/>
      <point x="479" y="-95"/>
      <point x="542" y="-215" type="curve"/>
    </contour>
    <contour>
      <point x="382" y="569" type="curve" smooth="yes"/>
      <point x="556" y="569"/>
      <point x="680" y="547"/>
      <point x="764" y="530" type="curve"/>
      <point x="767" y="537"/>
      <point x="769" y="550"/>
      <point x="769" y="563" type="curve" smooth="yes"/>
      <point x="769" y="573"/>
      <point x="768" y="583"/>
      <point x="764" y="589" type="curve"/>
      <point x="688" y="609"/>
      <point x="557" y="632"/>
      <point x="381" y="632" type="curve" smooth="yes"/>
      <point x="206" y="632"/>
      <point x="84" y="610"/>
      <point x="0" y="589" type="curve"/>
      <point x="-3" y="583"/>
      <point x="-5" y="574"/>
      <point x="-5" y="563" type="curve" smooth="yes"/>
      <point x="-5" y="551"/>
      <point x="-3" y="539"/>
      <point x="0" y="530" type="curve"/>
      <point x="84" y="548"/>
      <point x="208" y="569"/>
    </contour>
    <contour>
      <point x="269" y="35" type="curve"/>
      <point x="327" y="43" type="line"/>
      <point x="338" y="152"/>
      <point x="371" y="329"/>
      <point x="424" y="435" type="curve"/>
      <point x="409" y="459"/>
      <point x="391" y="477"/>
      <point x="365" y="489" type="curve"/>
      <point x="271" y="432"/>
      <point x="172" y="343"/>
      <point x="88" y="218" type="curve"/>
      <point x="119" y="191" type="line"/>
      <point x="157" y="290"/>
      <point x="177" y="446"/>
      <point x="177" y="526" type="curve" smooth="yes"/>
      <point x="177" y="544"/>
      <point x="177" y="562"/>
      <point x="176" y="579" type="curve"/>
      <point x="128" y="572" type="line"/>
      <point x="125" y="451"/>
      <point x="99" y="312"/>
      <point x="52" y="184" type="curve"/>
      <point x="65" y="164"/>
      <point x="91" y="147"/>
      <point x="112" y="141" type="curve"/>
      <point x="170" y="244"/>
      <point x="282" y="359"/>
      <point x="389" y="424" type="curve"/>
      <point x="366" y="434" type="line"/>
      <point x="318" y="345"/>
      <point x="279" y="170"/>
    </contour>
    <contour>
      <point x="505" y="690" type="move" name="reph"/>
    </contour>
    <contour>
      <point x="505" y="690" type="move" name="chandrabindu"/>
    </contour>
    <contour>
      <point x="564" y="-195" type="move" name="blwm"/>
    </contour>
    <contour>
      <point x="450" y="-196" type="move" name="haln"/>
    </contour>
  </outline>
</glyph>
<glyph name="bn_da_ukaar" format="1">
  <advance width="479"/>
  <outline>
    <contour>
      <point x="447" y="-232" type="curve"/>
      <point x="277" y="-112" type="line"/>
      <point x="265" y="-165" type="line"/>
      <point x="414" y="-279" type="line"/>
      <point x="429" y="-266"/>
      <point x="440" y="-249"/>
    </contour>
    <contour>
      <point x="247" y="557" type="curve" smooth="yes"/>
      <point x="336" y="557"/>
      <point x="431" y="544"/>
      <point x="479" y="530" type="curve"/>
      <point x="482" y="538"/>
      <point x="483" y="552"/>
      <point x="483" y="565" type="curve" smooth="yes"/>
      <point x="483" y="574"/>
      <point x="482" y="583"/>
      <point x="479" y="589" type="curve"/>
      <point x="435" y="606"/>
      <point x="338" y="620"/>
      <point x="252" y="620" type="curve" smooth="yes"/>
      <point x="157" y="620"/>
      <point x="58" y="606"/>
      <point x="0" y="589" type="curve"/>
      <point x="-3" y="583"/>
      <point x="-5" y="574"/>
      <point x="-5" y="564" type="curve" smooth="yes"/>
      <point x="-5" y="552"/>
      <point x="-3" y="538"/>
      <point x="0" y="530" type="curve"/>
      <point x="59" y="544"/>
      <point x="154" y="557"/>
    </contour>
    <contour>
      <point x="427" y="415" type="curve"/>
      <point x="411" y="440"/>
      <point x="393" y="457"/>
      <point x="367" y="469" type="curve"/>
      <point x="269" y="409"/>
      <point x="166" y="313"/>
      <point x="75" y="177" type="curve"/>
      <point x="119" y="191" type="line"/>
      <point x="147" y="288"/>
      <point x="161" y="420"/>
      <point x="161" y="526" type="curve" smooth="yes"/>
      <point x="161" y="544"/>
      <point x="161" y="562"/>
      <point x="160" y="579" type="curve"/>
      <point x="113" y="572" type="line"/>
      <point x="111" y="441"/>
      <point x="85" y="283"/>
      <point x="45" y="146" type="curve"/>
      <point x="60" y="131"/>
      <point x="90" y="121"/>
      <point x="113" y="117" type="curve"/>
      <point x="174" y="221"/>
      <point x="286" y="338"/>
      <point x="392" y="404" type="curve"/>
      <point x="366" y="412" type="line"/>
      <point x="287" y="221"/>
      <point x="353" y="-200"/>
      <point x="150" y="-200" type="curve" smooth="yes"/>
      <point x="117" y="-200"/>
      <point x="95" y="-181"/>
      <point x="95" y="-153" type="curve" smooth="yes"/>
      <point x="95" y="-124"/>
      <point x="117" y="-106"/>
      <point x="150" y="-106" type="curve" smooth="yes"/>
      <point x="194" y="-106"/>
      <point x="229" y="-140"/>
      <point x="253" y="-171" type="curve"/>
      <point x="275" y="-121" type="line"/>
      <point x="242" y="-82"/>
      <point x="200" y="-48"/>
      <point x="147" y="-48" type="curve" smooth="yes"/>
      <point x="91" y="-48"/>
      <point x="45" y="-87"/>
      <point x="45" y="-154" type="curve" smooth="yes"/>
      <point x="45" y="-219"/>
      <point x="91" y="-256"/>
      <point x="154" y="-256" type="curve" smooth="yes"/>
      <point x="420" y="-256"/>
      <point x="345" y="193"/>
    </contour>
    <contour>
      <point x="259" y="690" type="move" name="reph"/>
    </contour>
    <contour>
      <point x="259" y="690" type="move" name="chandrabindu"/>
    </contour>
    <contour>
      <point x="154" y="-250" type="move" name="haln"/>
    </contour>
  </outline>
</glyph>
<glyph name="bn_dh_ra_ukaar" format="1">
  <advance width="648"/>
  <outline>
    <contour>
      <point x="367" y="15" type="line"/>
      <point x="310" y="165"/>
      <point x="204" y="247"/>
      <point x="100" y="289" type="curve"/>
      <point x="103" y="258" type="line"/>
      <point x="168" y="323"/>
      <point x="295" y="389"/>
      <point x="371" y="414" type="curve"/>
      <point x="369" y="492" type="line"/>
      <point x="243" y="446"/>
      <point x="112" y="371"/>
      <point x="48" y="304" type="curve"/>
      <point x="50" y="278"/>
      <point x="58" y="254"/>
      <point x="81" y="228" type="curve"/>
      <point x="188" y="203"/>
      <point x="281" y="128"/>
      <point x="351" y="-19" type="curve"/>
    </contour>
    <contour>
      <point x="263" y="446" type="line"/>
      <point x="231" y="431"/>
      <point x="199" y="415"/>
      <point x="169" y="415" type="curve" smooth="yes"/>
      <point x="132" y="415"/>
      <point x="93" y="441"/>
      <point x="93" y="490" type="curve" smooth="yes"/>
      <point x="93" y="533"/>
      <point x="115" y="557"/>
      <point x="147" y="557" type="curve" smooth="yes"/>
      <point x="181" y="557"/>
      <point x="206" y="532"/>
      <point x="209" y="498" type="curve"/>
      <point x="230" y="504"/>
      <point x="252" y="523"/>
      <point x="263" y="541" type="curve"/>
      <point x="246" y="586"/>
      <point x="201" y="619"/>
      <point x="152" y="619" type="curve" smooth="yes"/>
      <point x="77" y="619"/>
      <point x="31" y="566"/>
      <point x="31" y="500" type="curve" smooth="yes"/>
      <point x="31" y="421"/>
      <point x="100" y="373"/>
      <point x="177" y="373" type="curve"/>
    </contour>
    <contour>
      <point x="624" y="307" type="curve" smooth="yes"/>
      <point x="624" y="397"/>
      <point x="577" y="452"/>
      <point x="519" y="452" type="curve" smooth="yes"/>
      <point x="479" y="452"/>
      <point x="451" y="426"/>
      <point x="437" y="393" type="curve"/>
      <point x="440" y="370"/>
      <point x="452" y="340"/>
      <point x="466" y="322" type="curve"/>
      <point x="474" y="353"/>
      <point x="492" y="390"/>
      <point x="524" y="390" type="curve" smooth="yes"/>
      <point x="552" y="390"/>
      <point x="573" y="363"/>
      <point x="573" y="316" type="curve" smooth="yes"/>
      <point x="573" y="256"/>
      <point x="538" y="214"/>
      <point x="490" y="214" type="curve" smooth="yes"/>
      <point x="440" y="214"/>
      <point x="388" y="260"/>
      <point x="371" y="349" type="curve"/>
      <point x="356" y="298" type="line"/>
      <point x="382" y="201"/>
      <point x="434" y="147"/>
      <point x="501" y="147" type="curve" smooth="yes"/>
      <point x="574" y="147"/>
      <point x="624" y="216"/>
    </contour>
    <contour>
      <point x="401" y="463" type="curve" smooth="yes"/>
      <point x="403" y="485"/>
      <point x="414" y="497"/>
      <point x="442" y="500" type="curve" smooth="yes"/>
      <point x="479" y="505"/>
      <point x="513" y="504"/>
      <point x="543" y="506" type="curve" smooth="yes"/>
      <point x="574" y="508"/>
      <point x="603" y="520"/>
      <point x="648" y="530" type="curve"/>
      <point x="651" y="536"/>
      <point x="653" y="549"/>
      <point x="653" y="561" type="curve" smooth="yes"/>
      <point x="653" y="573"/>
      <point x="651" y="584"/>
      <point x="648" y="589" type="curve"/>
      <point x="607" y="580"/>
      <point x="564" y="562"/>
      <point x="532" y="559" type="curve" smooth="yes"/>
      <point x="500" y="557"/>
      <point x="472" y="559"/>
      <point x="430" y="554" type="curve" smooth="yes"/>
      <point x="390" y="549"/>
      <point x="357" y="532"/>
      <point x="350" y="486" type="curve"/>
      <point x="339" y="396"/>
      <point x="331" y="298"/>
      <point x="331" y="181" type="curve" smooth="yes"/>
      <point x="331" y="44"/>
      <point x="348" y="-16"/>
      <point x="354" y="-61" type="curve"/>
      <point x="372" y="-61" type="line"/>
      <point x="349" y="11"/>
      <point x="320" y="47"/>
      <point x="265" y="47" type="curve" smooth="yes"/>
      <point x="217" y="47"/>
      <point x="158" y="14"/>
      <point x="114" y="14" type="curve" smooth="yes"/>
      <point x="82" y="14"/>
      <point x="55" y="31"/>
      <point x="55" y="75" type="curve" smooth="yes"/>
      <point x="55" y="101"/>
      <point x="67" y="141"/>
      <point x="83" y="166" type="curve"/>
      <point x="69" y="174"/>
      <point x="54" y="179"/>
      <point x="31" y="180" type="curve"/>
      <point x="13" y="145"/>
      <point x="-2" y="99"/>
      <point x="-2" y="58" type="curve" smooth="yes"/>
      <point x="-2" y="-6"/>
      <point x="37" y="-54"/>
      <point x="102" y="-54" type="curve" smooth="yes"/>
      <point x="159" y="-54"/>
      <point x="226" y="-17"/>
      <point x="275" y="-17" type="curve" smooth="yes"/>
      <point x="328" y="-17"/>
      <point x="341" y="-57"/>
      <point x="361" y="-95" type="curve"/>
      <point x="379" y="-95"/>
      <point x="400" y="-92"/>
      <point x="418" y="-86" type="curve"/>
      <point x="395" y="75"/>
      <point x="393" y="177"/>
      <point x="393" y="292" type="curve" smooth="yes"/>
      <point x="393" y="354"/>
      <point x="396" y="410"/>
    </contour>
    <contour>
      <point x="379" y="-81" type="move" name="blwm"/>
    </contour>
    <contour>
      <point x="276" y="-80" type="move" name="haln"/>
    </contour>
    <contour>
      <point x="383" y="690" type="move" name="reph"/>
    </contour>
    <contour>
      <point x="383" y="690" type="move" name="chandrabindu"/>
    </contour>
  </outline>
</glyph>
<glyph name="bn_dha.half" format="1">
  <advance width="481"/>
  <outline>
    <contour>
      <point x="358" y="166" type="line"/>
      <point x="300" y="280"/>
      <point x="203" y="344"/>
      <point x="102" y="375" type="curve"/>
      <point x="103" y="348" type="line"/>
      <point x="168" y="397"/>
      <point x="295" y="447"/>
      <point x="371" y="466" type="curve"/>
      <point x="370" y="525" type="line"/>
      <point x="242" y="488"/>
      <point x="114" y="435"/>
      <point x="48" y="383" type="curve"/>
      <point x="50" y="363"/>
      <point x="58" y="345"/>
      <point x="81" y="326" type="curve"/>
      <point x="184" y="308"/>
      <point x="272" y="251"/>
      <point x="341" y="140" type="curve"/>
    </contour>
    <contour>
      <point x="263" y="490" type="line"/>
      <point x="231" y="478"/>
      <point x="199" y="466"/>
      <point x="169" y="466" type="curve" smooth="yes"/>
      <point x="132" y="466"/>
      <point x="93" y="485"/>
      <point x="93" y="522" type="curve" smooth="yes"/>
      <point x="93" y="555"/>
      <point x="115" y="573"/>
      <point x="147" y="573" type="curve" smooth="yes"/>
      <point x="181" y="573"/>
      <point x="206" y="554"/>
      <point x="209" y="528" type="curve"/>
      <point x="230" y="533"/>
      <point x="252" y="547"/>
      <point x="263" y="560" type="curve"/>
      <point x="246" y="594"/>
      <point x="201" y="619"/>
      <point x="152" y="619" type="curve" smooth="yes"/>
      <point x="77" y="619"/>
      <point x="31" y="579"/>
      <point x="31" y="530" type="curve" smooth="yes"/>
      <point x="31" y="471"/>
      <point x="100" y="435"/>
      <point x="177" y="435" type="curve"/>
    </contour>
    <contour>
      <point x="346" y="491" type="curve" smooth="yes"/>
      <point x="334" y="401"/>
      <point x="331" y="379"/>
      <point x="331" y="290" type="curve" smooth="yes"/>
      <point x="331" y="205"/>
      <point x="336" y="168"/>
      <point x="341" y="140" type="curve"/>
      <point x="366" y="140"/>
      <point x="393" y="143"/>
      <point x="412" y="152" type="curve"/>
      <point x="396" y="212"/>
      <point x="393" y="307"/>
      <point x="393" y="374" type="curve" smooth="yes"/>
      <point x="393" y="422"/>
      <point x="393" y="412"/>
      <point x="397" y="465" type="curve" smooth="yes"/>
      <point x="399" y="488"/>
      <point x="402" y="495"/>
      <point x="422" y="507" type="curve" smooth="yes"/>
      <point x="436" y="515"/>
      <point x="453" y="522"/>
      <point x="481" y="530" type="curve"/>
      <point x="484" y="536"/>
      <point x="487" y="549"/>
      <point x="487" y="561" type="curve" smooth="yes"/>
      <point x="487" y="573"/>
      <point x="484" y="584"/>
      <point x="481" y="589" type="curve"/>
      <point x="440" y="581"/>
      <point x="407" y="568"/>
      <point x="385" y="553" type="curve" smooth="yes"/>
      <point x="360" y="538"/>
      <point x="350" y="520"/>
    </contour>
  </outline>
</glyph>
<glyph name="bn_ekaar.init" format="1">
  <advance width="290"/>
  <outline>
    <contour>
      <point x="232" y="-66"/>
      <point x="268" y="-42"/>
      <point x="292" y="-1" type="curve"/>
      <point x="292" y="19"/>
      <point x="272" y="51"/>
      <point x="249" y="64" type="curve"/>
      <point x="218" y="7"/>
      <point x="200" y="-13"/>
      <point x="181" y="-13" type="curve" smooth="yes"/>
      <point x="144" y="-13"/>
      <point x="121" y="72"/>
      <point x="121" y="208" type="curve" smooth="yes"/>
      <point x="121" y="407"/>
      <point x="172" y="505"/>
      <point x="290" y="530" type="curve"/>
      <point x="292" y="538"/>
      <point x="294" y="551"/>
      <point x="294" y="561" type="curve" smooth="yes"/>
      <point x="294" y="573"/>
      <point x="293" y="583"/>
      <point x="290" y="589" type="curve"/>
      <point x="128" y="557"/>
      <point x="50" y="435"/>
      <point x="50" y="216" type="curve" smooth="yes"/>
      <point x="50" y="49"/>
      <point x="109" y="-66"/>
      <point x="194" y="-66" type="curve" smooth="yes"/>
    </contour>
  </outline>
</glyph>
<glyph name="bn_g_da" format="1">
  <advance width="811"/>
  <outline>
    <contour>
      <point x="427" y="340" type="curve"/>
      <point x="458" y="296" type="line"/>
      <point x="463" y="480"/>
      <point x="390" y="619"/>
      <point x="259" y="619" type="curve" smooth="yes"/>
      <point x="165" y="619"/>
      <point x="105" y="553"/>
      <point x="105" y="473" type="curve" smooth="yes"/>
      <point x="105" y="453"/>
      <point x="107" y="436"/>
      <point x="111" y="420" type="curve"/>
      <point x="141" y="385" type="line"/>
      <point x="181" y="412"/>
      <point x="225" y="427"/>
      <point x="258" y="427" type="curve" smooth="yes"/>
      <point x="287" y="427"/>
      <point x="303" y="415"/>
      <point x="303" y="390" type="curve" smooth="yes"/>
      <point x="303" y="352"/>
      <point x="248" y="295"/>
      <point x="170" y="236" type="curve"/>
      <point x="182" y="217"/>
      <point x="201" y="198"/>
      <point x="224" y="186" type="curve"/>
      <point x="275" y="231"/>
      <point x="350" y="314"/>
      <point x="350" y="380" type="curve" smooth="yes"/>
      <point x="350" y="434"/>
      <point x="306" y="480"/>
      <point x="248" y="480" type="curve" smooth="yes"/>
      <point x="212" y="480"/>
      <point x="168" y="463"/>
      <point x="132" y="438" type="curve"/>
      <point x="173" y="432" type="line"/>
      <point x="166" y="443"/>
      <point x="162" y="458"/>
      <point x="162" y="473" type="curve" smooth="yes"/>
      <point x="162" y="527"/>
      <point x="203" y="555"/>
      <point x="260" y="555" type="curve" smooth="yes"/>
      <point x="337" y="555"/>
      <point x="427" y="489"/>
    </contour>
    <contour>
      <point x="438" y="492" type="curve" smooth="yes"/>
      <point x="426" y="385"/>
      <point x="409" y="259"/>
      <point x="377" y="146" type="curve"/>
      <point x="391" y="132"/>
      <point x="422" y="121"/>
      <point x="445" y="117" type="curve"/>
      <point x="506" y="221"/>
      <point x="618" y="338"/>
      <point x="724" y="404" type="curve"/>
      <point x="702" y="414" type="line"/>
      <point x="680" y="348"/>
      <point x="667" y="261"/>
      <point x="667" y="170" type="curve" smooth="yes"/>
      <point x="667" y="107"/>
      <point x="671" y="41"/>
      <point x="686" y="-19" type="curve"/>
      <point x="707" y="-15"/>
      <point x="732" y="-8"/>
      <point x="750" y="0" type="curve"/>
      <point x="734" y="70"/>
      <point x="727" y="137"/>
      <point x="727" y="199" type="curve" smooth="yes"/>
      <point x="727" y="276"/>
      <point x="738" y="349"/>
      <point x="759" y="415" type="curve"/>
      <point x="743" y="440"/>
      <point x="725" y="457"/>
      <point x="699" y="469" type="curve"/>
      <point x="601" y="409"/>
      <point x="498" y="313"/>
      <point x="407" y="177" type="curve"/>
      <point x="453" y="193" type="line"/>
      <point x="476" y="277"/>
      <point x="482" y="381"/>
      <point x="496" y="466" type="curve" smooth="yes"/>
      <point x="505" y="529"/>
      <point x="547" y="549"/>
      <point x="648" y="549" type="curve" smooth="yes"/>
      <point x="710" y="549"/>
      <point x="772" y="541"/>
      <point x="811" y="530" type="curve"/>
      <point x="814" y="538"/>
      <point x="815" y="552"/>
      <point x="815" y="565" type="curve" smooth="yes"/>
      <point x="815" y="574"/>
      <point x="814" y="583"/>
      <point x="811" y="589" type="curve"/>
      <point x="776" y="602"/>
      <point x="716" y="612"/>
      <point x="651" y="612" type="curve" smooth="yes"/>
      <point x="545" y="612"/>
      <point x="450" y="579"/>
    </contour>
    <contour>
      <point x="518" y="690" type="move" name="reph"/>
    </contour>
    <contour>
      <point x="518" y="690" type="move" name="chandrabindu"/>
    </contour>
    <contour>
      <point x="709" y="0" type="move" name="blwm"/>
    </contour>
    <contour>
      <point x="595" y="0" type="move" name="haln"/>
    </contour>
  </outline>
</glyph>
<glyph name="bn_g_ma" format="1">
  <advance width="852"/>
  <outline>
    <contour>
      <point x="673" y="-200" type="curve"/>
      <point x="642" y="-63"/>
      <point x="616" y="150"/>
      <point x="616" y="284" type="curve" smooth="yes"/>
      <point x="616" y="428"/>
      <point x="619" y="473"/>
      <point x="630" y="567" type="curve"/>
      <point x="578" y="578" type="line"/>
      <point x="561" y="468"/>
      <point x="553" y="331"/>
      <point x="553" y="200" type="curve" smooth="yes"/>
      <point x="553" y="-48"/>
      <point x="590" y="-140"/>
      <point x="604" y="-216" type="curve"/>
      <point x="628" y="-216"/>
      <point x="654" y="-211"/>
    </contour>
    <contour>
      <point x="391" y="23" type="curve"/>
      <point x="326" y="60" type="line"/>
      <point x="323" y="-3"/>
      <point x="300" y="-35"/>
      <point x="260" y="-35" type="curve" smooth="yes"/>
      <point x="228" y="-35"/>
      <point x="208" y="-14"/>
      <point x="208" y="14" type="curve" smooth="yes"/>
      <point x="208" y="41"/>
      <point x="227" y="66"/>
      <point x="256" y="66" type="curve" smooth="yes"/>
      <point x="287" y="66"/>
      <point x="320" y="46"/>
      <point x="335" y="10" type="curve"/>
      <point x="364" y="53" type="line"/>
      <point x="346" y="92"/>
      <point x="300" y="113"/>
      <point x="258" y="113" type="curve" smooth="yes"/>
      <point x="204" y="113"/>
      <point x="161" y="75"/>
      <point x="161" y="12" type="curve" smooth="yes"/>
      <point x="161" y="-53"/>
      <point x="211" y="-100"/>
      <point x="272" y="-100" type="curve" smooth="yes"/>
      <point x="338" y="-100"/>
      <point x="384" y="-43"/>
    </contour>
    <contour>
      <point x="618" y="-186" type="line"/>
      <point x="587" y="-67"/>
      <point x="425" y="28"/>
      <point x="362" y="60" type="curve"/>
      <point x="335" y="7" type="line"/>
      <point x="448" y="-50"/>
      <point x="542" y="-98"/>
      <point x="604" y="-215" type="curve"/>
    </contour>
    <contour>
      <point x="326" y="320" type="curve"/>
      <point x="360" y="273" type="line"/>
      <point x="366" y="470"/>
      <point x="291" y="619"/>
      <point x="158" y="619" type="curve" smooth="yes"/>
      <point x="64" y="619"/>
      <point x="4" y="548"/>
      <point x="4" y="462" type="curve" smooth="yes"/>
      <point x="4" y="441"/>
      <point x="6" y="423"/>
      <point x="10" y="406" type="curve"/>
      <point x="40" y="368" type="line"/>
      <point x="80" y="397"/>
      <point x="124" y="413"/>
      <point x="157" y="413" type="curve" smooth="yes"/>
      <point x="186" y="413"/>
      <point x="202" y="400"/>
      <point x="202" y="374" type="curve" smooth="yes"/>
      <point x="202" y="333"/>
      <point x="147" y="272"/>
      <point x="69" y="208" type="curve"/>
      <point x="81" y="188"/>
      <point x="100" y="167"/>
      <point x="123" y="155" type="curve"/>
      <point x="174" y="203"/>
      <point x="249" y="291"/>
      <point x="249" y="363" type="curve" smooth="yes"/>
      <point x="249" y="421"/>
      <point x="205" y="469"/>
      <point x="147" y="469" type="curve" smooth="yes"/>
      <point x="111" y="469"/>
      <point x="67" y="452"/>
      <point x="31" y="424" type="curve"/>
      <point x="72" y="419" type="line"/>
      <point x="65" y="430"/>
      <point x="61" y="446"/>
      <point x="61" y="462" type="curve" smooth="yes"/>
      <point x="61" y="520"/>
      <point x="102" y="550"/>
      <point x="160" y="550" type="curve" smooth="yes"/>
      <point x="236" y="550"/>
      <point x="326" y="479"/>
    </contour>
    <contour>
      <point x="591" y="561" type="curve" smooth="yes"/>
      <point x="688" y="562"/>
      <point x="785" y="543"/>
      <point x="852" y="530" type="curve"/>
      <point x="854" y="538"/>
      <point x="858" y="549"/>
      <point x="858" y="564" type="curve" smooth="yes"/>
      <point x="858" y="574"/>
      <point x="855" y="583"/>
      <point x="852" y="589" type="curve"/>
      <point x="793" y="605"/>
      <point x="697" y="625"/>
      <point x="595" y="624" type="curve" smooth="yes"/>
      <point x="434" y="624"/>
      <point x="350" y="569"/>
      <point x="340" y="494" type="curve" smooth="yes"/>
      <point x="329" y="420"/>
      <point x="322" y="300"/>
      <point x="322" y="193" type="curve" smooth="yes"/>
      <point x="322" y="112"/>
      <point x="322" y="46"/>
      <point x="328" y="4" type="curve"/>
      <point x="402" y="5" type="line"/>
      <point x="389" y="49"/>
      <point x="386" y="171"/>
      <point x="386" y="278" type="curve" smooth="yes"/>
      <point x="386" y="350"/>
      <point x="388" y="407"/>
      <point x="395" y="465" type="curve" smooth="yes"/>
      <point x="402" y="523"/>
      <point x="432" y="560"/>
    </contour>
    <contour>
      <point x="628" y="-197" type="move" name="blwm"/>
    </contour>
    <contour>
      <point x="491" y="-197" type="move" name="haln"/>
    </contour>
    <contour>
      <point x="557" y="690" type="move" name="reph"/>
    </contour>
    <contour>
      <point x="557" y="690" type="move" name="chandrabindu"/>
    </contour>
  </outline>
</glyph>
<glyph name="bn_g_ra_ukaar" format="1">
  <advance width="744"/>
  <outline>
    <contour>
      <point x="513" y="-15" type="curve"/>
      <point x="498" y="36"/>
      <point x="488" y="155"/>
      <point x="488" y="278" type="curve" smooth="yes"/>
      <point x="488" y="349"/>
      <point x="490" y="407"/>
      <point x="498" y="463" type="curve" smooth="yes"/>
      <point x="500" y="485"/>
      <point x="511" y="497"/>
      <point x="538" y="500" type="curve" smooth="yes"/>
      <point x="576" y="505"/>
      <point x="610" y="504"/>
      <point x="639" y="506" type="curve" smooth="yes"/>
      <point x="671" y="508"/>
      <point x="699" y="520"/>
      <point x="744" y="530" type="curve"/>
      <point x="748" y="536"/>
      <point x="750" y="549"/>
      <point x="750" y="561" type="curve" smooth="yes"/>
      <point x="750" y="573"/>
      <point x="748" y="584"/>
      <point x="744" y="589" type="curve"/>
      <point x="704" y="580"/>
      <point x="661" y="562"/>
      <point x="629" y="559" type="curve" smooth="yes"/>
      <point x="597" y="557"/>
      <point x="569" y="559"/>
      <point x="526" y="554" type="curve" smooth="yes"/>
      <point x="485" y="549"/>
      <point x="452" y="533"/>
      <point x="444" y="487" type="curve" smooth="yes"/>
      <point x="432" y="415"/>
      <point x="424" y="299"/>
      <point x="424" y="193" type="curve" smooth="yes"/>
      <point x="424" y="93"/>
      <point x="432" y="28"/>
      <point x="442" y="-19" type="curve"/>
      <point x="458" y="-12" type="line"/>
      <point x="425" y="47"/>
      <point x="387" y="77"/>
      <point x="324" y="77" type="curve" smooth="yes"/>
      <point x="259" y="77"/>
      <point x="197" y="51"/>
      <point x="146" y="51" type="curve" smooth="yes"/>
      <point x="106" y="51"/>
      <point x="77" y="72"/>
      <point x="77" y="120" type="curve" smooth="yes"/>
      <point x="77" y="148"/>
      <point x="88" y="180"/>
      <point x="100" y="202" type="curve"/>
      <point x="88" y="212"/>
      <point x="72" y="218"/>
      <point x="51" y="219" type="curve"/>
      <point x="35" y="186"/>
      <point x="19" y="148"/>
      <point x="19" y="109" type="curve" smooth="yes"/>
      <point x="19" y="39"/>
      <point x="63" y="-11"/>
      <point x="140" y="-11" type="curve" smooth="yes"/>
      <point x="204" y="-11"/>
      <point x="270" y="14"/>
      <point x="332" y="14" type="curve" smooth="yes"/>
      <point x="396" y="14"/>
      <point x="417" y="-18"/>
      <point x="440" y="-42" type="curve"/>
      <point x="465" y="-42"/>
      <point x="490" y="-35"/>
    </contour>
    <contour>
      <point x="428" y="320" type="curve"/>
      <point x="462" y="273" type="line"/>
      <point x="468" y="470"/>
      <point x="393" y="619"/>
      <point x="260" y="619" type="curve" smooth="yes"/>
      <point x="166" y="619"/>
      <point x="106" y="548"/>
      <point x="106" y="462" type="curve" smooth="yes"/>
      <point x="106" y="441"/>
      <point x="108" y="423"/>
      <point x="112" y="406" type="curve"/>
      <point x="142" y="368" type="line"/>
      <point x="182" y="397"/>
      <point x="226" y="413"/>
      <point x="259" y="413" type="curve" smooth="yes"/>
      <point x="288" y="413"/>
      <point x="304" y="400"/>
      <point x="304" y="374" type="curve" smooth="yes"/>
      <point x="304" y="333"/>
      <point x="249" y="272"/>
      <point x="171" y="208" type="curve"/>
      <point x="183" y="188"/>
      <point x="202" y="167"/>
      <point x="225" y="155" type="curve"/>
      <point x="276" y="203"/>
      <point x="351" y="291"/>
      <point x="351" y="363" type="curve" smooth="yes"/>
      <point x="351" y="421"/>
      <point x="307" y="469"/>
      <point x="249" y="469" type="curve" smooth="yes"/>
      <point x="213" y="469"/>
      <point x="169" y="452"/>
      <point x="133" y="424" type="curve"/>
      <point x="174" y="419" type="line"/>
      <point x="167" y="430"/>
      <point x="163" y="446"/>
      <point x="163" y="462" type="curve" smooth="yes"/>
      <point x="163" y="520"/>
      <point x="204" y="550"/>
      <point x="262" y="550" type="curve" smooth="yes"/>
      <point x="338" y="550"/>
      <point x="428" y="479"/>
    </contour>
    <contour>
      <point x="721" y="307" type="curve" smooth="yes"/>
      <point x="721" y="397"/>
      <point x="674" y="452"/>
      <point x="616" y="452" type="curve" smooth="yes"/>
      <point x="576" y="452"/>
      <point x="548" y="426"/>
      <point x="534" y="393" type="curve"/>
      <point x="537" y="370"/>
      <point x="549" y="340"/>
      <point x="563" y="322" type="curve"/>
      <point x="570" y="353"/>
      <point x="589" y="390"/>
      <point x="621" y="390" type="curve" smooth="yes"/>
      <point x="649" y="390"/>
      <point x="670" y="363"/>
      <point x="670" y="316" type="curve" smooth="yes"/>
      <point x="670" y="256"/>
      <point x="635" y="214"/>
      <point x="587" y="214" type="curve" smooth="yes"/>
      <point x="537" y="214"/>
      <point x="484" y="260"/>
      <point x="467" y="349" type="curve"/>
      <point x="453" y="298" type="line"/>
      <point x="479" y="201"/>
      <point x="531" y="147"/>
      <point x="598" y="147" type="curve" smooth="yes"/>
      <point x="671" y="147"/>
      <point x="721" y="216"/>
    </contour>
    <contour>
      <point x="465" y="-19" type="move" name="blwm"/>
    </contour>
    <contour>
      <point x="505" y="690" type="move" name="reph"/>
    </contour>
    <contour>
      <point x="505" y="690" type="move" name="chandrabindu"/>
    </contour>
    <contour>
      <point x="358" y="-21" type="move" name="haln"/>
    </contour>
  </outline>
</glyph>
<glyph name="bn_ga.half" format="1">
  <advance width="567"/>
  <outline>
    <contour>
      <point x="437" y="164" type="curve"/>
      <point x="460" y="164"/>
      <point x="484" y="167"/>
      <point x="505" y="174" type="curve"/>
      <point x="491" y="210"/>
      <point x="488" y="263"/>
      <point x="488" y="321" type="curve" smooth="yes"/>
      <point x="488" y="349"/>
      <point x="490" y="405"/>
      <point x="497" y="462" type="curve" smooth="yes"/>
      <point x="500" y="485"/>
      <point x="509" y="507"/>
      <point x="523" y="514" type="curve" smooth="yes"/>
      <point x="532" y="519"/>
      <point x="546" y="524"/>
      <point x="567" y="530" type="curve"/>
      <point x="571" y="536"/>
      <point x="573" y="549"/>
      <point x="573" y="562" type="curve" smooth="yes"/>
      <point x="573" y="573"/>
      <point x="571" y="584"/>
      <point x="567" y="589" type="curve"/>
      <point x="529" y="580"/>
      <point x="501" y="571"/>
      <point x="478" y="558" type="curve" smooth="yes"/>
      <point x="455" y="546"/>
      <point x="446" y="519"/>
      <point x="442" y="491" type="curve" smooth="yes"/>
      <point x="431" y="418"/>
      <point x="424" y="330"/>
      <point x="424" y="290" type="curve" smooth="yes"/>
      <point x="424" y="239"/>
      <point x="428" y="191"/>
    </contour>
    <contour>
      <point x="428" y="340" type="curve"/>
      <point x="462" y="296" type="line"/>
      <point x="468" y="480"/>
      <point x="393" y="619"/>
      <point x="260" y="619" type="curve" smooth="yes"/>
      <point x="166" y="619"/>
      <point x="106" y="553"/>
      <point x="106" y="473" type="curve" smooth="yes"/>
      <point x="106" y="453"/>
      <point x="108" y="436"/>
      <point x="112" y="420" type="curve"/>
      <point x="142" y="385" type="line"/>
      <point x="182" y="412"/>
      <point x="226" y="427"/>
      <point x="259" y="427" type="curve" smooth="yes"/>
      <point x="288" y="427"/>
      <point x="304" y="415"/>
      <point x="304" y="390" type="curve" smooth="yes"/>
      <point x="304" y="352"/>
      <point x="249" y="295"/>
      <point x="171" y="236" type="curve"/>
      <point x="183" y="217"/>
      <point x="202" y="198"/>
      <point x="225" y="186" type="curve"/>
      <point x="276" y="231"/>
      <point x="351" y="314"/>
      <point x="351" y="380" type="curve" smooth="yes"/>
      <point x="351" y="434"/>
      <point x="307" y="480"/>
      <point x="249" y="480" type="curve" smooth="yes"/>
      <point x="213" y="480"/>
      <point x="169" y="463"/>
      <point x="133" y="438" type="curve"/>
      <point x="174" y="432" type="line"/>
      <point x="167" y="443"/>
      <point x="163" y="458"/>
      <point x="163" y="473" type="curve" smooth="yes"/>
      <point x="163" y="527"/>
      <point x="204" y="555"/>
      <point x="262" y="555" type="curve" smooth="yes"/>
      <point x="338" y="555"/>
      <point x="428" y="489"/>
    </contour>
  </outline>
</glyph>
<glyph name="bn_ga_ukaar" format="1">
  <advance width="686"/>
  <outline>
    <contour>
      <point x="577" y="-61"/>
      <point x="638" y="7"/>
      <point x="638" y="94" type="curve" smooth="yes"/>
      <point x="638" y="153"/>
      <point x="611" y="206"/>
      <point x="566" y="247" type="curve"/>
      <point x="527" y="215" type="line"/>
      <point x="561" y="186"/>
      <point x="581" y="150"/>
      <point x="581" y="107" type="curve" smooth="yes"/>
      <point x="581" y="53"/>
      <point x="550" y="10"/>
      <point x="459" y="10" type="curve" smooth="yes"/>
      <point x="285" y="10"/>
      <point x="153" y="173"/>
      <point x="72" y="536" type="curve"/>
      <point x="53" y="531"/>
      <point x="35" y="525"/>
      <point x="18" y="516" type="curve"/>
      <point x="79" y="239"/>
      <point x="198" y="-61"/>
      <point x="454" y="-61" type="curve" smooth="yes"/>
    </contour>
    <contour>
      <point x="506" y="138"/>
      <point x="542" y="169"/>
      <point x="567" y="217" type="curve"/>
      <point x="525" y="256" type="line"/>
      <point x="502" y="217"/>
      <point x="481" y="195"/>
      <point x="453" y="195" type="curve" smooth="yes"/>
      <point x="429" y="195"/>
      <point x="415" y="210"/>
      <point x="415" y="231" type="curve" smooth="yes"/>
      <point x="415" y="254"/>
      <point x="431" y="273"/>
      <point x="458" y="273" type="curve" smooth="yes"/>
      <point x="490" y="273"/>
      <point x="520" y="246"/>
      <point x="534" y="207" type="curve"/>
      <point x="557" y="252" type="line"/>
      <point x="541" y="291"/>
      <point x="501" y="318"/>
      <point x="459" y="318" type="curve" smooth="yes"/>
      <point x="408" y="318"/>
      <point x="374" y="276"/>
      <point x="374" y="227" type="curve" smooth="yes"/>
      <point x="374" y="173"/>
      <point x="414" y="138"/>
      <point x="462" y="138" type="curve" smooth="yes"/>
    </contour>
    <contour>
      <point x="602" y="257"/>
      <point x="627" y="321"/>
      <point x="627" y="376" type="curve" smooth="yes"/>
      <point x="627" y="453"/>
      <point x="576" y="484"/>
      <point x="576" y="604" type="curve"/>
      <point x="551" y="621"/>
      <point x="530" y="624"/>
      <point x="506" y="623" type="curve"/>
      <point x="482" y="590"/>
      <point x="458" y="543"/>
      <point x="439" y="489" type="curve"/>
      <point x="458" y="457" type="line"/>
      <point x="438" y="565"/>
      <point x="382" y="632"/>
      <point x="297" y="632" type="curve" smooth="yes"/>
      <point x="215" y="632"/>
      <point x="161" y="569"/>
      <point x="161" y="491" type="curve" smooth="yes"/>
      <point x="161" y="475"/>
      <point x="163" y="457"/>
      <point x="168" y="442" type="curve"/>
      <point x="195" y="406" type="line"/>
      <point x="230" y="432"/>
      <point x="271" y="447"/>
      <point x="299" y="447" type="curve" smooth="yes"/>
      <point x="321" y="447"/>
      <point x="336" y="439"/>
      <point x="336" y="419" type="curve" smooth="yes"/>
      <point x="336" y="383"/>
      <point x="286" y="339"/>
      <point x="221" y="294" type="curve"/>
      <point x="234" y="272"/>
      <point x="252" y="253"/>
      <point x="274" y="242" type="curve"/>
      <point x="325" y="287"/>
      <point x="382" y="348"/>
      <point x="382" y="406" type="curve" smooth="yes"/>
      <point x="382" y="457"/>
      <point x="341" y="500"/>
      <point x="290" y="500" type="curve" smooth="yes"/>
      <point x="257" y="500"/>
      <point x="214" y="484"/>
      <point x="186" y="460" type="curve"/>
      <point x="226" y="453" type="line"/>
      <point x="220" y="464"/>
      <point x="216" y="477"/>
      <point x="216" y="492" type="curve" smooth="yes"/>
      <point x="216" y="543"/>
      <point x="253" y="569"/>
      <point x="299" y="569" type="curve" smooth="yes"/>
      <point x="365" y="569"/>
      <point x="426" y="518"/>
      <point x="441" y="421" type="curve"/>
      <point x="451" y="414"/>
      <point x="463" y="408"/>
      <point x="478" y="406" type="curve"/>
      <point x="497" y="466"/>
      <point x="529" y="533"/>
      <point x="561" y="576" type="curve"/>
      <point x="536" y="580" type="line"/>
      <point x="535" y="480"/>
      <point x="572" y="455"/>
      <point x="572" y="395" type="curve" smooth="yes"/>
      <point x="572" y="345"/>
      <point x="549" y="294"/>
      <point x="517" y="255" type="curve"/>
      <point x="569" y="217" type="line"/>
    </contour>
    <contour>
      <point x="315" y="-38" type="move" name="haln"/>
    </contour>
    <contour>
      <point x="438" y="690" type="move" name="reph"/>
    </contour>
    <contour>
      <point x="438" y="690" type="move" name="chandrabindu"/>
    </contour>
  </outline>
</glyph>
<glyph name="bn_gha.half" format="1">
  <advance width="486"/>
  <outline>
    <contour>
      <point x="377" y="165" type="line"/>
      <point x="319" y="262"/>
      <point x="220" y="314"/>
      <point x="118" y="338" type="curve"/>
      <point x="126" y="308" type="line"/>
      <point x="284" y="396" type="line"/>
      <point x="283" y="415"/>
      <point x="273" y="435"/>
      <point x="258" y="450" type="curve"/>
      <point x="225" y="431"/>
      <point x="192" y="424"/>
      <point x="171" y="424" type="curve" smooth="yes"/>
      <point x="134" y="424"/>
      <point x="107" y="441"/>
      <point x="107" y="466" type="curve" smooth="yes"/>
      <point x="107" y="497"/>
      <point x="137" y="532"/>
      <point x="229" y="559" type="curve"/>
      <point x="127" y="572" type="line"/>
      <point x="70" y="545"/>
      <point x="45" y="514"/>
      <point x="45" y="475" type="curve" smooth="yes"/>
      <point x="45" y="424"/>
      <point x="98" y="396"/>
      <point x="165" y="394" type="curve" smooth="yes"/>
      <point x="216" y="392"/>
      <point x="242" y="405"/>
      <point x="253" y="411" type="curve"/>
      <point x="198" y="417" type="line"/>
      <point x="69" y="345" type="line"/>
      <point x="69" y="328"/>
      <point x="78" y="311"/>
      <point x="103" y="295" type="curve"/>
      <point x="205" y="280"/>
      <point x="290" y="232"/>
      <point x="359" y="141" type="curve"/>
    </contour>
    <contour>
      <point x="428" y="150" type="curve"/>
      <point x="407" y="208"/>
      <point x="405" y="302"/>
      <point x="405" y="361" type="curve" smooth="yes"/>
      <point x="405" y="442"/>
      <point x="409" y="490"/>
      <point x="425" y="557" type="curve"/>
      <point x="364" y="566" type="line"/>
      <point x="348" y="474"/>
      <point x="341" y="394"/>
      <point x="341" y="301" type="curve" smooth="yes"/>
      <point x="341" y="214"/>
      <point x="348" y="176"/>
      <point x="359" y="141" type="curve"/>
      <point x="383" y="141"/>
      <point x="410" y="143"/>
    </contour>
    <contour>
      <point x="250" y="557" type="curve" smooth="yes"/>
      <point x="347" y="557"/>
      <point x="427" y="544"/>
      <point x="486" y="530" type="curve"/>
      <point x="488" y="538"/>
      <point x="491" y="551"/>
      <point x="491" y="564" type="curve" smooth="yes"/>
      <point x="491" y="573"/>
      <point x="489" y="583"/>
      <point x="486" y="589" type="curve"/>
      <point x="430" y="606"/>
      <point x="348" y="620"/>
      <point x="253" y="620" type="curve" smooth="yes"/>
      <point x="150" y="620"/>
      <point x="56" y="606"/>
      <point x="0" y="589" type="curve"/>
      <point x="-3" y="583"/>
      <point x="-5" y="573"/>
      <point x="-5" y="563" type="curve" smooth="yes"/>
      <point x="-5" y="551"/>
      <point x="-3" y="540"/>
      <point x="0" y="530" type="curve"/>
      <point x="57" y="544"/>
      <point x="149" y="557"/>
    </contour>
  </outline>
</glyph>
<glyph name="bn_h_na" format="1">
  <advance width="454"/>
  <outline>
    <contour>
      <point x="319" y="-238"/>
      <point x="347" y="-237"/>
      <point x="367" y="-227" type="curve"/>
      <point x="354" y="-191"/>
      <point x="349" y="-142"/>
      <point x="349" y="-92" type="curve" smooth="yes"/>
      <point x="349" y="-60"/>
      <point x="349" y="-17"/>
      <point x="356" y="14" type="curve"/>
      <point x="306" y="20" type="line"/>
      <point x="293" y="-30"/>
      <point x="286" y="-102"/>
      <point x="286" y="-153" type="curve" smooth="yes"/>
      <point x="286" y="-193"/>
      <point x="292" y="-218"/>
      <point x="296" y="-237" type="curve"/>
    </contour>
    <contour>
      <point x="180" y="-210"/>
      <point x="182" y="-182"/>
      <point x="182" y="-161" type="curve"/>
      <point x="169" y="-169"/>
      <point x="146" y="-175"/>
      <point x="122" y="-175" type="curve" smooth="yes"/>
      <point x="77" y="-175"/>
      <point x="52" y="-154"/>
      <point x="52" y="-119" type="curve" smooth="yes"/>
      <point x="52" y="-81"/>
      <point x="80" y="-60"/>
      <point x="126" y="-60" type="curve" smooth="yes"/>
      <point x="205" y="-60"/>
      <point x="274" y="-138"/>
      <point x="296" y="-237" type="curve"/>
      <point x="311" y="-173" type="line"/>
      <point x="272" y="-62"/>
      <point x="198" y="3"/>
      <point x="124" y="3" type="curve" smooth="yes"/>
      <point x="54" y="3"/>
      <point x="4" y="-44"/>
      <point x="4" y="-114" type="curve" smooth="yes"/>
      <point x="4" y="-189"/>
      <point x="58" y="-236"/>
      <point x="131" y="-236" type="curve" smooth="yes"/>
      <point x="154" y="-236"/>
      <point x="171" y="-231"/>
      <point x="176" y="-227" type="curve"/>
    </contour>
    <contour>
      <point x="449" y="-107"/>
      <point x="463" y="-92"/>
      <point x="474" y="-74" type="curve"/>
      <point x="370" y="27"/>
      <point x="263" y="102"/>
      <point x="157" y="151" type="curve"/>
      <point x="136" y="123" type="line"/>
      <point x="162" y="119"/>
      <point x="188" y="117"/>
      <point x="209" y="117" type="curve" smooth="yes"/>
      <point x="317" y="117"/>
      <point x="389" y="167"/>
      <point x="389" y="266" type="curve" smooth="yes"/>
      <point x="389" y="383"/>
      <point x="288" y="498"/>
      <point x="177" y="498" type="curve" smooth="yes"/>
      <point x="117" y="498"/>
      <point x="72" y="464"/>
      <point x="72" y="403" type="curve" smooth="yes"/>
      <point x="72" y="370"/>
      <point x="85" y="338"/>
      <point x="112" y="305" type="curve"/>
      <point x="133" y="304"/>
      <point x="163" y="310"/>
      <point x="182" y="319" type="curve"/>
      <point x="158" y="341"/>
      <point x="133" y="368"/>
      <point x="133" y="400" type="curve" smooth="yes"/>
      <point x="133" y="428"/>
      <point x="151" y="446"/>
      <point x="187" y="446" type="curve" smooth="yes"/>
      <point x="259" y="446"/>
      <point x="326" y="366"/>
      <point x="326" y="286" type="curve" smooth="yes"/>
      <point x="326" y="220"/>
      <point x="281" y="183"/>
      <point x="200" y="183" type="curve" smooth="yes"/>
      <point x="152" y="183"/>
      <point x="96" y="195"/>
      <point x="34" y="217" type="curve"/>
      <point x="54" y="132" type="line"/>
      <point x="191" y="89"/>
      <point x="313" y="10"/>
      <point x="434" y="-122" type="curve"/>
    </contour>
    <contour>
      <point x="59" y="543"/>
      <point x="149" y="556"/>
      <point x="229" y="556" type="curve" smooth="yes"/>
      <point x="312" y="556"/>
      <point x="404" y="543"/>
      <point x="454" y="530" type="curve"/>
      <point x="457" y="538"/>
      <point x="458" y="551"/>
      <point x="458" y="563" type="curve" smooth="yes"/>
      <point x="458" y="573"/>
      <point x="458" y="583"/>
      <point x="454" y="589" type="curve"/>
      <point x="407" y="605"/>
      <point x="312" y="619"/>
      <point x="231" y="619" type="curve" smooth="yes"/>
      <point x="149" y="619"/>
      <point x="57" y="605"/>
      <point x="0" y="589" type="curve"/>
      <point x="-4" y="583"/>
      <point x="-6" y="574"/>
      <point x="-6" y="563" type="curve" smooth="yes"/>
      <point x="-6" y="552"/>
      <point x="-4" y="540"/>
      <point x="0" y="530" type="curve"/>
    </contour>
    <contour>
      <point x="320" y="-224" type="move" name="blwm"/>
    </contour>
    <contour>
      <point x="181" y="-224" type="move" name="haln"/>
    </contour>
    <contour>
      <point x="226" y="690" type="move" name="reph"/>
    </contour>
    <contour>
      <point x="226" y="690" type="move" name="chandrabindu"/>
    </contour>
  </outline>
</glyph>
